#N canvas 812 240 562 504 10;
#X obj 176 294 soundfiler;
#X floatatom 178 344 15 0 0 0 - - -;
#X obj 27 19 inlet;
#X floatatom 116 91 5 0 0 0 - - -;
#X obj 113 22 inlet;
#N canvas 0 22 450 278 (subpatch) 0;
#X array \$0-drum 372168 float 0;
#X coords 0 1 372167 -1 200 140 1 0 0;
#X restore 323 72 graph;
#X obj 222 185 f \$0;
#X msg 186 250 read -resize \$1 \$2-drum;
#X obj 224 153 loadbang;
#X obj 108 195 list;
#X floatatom 227 220 5 0 0 0 - - -;
#X connect 0 0 1 0;
#X connect 2 0 9 0;
#X connect 4 0 3 0;
#X connect 6 0 9 1;
#X connect 6 0 10 0;
#X connect 7 0 0 0;
#X connect 8 0 6 0;
#X connect 9 0 7 0;
