#N canvas 430 161 824 743 10;
#X obj 315 247 tgl 15 0 empty empty empty 17 7 0 10 -262144 -1 -1 0
1;
#X obj 261 190 bng 15 250 50 0 empty empty empty 17 7 0 10 -262144
-1 -1;
#X obj 319 201 bng 15 250 50 0 empty empty empty 17 7 0 10 -262144
-1 -1;
#X obj 206 147 assigned_note 64 17;
#X msg 283 209 1;
#X msg 341 195 0;
#X obj 338 318 tgl 15 0 respect_note_off empty respect_note_off 17
7 0 10 -262144 -1 -1 1 1;
#X obj 244 312 tgl 15 0 monosample empty monosample 17 7 0 10 -262144
-1 -1 0 1;
#X obj 244 288 > 0;
#X obj 338 296 == 0;
#X msg 208 62 \; pd dsp 1;
#X obj 208 39 loadbang;
#X obj 208 11 bng 15 250 50 0 empty empty empty 17 7 0 10 -262144 -1
-1;
#X text 227 9 initialiaze;
#X obj 378 158 loadbang;
#X obj 360 86 tgl 15 0 loop empty loop 17 7 0 10 -262144 -1 -1 0 1
;
#X floatatom 473 57 0 0 0 0 - - -;
#X floatatom 437 57 0 0 0 0 - - -;
#X floatatom 509 57 0 0 0 0 - - -;
#X text 436 5 midi in;
#X obj 555 21 ctlin;
#X floatatom 555 57 5 0 0 0 - - -;
#X floatatom 594 57 5 0 0 0 - - -;
#X floatatom 630 58 5 0 0 0 - - -;
#X obj 437 24 notein;
#X obj 23 20 assigned_note_test 0 36 1;
#X obj 23 50 assigned_note_test 1 37 1;
#X obj 23 80 assigned_note_test 2 38 1;
#X obj 23 110 assigned_note_test 3 39 1;
#X obj 23 140 assigned_note_test 4 40 1;
#X obj 23 170 assigned_note_test 5 41 1;
#X obj 23 200 assigned_note_test 6 42 1;
#X obj 23 230 assigned_note_test 7 43 1;
#X obj 23 260 assigned_note_test 8 44 1;
#X obj 23 290 assigned_note_test 9 45 1;
#X obj 23 320 assigned_note_test 10 46 1;
#X obj 23 350 assigned_note_test 11 47 1;
#X obj 23 380 assigned_note_test 12 48 1;
#X obj 23 410 assigned_note_test 13 49 1;
#X obj 23 440 assigned_note_test 14 50 1;
#X obj 23 470 assigned_note_test 15 51 1;
#X obj 548 174 netreceive 4040;
#X obj 547 234 bng 15 250 50 0 netreceive empty netreceive 17 7 0 10
-262144 -1 -1;
#X connect 0 0 8 0;
#X connect 0 0 9 0;
#X connect 3 1 1 0;
#X connect 3 1 4 0;
#X connect 3 2 2 0;
#X connect 3 2 5 0;
#X connect 4 0 0 0;
#X connect 5 0 0 0;
#X connect 8 0 7 0;
#X connect 9 0 6 0;
#X connect 11 0 10 0;
#X connect 12 0 11 0;
#X connect 14 0 5 0;
#X connect 20 0 21 0;
#X connect 20 1 22 0;
#X connect 20 2 23 0;
#X connect 24 0 17 0;
#X connect 24 1 16 0;
#X connect 24 2 18 0;
#X connect 41 0 42 0;
