#N canvas 0 22 1211 771 10;
#X floatatom 557 148 5 0 0 0 - - -;
#X floatatom 473 147 0 0 0 0 - - -;
#X floatatom 437 147 0 0 0 0 - - -;
#X floatatom 509 147 0 0 0 0 - - -;
#X obj 437 467 stripnote;
#X obj 437 172 t f f;
#X obj 516 622 bng 15 250 50 0 empty empty empty 17 7 0 10 -262144
-1 -1;
#X text 436 95 midi in;
#X floatatom 556 535 5 0 0 0 mono_sample monosample -;
#X obj 542 556 &;
#X msg 517 599 0;
#X obj 417 623 &;
#X floatatom 417 652 5 0 0 0 - - -;
#X msg 417 596 1;
#X obj 391 692 sel 1;
#X obj 437 114 notein;
#X floatatom 629 146 5 0 0 0 - - -;
#X text 515 53 assigned note;
#X text 629 53 assigned channel;
#X obj 569 208 ==;
#X obj 542 208 ==;
#X obj 556 269 &;
#X floatatom 554 316 5 0 0 0 - - -;
#X obj 542 492 == 0;
#X obj 462 581 spigot;
#X floatatom 557 513 5 0 0 0 - - -;
#X obj 517 575 bng 15 250 50 0 empty empty empty 17 7 0 10 -262144
-1 -1;
#X obj 542 492 == 0;
#X obj 558 120 f \$1;
#X obj 627 117 f \$2;
#X obj 558 86 loadbang;
#X floatatom 386 515 5 0 0 0 - - -;
#X floatatom 618 262 5 0 0 0 - - -;
#X floatatom 509 239 5 0 0 0 - - -;
#X connect 0 0 20 1;
#X connect 2 0 5 0;
#X connect 3 0 19 0;
#X connect 4 0 13 0;
#X connect 4 0 24 0;
#X connect 4 0 31 0;
#X connect 5 1 20 0;
#X connect 8 0 9 1;
#X connect 9 0 24 1;
#X connect 10 0 6 0;
#X connect 11 0 12 0;
#X connect 11 0 14 0;
#X connect 13 0 11 0;
#X connect 15 0 2 0;
#X connect 15 1 1 0;
#X connect 15 2 3 0;
#X connect 16 0 19 1;
#X connect 19 0 21 1;
#X connect 19 0 32 0;
#X connect 20 0 21 0;
#X connect 20 0 33 0;
#X connect 21 0 22 0;
#X connect 23 0 9 0;
#X connect 23 0 25 0;
#X connect 24 0 10 0;
#X connect 26 0 10 0;
#X connect 27 0 9 0;
#X connect 28 0 0 0;
#X connect 29 0 16 0;
#X connect 30 0 29 0;
#X connect 30 0 28 0;
