#N canvas 384 41 941 759 10;
#X obj 397 102 assigned_note \$2 \$3;
#X obj 69 204 soundfiler;
#X obj 69 135 pack s \$0;
#X msg 69 159 read -resize \$1 \$2-drumL \$2-drumR;
#X obj 113 279 expr 44100 / $f1;
#X floatatom 89 402 5 0 0 0 - - -;
#X obj 89 454 phasor~;
#X obj 160 374 t b f;
#X floatatom 119 428 5 0 0 0 - - -;
#X obj 89 427 * 1;
#X obj 124 320 expr 1 / $f1;
#X obj 97 353 *;
#X obj 89 543 *~;
#X obj 89 483 *~ 1;
#X obj 89 512 +~ 0;
#X msg 166 245 1;
#X msg 205 243 0;
#X obj 69 181 spigot 1;
#X obj 68 37 f \$1;
#X obj 68 11 loadbang;
#X msg 68 63 ~/Documents/essample/pure_data/tmp/patch/pad_\$1.wav;
#N canvas 0 22 450 278 (subpatch) 0;
#X array \$0-drumL 165888 float 0;
#X coords 0 1 165887 -1 200 140 1 0 0;
#X restore 617 86 graph;
#N canvas 0 22 450 278 (subpatch) 0;
#X array \$0-drumR 165888 float 0;
#X coords 0 1 165887 -1 200 140 1;
#X restore 618 249 graph;
#X obj 623 423 hsl 200 15 0 1 0 0 empty empty empty -2 -6 0 8 -262144
-1 -1 0 1;
#X obj 622 395 hsl 200 15 0 1 0 0 empty empty empty -2 -6 0 8 -262144
-1 -1 16617 1;
#X obj 261 869 dac~;
#X obj 281 738 / 127;
#X obj 148 725 tabread4~ \$0-drumL;
#X obj 366 728 tabread4~ \$0-drumR;
#X text 298 719 volume;
#X obj 145 832 hip~ 5;
#X obj 368 835 hip~ 5;
#X obj 148 774 *~ 0.8;
#X obj 366 779 *~ 0.8;
#X obj 232 813 line~;
#X obj 367 807 *~;
#X obj 146 801 *~;
#X msg 232 785 \$1 15;
#X obj 319 836 bng 15 250 50 0 empty empty empty 17 7 0 10 -262144
-1 -1;
#X obj 145 869 send~ bus-L;
#X obj 368 866 send~ bus-R;
#X floatatom 287 791 5 0 0 0 - - -;
#X obj 285 763 spigot 1;
#X obj 281 641 ctlin 4 1;
#X obj 544 399 unsig~ 20;
#X msg 229 346 0;
#X obj 448 170 bng 15 250 50 0 empty empty empty 17 7 0 10 -262144
-1 -1;
#X msg 288 351 1;
#X msg 381 366 0;
#X obj 512 163 bng 15 250 50 0 empty empty empty 17 7 0 10 -262144
-1 -1;
#X obj 443 32 unassigned_note \$2 \$3;
#X obj 503 62 bng 15 250 50 0 empty empty empty 17 7 0 10 -262144 -1
-1;
#X obj 563 62 bng 15 250 50 0 empty empty empty 17 7 0 10 -262144 -1
-1;
#X obj 751 512 tgl 15 0 empty respect_note_off respect_note_off 17
7 0 10 -262144 -1 -1 1 1;
#X obj 734 569 tgl 15 0 empty monosample Mono_Sample 17 7 0 10 -262144
-1 -1 0 1;
#X obj 448 495 spigot;
#X msg 469 560 0;
#X obj 192 125 print;
#X obj 370 482 spigot;
#X obj 490 536 bng 15 250 50 0 empty empty empty 17 7 0 10 -262144
-1 -1;
#X obj 400 542 bng 15 250 50 0 empty empty empty 17 7 0 10 -262144
-1 -1;
#X text 493 321 comment;
#X obj 516 527 assigned_note 64 17;
#X text 516 504 mute all upon foot pedal note off;
#X floatatom 567 454 5 0 0 0 - - -;
#X obj 697 630 tgl 15 0 empty loop loop 17 7 0 10 -262144 -1 -1 0 1
;
#X obj 604 633 sel 1;
#X obj 603 605 > 0.98;
#X obj 604 662 spigot;
#X obj 596 710 bng 15 250 50 0 empty empty empty 17 7 0 10 -262144
-1 -1;
#X obj 697 653 == 0;
#X connect 0 1 45 0;
#X connect 0 1 46 0;
#X connect 0 1 47 0;
#X connect 0 2 48 0;
#X connect 0 2 49 0;
#X connect 1 0 4 0;
#X connect 1 0 12 1;
#X connect 1 0 15 0;
#X connect 1 0 16 0;
#X connect 2 0 3 0;
#X connect 3 0 17 0;
#X connect 4 0 11 1;
#X connect 5 0 9 0;
#X connect 6 0 13 0;
#X connect 6 0 44 0;
#X connect 7 0 5 0;
#X connect 7 1 9 1;
#X connect 9 0 6 0;
#X connect 9 0 8 0;
#X connect 10 0 11 0;
#X connect 11 0 5 0;
#X connect 12 0 27 0;
#X connect 12 0 28 0;
#X connect 13 0 14 0;
#X connect 14 0 12 0;
#X connect 15 0 10 0;
#X connect 15 0 13 1;
#X connect 16 0 14 1;
#X connect 17 0 1 0;
#X connect 18 0 20 0;
#X connect 19 0 18 0;
#X connect 20 0 2 0;
#X connect 20 0 57 0;
#X connect 26 0 42 0;
#X connect 27 0 32 0;
#X connect 28 0 33 0;
#X connect 30 0 25 0;
#X connect 30 0 39 0;
#X connect 31 0 25 1;
#X connect 31 0 40 0;
#X connect 32 0 36 0;
#X connect 33 0 35 0;
#X connect 34 0 35 1;
#X connect 34 0 36 1;
#X connect 35 0 31 0;
#X connect 36 0 30 0;
#X connect 37 0 34 0;
#X connect 37 0 38 0;
#X connect 42 0 32 1;
#X connect 42 0 33 1;
#X connect 42 0 41 0;
#X connect 43 0 26 0;
#X connect 44 0 24 0;
#X connect 44 0 64 0;
#X connect 45 0 6 1;
#X connect 47 0 37 0;
#X connect 48 0 58 0;
#X connect 50 1 51 0;
#X connect 50 1 55 0;
#X connect 50 2 52 0;
#X connect 53 0 58 1;
#X connect 54 0 55 1;
#X connect 55 0 56 0;
#X connect 55 0 59 0;
#X connect 56 0 37 0;
#X connect 58 0 37 0;
#X connect 58 0 60 0;
#X connect 62 2 56 0;
#X connect 64 0 67 0;
#X connect 65 0 70 0;
#X connect 66 0 68 0;
#X connect 67 0 66 0;
#X connect 68 0 56 0;
#X connect 68 0 69 0;
#X connect 70 0 68 1;
