#N canvas 0 22 1211 771 10;
#X floatatom 558 148 5 0 0 0 - - -;
#X floatatom 473 147 0 0 0 0 - - -;
#X floatatom 437 147 0 0 0 0 - - -;
#X floatatom 509 147 0 0 0 0 - - -;
#X text 436 95 midi in;
#X obj 437 114 notein;
#X floatatom 627 146 5 0 0 0 - - -;
#X text 515 53 assigned note;
#X text 629 53 assigned channel;
#X obj 569 208 ==;
#X obj 542 208 ==;
#X obj 556 269 &;
#X floatatom 581 312 5 0 0 0 - - -;
#X obj 558 120 f \$1;
#X obj 627 117 f \$2;
#X obj 558 86 loadbang;
#X floatatom 618 262 5 0 0 0 - - -;
#X floatatom 509 239 5 0 0 0 - - -;
#X obj 556 355 outlet;
#X connect 0 0 10 1;
#X connect 2 0 10 0;
#X connect 3 0 9 0;
#X connect 5 0 2 0;
#X connect 5 1 1 0;
#X connect 5 2 3 0;
#X connect 6 0 9 1;
#X connect 9 0 11 1;
#X connect 9 0 16 0;
#X connect 10 0 11 0;
#X connect 10 0 17 0;
#X connect 11 0 12 0;
#X connect 11 0 18 0;
#X connect 13 0 0 0;
#X connect 14 0 6 0;
#X connect 15 0 14 0;
#X connect 15 0 13 0;
