#N canvas 219 283 684 513 10;
#X obj -446 279 textfile;
#X msg -441 215 rewind;
#X obj -457 243 until;
#X obj -446 385 list-extend;
#X msg -409 165 clear;
#X obj -467 423 list;
#X obj -474 20 inlet;
#X msg -425 190 read \$1;
#X obj -459 468 outlet;
#X obj -471 123 t b b b a b;
#X msg -474 77 read \$1;
#X obj -400 321 t b b;
#X connect 0 0 3 0;
#X connect 0 1 11 0;
#X connect 1 0 0 0;
#X connect 2 0 0 0;
#X connect 3 0 5 1;
#X connect 4 0 0 0;
#X connect 5 0 8 0;
#X connect 6 0 10 0;
#X connect 7 0 0 0;
#X connect 9 1 2 0;
#X connect 9 2 1 0;
#X connect 9 3 7 0;
#X connect 9 4 4 0;
#X connect 9 4 3 1;
#X connect 10 0 9 0;
#X connect 11 0 5 0;
#X connect 11 1 2 1;
