#N canvas 589 140 450 300 10;
#X obj 17 9 bng 15 250 50 0 empty empty empty 17 7 0 10 -262144 -1;
#X msg 186 0 read -resize /Users/clean/Documents/essample/slices/DrumAndBass_Hip_Hop_Breaks_Part_7_0379.738685.wav
DrumAndBass_Hip_Hop_Breaks_Part_7_0379.738685.wav;
#X obj 114 0 soundfiler;
#N canvas 0 22 450 278 (subpatch) 0;
#X array DrumAndBass_Hip_Hop_Breaks_Part_7_0379.738685.wav 100 float 2;
#X coords 0 1 99 -1 200 140 1;
#X restore 600 0 graph;
#X obj 17 0 bng 15 250 50 0 empty empty empty 17 7 0 10 -262144 -1;
#X obj 166 0 tabplay~ DrumAndBass_Hip_Hop_Breaks_Part_7_0379.738685.wav;
#X msg 186 200 read -resize /Users/clean/Documents/essample/slices/DrumAndBass_Hip_Hop_Breaks_Part_7_0382.390748.wav
DrumAndBass_Hip_Hop_Breaks_Part_7_0382.390748.wav;
#X obj 114 200 soundfiler;
#N canvas 0 22 450 278 (subpatch) 0;
#X array DrumAndBass_Hip_Hop_Breaks_Part_7_0382.390748.wav 100 float 2;
#X coords 0 1 99 -1 200 140 1;
#X restore 600 200 graph;
#X obj 17 200 bng 15 250 50 0 empty empty empty 17 7 0 10 -262144 -1;
#X obj 166 200 tabplay~ DrumAndBass_Hip_Hop_Breaks_Part_7_0382.390748.wav;
#X msg 186 400 read -resize /Users/clean/Documents/essample/slices/DrumAndBass_Hip_Hop_Breaks_Part_7_0323.183878.wav
DrumAndBass_Hip_Hop_Breaks_Part_7_0323.183878.wav;
#X obj 114 400 soundfiler;
#N canvas 0 22 450 278 (subpatch) 0;
#X array DrumAndBass_Hip_Hop_Breaks_Part_7_0323.183878.wav 100 float 2;
#X coords 0 1 99 -1 200 140 1;
#X restore 600 400 graph;
#X obj 17 400 bng 15 250 50 0 empty empty empty 17 7 0 10 -262144 -1;
#X obj 166 400 tabplay~ DrumAndBass_Hip_Hop_Breaks_Part_7_0323.183878.wav;
#X msg 186 600 read -resize /Users/clean/Documents/essample/slices/DrumAndBass_Hip_Hop_Breaks_Part_7_0235.035556.wav
DrumAndBass_Hip_Hop_Breaks_Part_7_0235.035556.wav;
#X obj 114 600 soundfiler;
#N canvas 0 22 450 278 (subpatch) 0;
#X array DrumAndBass_Hip_Hop_Breaks_Part_7_0235.035556.wav 100 float 2;
#X coords 0 1 99 -1 200 140 1;
#X restore 600 600 graph;
#X obj 17 600 bng 15 250 50 0 empty empty empty 17 7 0 10 -262144 -1;
#X obj 166 600 tabplay~ DrumAndBass_Hip_Hop_Breaks_Part_7_0235.035556.wav;
#X msg 186 800 read -resize /Users/clean/Documents/essample/slices/DrumAndBass_Hip_Hop_Breaks_Part_7_0054.337392.wav
DrumAndBass_Hip_Hop_Breaks_Part_7_0054.337392.wav;
#X obj 114 800 soundfiler;
#N canvas 0 22 450 278 (subpatch) 0;
#X array DrumAndBass_Hip_Hop_Breaks_Part_7_0054.337392.wav 100 float 2;
#X coords 0 1 99 -1 200 140 1;
#X restore 600 800 graph;
#X obj 17 800 bng 15 250 50 0 empty empty empty 17 7 0 10 -262144 -1;
#X obj 166 800 tabplay~ DrumAndBass_Hip_Hop_Breaks_Part_7_0054.337392.wav;
#X msg 186 1000 read -resize /Users/clean/Documents/essample/slices/DrumAndBass_Hip_Hop_Breaks_Part_7_0259.749909.wav
DrumAndBass_Hip_Hop_Breaks_Part_7_0259.749909.wav;
#X obj 114 1000 soundfiler;
#N canvas 0 22 450 278 (subpatch) 0;
#X array DrumAndBass_Hip_Hop_Breaks_Part_7_0259.749909.wav 100 float 2;
#X coords 0 1 99 -1 200 140 1;
#X restore 600 1000 graph;
#X obj 17 1000 bng 15 250 50 0 empty empty empty 17 7 0 10 -262144 -1;
#X obj 166 1000 tabplay~ DrumAndBass_Hip_Hop_Breaks_Part_7_0259.749909.wav;
#X msg 186 1200 read -resize /Users/clean/Documents/essample/slices/DrumAndBass_Hip_Hop_Breaks_Part_7_0206.170045.wav
DrumAndBass_Hip_Hop_Breaks_Part_7_0206.170045.wav;
#X obj 114 1200 soundfiler;
#N canvas 0 22 450 278 (subpatch) 0;
#X array DrumAndBass_Hip_Hop_Breaks_Part_7_0206.170045.wav 100 float 2;
#X coords 0 1 99 -1 200 140 1;
#X restore 600 1200 graph;
#X obj 17 1200 bng 15 250 50 0 empty empty empty 17 7 0 10 -262144 -1;
#X obj 166 1200 tabplay~ DrumAndBass_Hip_Hop_Breaks_Part_7_0206.170045.wav;
#X msg 186 1400 read -resize /Users/clean/Documents/essample/slices/DrumAndBass_Hip_Hop_Breaks_Part_7_0049.252063.wav
DrumAndBass_Hip_Hop_Breaks_Part_7_0049.252063.wav;
#X obj 114 1400 soundfiler;
#N canvas 0 22 450 278 (subpatch) 0;
#X array DrumAndBass_Hip_Hop_Breaks_Part_7_0049.252063.wav 100 float 2;
#X coords 0 1 99 -1 200 140 1;
#X restore 600 1400 graph;
#X obj 17 1400 bng 15 250 50 0 empty empty empty 17 7 0 10 -262144 -1;
#X obj 166 1400 tabplay~ DrumAndBass_Hip_Hop_Breaks_Part_7_0049.252063.wav;
#X msg 186 1600 read -resize /Users/clean/Documents/essample/slices/DrumAndBass_Hip_Hop_Breaks_Part_7_0021.239070.wav
DrumAndBass_Hip_Hop_Breaks_Part_7_0021.239070.wav;
#X obj 114 1600 soundfiler;
#N canvas 0 22 450 278 (subpatch) 0;
#X array DrumAndBass_Hip_Hop_Breaks_Part_7_0021.239070.wav 100 float 2;
#X coords 0 1 99 -1 200 140 1;
#X restore 600 1600 graph;
#X obj 17 1600 bng 15 250 50 0 empty empty empty 17 7 0 10 -262144 -1;
#X obj 166 1600 tabplay~ DrumAndBass_Hip_Hop_Breaks_Part_7_0021.239070.wav;
#X msg 186 1800 read -resize /Users/clean/Documents/essample/slices/DrumAndBass_Hip_Hop_Breaks_Part_7_0175.949524.wav
DrumAndBass_Hip_Hop_Breaks_Part_7_0175.949524.wav;
#X obj 114 1800 soundfiler;
#N canvas 0 22 450 278 (subpatch) 0;
#X array DrumAndBass_Hip_Hop_Breaks_Part_7_0175.949524.wav 100 float 2;
#X coords 0 1 99 -1 200 140 1;
#X restore 600 1800 graph;
#X obj 17 1800 bng 15 250 50 0 empty empty empty 17 7 0 10 -262144 -1;
#X obj 166 1800 tabplay~ DrumAndBass_Hip_Hop_Breaks_Part_7_0175.949524.wav;
#X msg 186 2000 read -resize /Users/clean/Documents/essample/slices/DrumAndBass_Hip_Hop_Breaks_Part_7_0136.324150.wav
DrumAndBass_Hip_Hop_Breaks_Part_7_0136.324150.wav;
#X obj 114 2000 soundfiler;
#N canvas 0 22 450 278 (subpatch) 0;
#X array DrumAndBass_Hip_Hop_Breaks_Part_7_0136.324150.wav 100 float 2;
#X coords 0 1 99 -1 200 140 1;
#X restore 600 2000 graph;
#X obj 17 2000 bng 15 250 50 0 empty empty empty 17 7 0 10 -262144 -1;
#X obj 166 2000 tabplay~ DrumAndBass_Hip_Hop_Breaks_Part_7_0136.324150.wav;
#X msg 186 2200 read -resize /Users/clean/Documents/essample/slices/DrumAndBass_Hip_Hop_Breaks_Part_7_0249.528549.wav
DrumAndBass_Hip_Hop_Breaks_Part_7_0249.528549.wav;
#X obj 114 2200 soundfiler;
#N canvas 0 22 450 278 (subpatch) 0;
#X array DrumAndBass_Hip_Hop_Breaks_Part_7_0249.528549.wav 100 float 2;
#X coords 0 1 99 -1 200 140 1;
#X restore 600 2200 graph;
#X obj 17 2200 bng 15 250 50 0 empty empty empty 17 7 0 10 -262144 -1;
#X obj 166 2200 tabplay~ DrumAndBass_Hip_Hop_Breaks_Part_7_0249.528549.wav;
#X msg 186 2400 read -resize /Users/clean/Documents/essample/slices/DrumAndBass_Hip_Hop_Breaks_Part_7_0325.577823.wav
DrumAndBass_Hip_Hop_Breaks_Part_7_0325.577823.wav;
#X obj 114 2400 soundfiler;
#N canvas 0 22 450 278 (subpatch) 0;
#X array DrumAndBass_Hip_Hop_Breaks_Part_7_0325.577823.wav 100 float 2;
#X coords 0 1 99 -1 200 140 1;
#X restore 600 2400 graph;
#X obj 17 2400 bng 15 250 50 0 empty empty empty 17 7 0 10 -262144 -1;
#X obj 166 2400 tabplay~ DrumAndBass_Hip_Hop_Breaks_Part_7_0325.577823.wav;
#X msg 186 2600 read -resize /Users/clean/Documents/essample/slices/DrumAndBass_Hip_Hop_Breaks_Part_7_0236.821655.wav
DrumAndBass_Hip_Hop_Breaks_Part_7_0236.821655.wav;
#X obj 114 2600 soundfiler;
#N canvas 0 22 450 278 (subpatch) 0;
#X array DrumAndBass_Hip_Hop_Breaks_Part_7_0236.821655.wav 100 float 2;
#X coords 0 1 99 -1 200 140 1;
#X restore 600 2600 graph;
#X obj 17 2600 bng 15 250 50 0 empty empty empty 17 7 0 10 -262144 -1;
#X obj 166 2600 tabplay~ DrumAndBass_Hip_Hop_Breaks_Part_7_0236.821655.wav;
#X msg 186 2800 read -resize /Users/clean/Documents/essample/slices/DrumAndBass_Hip_Hop_Breaks_Part_7_0093.881066.wav
DrumAndBass_Hip_Hop_Breaks_Part_7_0093.881066.wav;
#X obj 114 2800 soundfiler;
#N canvas 0 22 450 278 (subpatch) 0;
#X array DrumAndBass_Hip_Hop_Breaks_Part_7_0093.881066.wav 100 float 2;
#X coords 0 1 99 -1 200 140 1;
#X restore 600 2800 graph;
#X obj 17 2800 bng 15 250 50 0 empty empty empty 17 7 0 10 -262144 -1;
#X obj 166 2800 tabplay~ DrumAndBass_Hip_Hop_Breaks_Part_7_0093.881066.wav;
#X msg 186 3000 read -resize /Users/clean/Documents/essample/slices/DrumAndBass_Hip_Hop_Breaks_Part_7_0038.512993.wav
DrumAndBass_Hip_Hop_Breaks_Part_7_0038.512993.wav;
#X obj 114 3000 soundfiler;
#N canvas 0 22 450 278 (subpatch) 0;
#X array DrumAndBass_Hip_Hop_Breaks_Part_7_0038.512993.wav 100 float 2;
#X coords 0 1 99 -1 200 140 1;
#X restore 600 3000 graph;
#X obj 17 3000 bng 15 250 50 0 empty empty empty 17 7 0 10 -262144 -1;
#X obj 166 3000 tabplay~ DrumAndBass_Hip_Hop_Breaks_Part_7_0038.512993.wav;
#X msg 186 3200 read -resize /Users/clean/Documents/essample/slices/DrumAndBass_Hip_Hop_Breaks_Part_7_0225.048934.wav
DrumAndBass_Hip_Hop_Breaks_Part_7_0225.048934.wav;
#X obj 114 3200 soundfiler;
#N canvas 0 22 450 278 (subpatch) 0;
#X array DrumAndBass_Hip_Hop_Breaks_Part_7_0225.048934.wav 100 float 2;
#X coords 0 1 99 -1 200 140 1;
#X restore 600 3200 graph;
#X obj 17 3200 bng 15 250 50 0 empty empty empty 17 7 0 10 -262144 -1;
#X obj 166 3200 tabplay~ DrumAndBass_Hip_Hop_Breaks_Part_7_0225.048934.wav;
#X msg 186 3400 read -resize /Users/clean/Documents/essample/slices/DrumAndBass_Hip_Hop_Breaks_Part_7_0327.963424.wav
DrumAndBass_Hip_Hop_Breaks_Part_7_0327.963424.wav;
#X obj 114 3400 soundfiler;
#N canvas 0 22 450 278 (subpatch) 0;
#X array DrumAndBass_Hip_Hop_Breaks_Part_7_0327.963424.wav 100 float 2;
#X coords 0 1 99 -1 200 140 1;
#X restore 600 3400 graph;
#X obj 17 3400 bng 15 250 50 0 empty empty empty 17 7 0 10 -262144 -1;
#X obj 166 3400 tabplay~ DrumAndBass_Hip_Hop_Breaks_Part_7_0327.963424.wav;
#X msg 186 3600 read -resize /Users/clean/Documents/essample/slices/DrumAndBass_Hip_Hop_Breaks_Part_7_0295.372789.wav
DrumAndBass_Hip_Hop_Breaks_Part_7_0295.372789.wav;
#X obj 114 3600 soundfiler;
#N canvas 0 22 450 278 (subpatch) 0;
#X array DrumAndBass_Hip_Hop_Breaks_Part_7_0295.372789.wav 100 float 2;
#X coords 0 1 99 -1 200 140 1;
#X restore 600 3600 graph;
#X obj 17 3600 bng 15 250 50 0 empty empty empty 17 7 0 10 -262144 -1;
#X obj 166 3600 tabplay~ DrumAndBass_Hip_Hop_Breaks_Part_7_0295.372789.wav;
#X msg 186 3800 read -resize /Users/clean/Documents/essample/slices/DrumAndBass_Hip_Hop_Breaks_Part_7_0184.299478.wav
DrumAndBass_Hip_Hop_Breaks_Part_7_0184.299478.wav;
#X obj 114 3800 soundfiler;
#N canvas 0 22 450 278 (subpatch) 0;
#X array DrumAndBass_Hip_Hop_Breaks_Part_7_0184.299478.wav 100 float 2;
#X coords 0 1 99 -1 200 140 1;
#X restore 600 3800 graph;
#X obj 17 3800 bng 15 250 50 0 empty empty empty 17 7 0 10 -262144 -1;
#X obj 166 3800 tabplay~ DrumAndBass_Hip_Hop_Breaks_Part_7_0184.299478.wav;
#X msg 186 4000 read -resize /Users/clean/Documents/essample/slices/DrumAndBass_Hip_Hop_Breaks_Part_7_0088.698980.wav
DrumAndBass_Hip_Hop_Breaks_Part_7_0088.698980.wav;
#X obj 114 4000 soundfiler;
#N canvas 0 22 450 278 (subpatch) 0;
#X array DrumAndBass_Hip_Hop_Breaks_Part_7_0088.698980.wav 100 float 2;
#X coords 0 1 99 -1 200 140 1;
#X restore 600 4000 graph;
#X obj 17 4000 bng 15 250 50 0 empty empty empty 17 7 0 10 -262144 -1;
#X obj 166 4000 tabplay~ DrumAndBass_Hip_Hop_Breaks_Part_7_0088.698980.wav;
#X connect 1 0 2 0;
#X connect 0 0 1 0;
#X connect 6 0 7 0;
#X connect 0 0 6 0;
#X connect 11 0 12 0;
#X connect 0 0 11 0;
#X connect 16 0 17 0;
#X connect 0 0 16 0;
#X connect 21 0 22 0;
#X connect 0 0 21 0;
#X connect 26 0 27 0;
#X connect 0 0 26 0;
#X connect 31 0 32 0;
#X connect 0 0 31 0;
#X connect 36 0 37 0;
#X connect 0 0 36 0;
#X connect 41 0 42 0;
#X connect 0 0 41 0;
#X connect 46 0 47 0;
#X connect 0 0 46 0;
#X connect 51 0 52 0;
#X connect 0 0 51 0;
#X connect 56 0 57 0;
#X connect 0 0 56 0;
#X connect 61 0 62 0;
#X connect 0 0 61 0;
#X connect 66 0 67 0;
#X connect 0 0 66 0;
#X connect 71 0 72 0;
#X connect 0 0 71 0;
#X connect 76 0 77 0;
#X connect 0 0 76 0;
#X connect 81 0 82 0;
#X connect 0 0 81 0;
#X connect 86 0 87 0;
#X connect 0 0 86 0;
#X connect 91 0 92 0;
#X connect 0 0 91 0;
#X connect 96 0 97 0;
#X connect 0 0 96 0;
#X connect 101 0 102 0;
#X connect 0 0 101 0;
