#N canvas 814 111 615 579 12;
#X declare -lib moocow;
#X obj 434 104 import moocow;
#X obj 137 326 select 1;
#X obj 137 427 mrpeach/tcpclient;
#X obj 137 401 list trim;
#X obj 137 502 outlet;
#X obj 59 10 inlet;
#X obj 342 330 zexy/symbol2list /;
#X obj 162 97 list prepend GET;
#X obj 162 120 list trim;
#X obj 342 147 symbol;
#X msg 382 407 connect \$1 80;
#X obj 342 355 list split 2;
#X obj 342 380 list split 1;
#X obj 175 454 outlet;
#X obj 214 479 outlet;
#X obj 137 376 list;
#X obj 137 478 bytes2any;
#X obj 162 274 list split;
#X obj 293 254 - 1;
#X obj 162 166 trigger anything anything;
#X obj 293 227 list length;
#X text 323 254 strip NULL terminator and;
#X msg 22 292 disconnect;
#X obj 59 51 trigger bang anything anything;
#X obj 162 298 list append 13 10 13 10;
#X obj 162 143 any2bytes;
#X text 332 298 add carriage returns;
#X obj 64 314 tgl 15 0 empty empty empty 17 7 0 10 -4034 -1 -1 0 1
;
#X msg 64 334 dump \$1;
#X text 436 366 extract server ip;
#X msg 0 270 verbosity \$1;
#X obj 0 251 tgl 15 1 empty empty empty 17 7 0 10 -4034 -1 -1 0 1;
#X obj 329 9 inlet;
#X obj 329 50 route float;
#X text 386 8 set the EOS character;
#X obj 329 427 t f;
#X connect 1 0 15 0;
#X connect 2 0 16 0;
#X connect 2 1 13 0;
#X connect 2 2 1 0;
#X connect 2 2 14 0;
#X connect 3 0 2 0;
#X connect 5 0 23 0;
#X connect 6 0 11 0;
#X connect 7 0 8 0;
#X connect 8 0 25 0;
#X connect 9 0 6 0;
#X connect 10 0 2 0;
#X connect 11 0 12 0;
#X connect 12 1 10 0;
#X connect 15 0 3 0;
#X connect 16 0 4 0;
#X connect 17 0 24 0;
#X connect 18 0 17 1;
#X connect 19 0 17 0;
#X connect 19 1 20 0;
#X connect 20 0 18 0;
#X connect 22 0 2 0;
#X connect 23 1 7 0;
#X connect 23 2 9 0;
#X connect 24 0 15 1;
#X connect 25 0 19 0;
#X connect 27 0 28 0;
#X connect 28 0 2 0;
#X connect 30 0 2 0;
#X connect 31 0 30 0;
#X connect 32 0 33 0;
#X connect 33 0 35 0;
#X connect 35 0 16 1;
