#N canvas 0 22 1436 856 10;
#X floatatom 581 209 5 0 0 0 - - -;
#X obj 581 173 inlet;
#X floatatom 503 207 0 0 0 0 - - -;
#X floatatom 467 207 0 0 0 0 - - -;
#X floatatom 539 207 0 0 0 0 - - -;
#X text 466 155 midi in;
#X obj 467 174 notein;
#X floatatom 669 206 5 0 0 0 - - -;
#X obj 669 173 inlet;
#X text 558 153 assigned note;
#X text 669 153 assigned channel;
#X obj 606 250 ==;
#X obj 569 266 ==;
#X obj 593 294 &;
#X obj 579 440 outlet;
#X floatatom 631 337 5 0 0 0 - - -;
#X connect 0 0 12 1;
#X connect 1 0 0 0;
#X connect 3 0 12 0;
#X connect 4 0 11 0;
#X connect 6 0 3 0;
#X connect 6 1 2 0;
#X connect 6 2 4 0;
#X connect 7 0 11 1;
#X connect 8 0 7 0;
#X connect 11 0 13 1;
#X connect 12 0 13 0;
#X connect 13 0 14 0;
#X connect 13 0 15 0;
