#N canvas 0 22 1147 738 10;
#X obj 498 141 bng 15 250 50 0 empty empty empty 17 7 0 10 -262144
-1 -1;
#X obj 552 141 bng 15 250 50 0 empty empty empty 17 7 0 10 -262144
-1 -1;
#X obj 625 290 bng 15 250 50 0 empty empty empty 17 7 0 10 -262144
-1 -1;
#X obj 688 290 bng 15 250 50 0 empty empty empty 17 7 0 10 -262144
-1 -1;
#X obj 411 325 tgl 15 0 empty respect_note_off respect_note_off 17
7 0 10 -262144 -1 -1 1 1;
#X obj 519 337 tgl 15 0 empty monosample Mono_Sample 17 7 0 10 -262144
-1 -1 0 1;
#X msg 499 464 0;
#X obj 531 413 assigned_note 64 17;
#X text 434 90 trigger if midi matches assigned note;
#X text 566 238 trigger when unassigned note;
#X obj 399 437 ctlin 4 17;
#X obj 503 504 bng 15 250 50 0 empty empty empty 17 7 0 10 -262144
-1 -1;
#X text 401 422 mute all;
#X floatatom 483 67 0 0 0 0 - - -;
#X floatatom 447 67 0 0 0 0 - - -;
#X floatatom 519 67 0 0 0 0 - - -;
#X text 446 15 midi in;
#X obj 565 31 ctlin;
#X floatatom 565 67 5 0 0 0 - - -;
#X floatatom 604 67 5 0 0 0 - - -;
#X floatatom 640 68 5 0 0 0 - - -;
#X obj 447 34 notein;
#X obj 437 110 assigned_note 36 1;
#X obj 567 260 unassigned_note 36 1;
#X obj 451 163 tgl 15 0 empty empty empty 17 7 0 10 -262144 -1 -1 0
1;
#X obj 581 300 tgl 15 0 empty empty empty 17 7 0 10 -262144 -1 -1 1
1;
#X obj 555 458 tgl 15 0 empty empty empty 17 7 0 10 -262144 -1 -1 0
1;
#X obj 605 453 bng 15 250 50 0 empty empty empty 17 7 0 10 -262144
-1 -1;
#X obj 658 456 bng 15 250 50 0 empty empty empty 17 7 0 10 -262144
-1 -1;
#X connect 6 0 11 0;
#X connect 7 0 26 0;
#X connect 7 1 27 0;
#X connect 7 2 28 0;
#X connect 10 0 6 0;
#X connect 17 0 18 0;
#X connect 17 1 19 0;
#X connect 17 2 20 0;
#X connect 21 0 14 0;
#X connect 21 1 13 0;
#X connect 21 2 15 0;
#X connect 22 0 24 0;
#X connect 22 1 0 0;
#X connect 22 2 1 0;
#X connect 23 0 25 0;
#X connect 23 1 2 0;
#X connect 23 2 3 0;
