#N canvas 0 22 1436 852 10;
#X floatatom -536 525 5 0 0 0 - - -;
#X obj -536 590 zl slice;
#X floatatom -347 168 0 0 0 0 - - -;
#X floatatom -385 168 0 0 0 0 - - -;
#X floatatom -309 167 0 0 0 0 - - -;
#X obj -385 141 ctlin;
#X msg -202 447 36;
#X msg -187 489 37;
#X obj -581 553 zl slice;
#X obj -301 473 jample_subsampler;
#X obj -385 198 t b f b b;
#X msg -174 530 38;
#X msg -157 572 39;
#X msg -137 616 40;
#X msg -124 666 41;
#X msg -111 705 42;
#X msg -98 748 43;
#X msg -77 787 44;
#X msg -62 830 45;
#X msg -44 872 46;
#X msg -36 908 47;
#X msg -24 952 48;
#X msg -11 995 49;
#X msg 1 1040 50;
#X msg 16 1080 51;
#X obj -301 374 unpack s s s s s s s s s s s s s s s s;
#X msg -491 566 20;
#X obj -536 501 *;
#X msg -113 122 \; pd dsp 1;
#X obj -113 73 loadbang;
#X text -200 811 9;
#X text -389 119 midi control in: sample pagination;
#X text -625 17 bang to load sample list in tmp/pd_list.txt;
#X obj 41 82 tgl 15 1 respect_note_off empty respect_note_off 17 7
0 10 -262144 -1 -1 0 1;
#X obj 42 152 tgl 15 1 monosample empty mono_sample 17 7 0 10 -262144
-1 -1 1 1;
#X obj 44 220 tgl 15 1 loop_enable empty loop_enable 17 7 0 10 -262144
-1 -1 0 1;
#X obj -286 516 jample_subsampler;
#X obj -271 556 jample_subsampler;
#X obj -256 597 jample_subsampler;
#X obj -236 645 jample_subsampler;
#X obj -223 690 jample_subsampler;
#X obj -210 729 jample_subsampler;
#X obj -196 771 jample_subsampler;
#X obj -175 813 jample_subsampler;
#X obj -160 856 jample_subsampler;
#X obj -141 895 jample_subsampler;
#X obj -133 937 jample_subsampler;
#X obj -123 977 jample_subsampler;
#X obj -110 1022 jample_subsampler;
#X obj -95 1061 jample_subsampler;
#X obj -83 1103 jample_subsampler;
#X obj -301 473 jample_subsampler;
#X obj -301 473 jample_subsampler;
#X obj -301 473 jample_subsampler;
#X obj -579 148 file_loader;
#X obj -159 215 file_loader;
#X msg -159 178 list tmp/metadata/song_index.txt;
#X obj -181 289 zl nth;
#X obj -180 265 list;
#X obj -181 315 pack s;
#X obj -516 292 debounce_b 40;
#X msg -77 216 -1;
#X msg -42 216 1;
#X floatatom -50 298 5 0 0 0 - - -;
#X obj -77 240 +;
#X obj -43 240 f;
#X obj -77 264 t b f;
#X obj -557 327 list length;
#X obj -557 383 / 127;
#X obj -557 410 int;
#X floatatom -521 477 5 0 0 0 - - -;
#X floatatom -557 353 5 0 0 0 - - -;
#X obj 214 23 pgmin;
#X obj 214 56 sel 3;
#X obj 212 84 sel 4;
#X obj 214 140 sel 5;
#X obj 213 207 sel 6;
#X obj 216 249 sel 7;
#X obj -439 427 +;
#X msg -439 403 -4;
#X msg -404 403 4;
#X obj 217 302 sel 8;
#X obj 216 358 sel 9;
#X obj -439 453 t b f;
#X connect 0 0 8 1;
#X connect 0 0 78 1;
#X connect 1 0 25 0;
#X connect 3 0 10 0;
#X connect 5 0 3 0;
#X connect 5 1 2 0;
#X connect 5 2 4 0;
#X connect 6 0 9 1;
#X connect 6 0 7 0;
#X connect 7 0 11 0;
#X connect 7 0 36 1;
#X connect 8 1 1 0;
#X connect 10 0 60 0;
#X connect 10 1 27 0;
#X connect 10 3 26 0;
#X connect 11 0 12 0;
#X connect 11 0 37 1;
#X connect 12 0 13 0;
#X connect 12 0 38 1;
#X connect 13 0 14 0;
#X connect 13 0 39 1;
#X connect 14 0 15 0;
#X connect 14 0 40 1;
#X connect 15 0 16 0;
#X connect 15 0 41 1;
#X connect 16 0 17 0;
#X connect 16 0 42 1;
#X connect 17 0 18 0;
#X connect 17 0 43 1;
#X connect 18 0 19 0;
#X connect 18 0 44 1;
#X connect 19 0 20 0;
#X connect 19 0 45 1;
#X connect 20 0 21 0;
#X connect 20 0 46 1;
#X connect 21 0 22 0;
#X connect 21 0 47 1;
#X connect 22 0 23 0;
#X connect 22 0 48 1;
#X connect 23 0 24 0;
#X connect 23 0 49 1;
#X connect 24 0 50 1;
#X connect 25 0 9 0;
#X connect 25 1 36 0;
#X connect 25 2 37 0;
#X connect 25 3 38 0;
#X connect 25 4 39 0;
#X connect 25 5 40 0;
#X connect 25 6 41 0;
#X connect 25 7 42 0;
#X connect 25 8 43 0;
#X connect 25 9 44 0;
#X connect 25 10 45 0;
#X connect 25 11 46 0;
#X connect 25 12 47 0;
#X connect 25 13 48 0;
#X connect 25 14 49 0;
#X connect 25 15 50 0;
#X connect 26 0 1 1;
#X connect 27 0 0 0;
#X connect 29 0 28 0;
#X connect 54 0 8 0;
#X connect 54 0 67 0;
#X connect 55 0 58 1;
#X connect 56 0 55 0;
#X connect 57 0 59 0;
#X connect 58 0 57 0;
#X connect 59 0 54 0;
#X connect 60 0 6 0;
#X connect 60 0 54 0;
#X connect 61 0 64 0;
#X connect 62 0 64 0;
#X connect 64 0 65 0;
#X connect 64 0 66 0;
#X connect 65 0 64 1;
#X connect 66 0 58 0;
#X connect 66 1 57 1;
#X connect 66 1 63 0;
#X connect 67 0 71 0;
#X connect 68 0 69 0;
#X connect 69 0 70 0;
#X connect 70 0 27 1;
#X connect 71 0 68 0;
#X connect 72 0 73 0;
#X connect 72 0 74 0;
#X connect 72 0 75 0;
#X connect 72 0 76 0;
#X connect 72 0 77 0;
#X connect 72 0 81 0;
#X connect 72 0 82 0;
#X connect 73 0 33 0;
#X connect 74 0 34 0;
#X connect 75 0 35 0;
#X connect 76 0 61 0;
#X connect 77 0 62 0;
#X connect 78 0 83 0;
#X connect 79 0 78 0;
#X connect 80 0 78 0;
#X connect 81 0 79 0;
#X connect 82 0 80 0;
#X connect 83 0 8 0;
#X connect 83 1 0 0;
