#N canvas 0 22 1436 852 10;
#X floatatom -536 525 5 0 0 0 - - -;
#X obj -536 590 zl slice;
#X floatatom -347 168 0 0 0 0 - - -;
#X floatatom -385 168 0 0 0 0 - - -;
#X floatatom -309 167 0 0 0 0 - - -;
#X obj -385 141 ctlin;
#X msg -202 447 36;
#X msg -187 489 37;
#X obj -581 553 zl slice;
#X obj -301 473 jample_subsampler;
#X obj -385 198 t b f b b;
#X msg -174 530 38;
#X msg -157 572 39;
#X msg -137 616 40;
#X msg -124 666 41;
#X msg -111 705 42;
#X msg -98 748 43;
#X msg -77 787 44;
#X msg -62 830 45;
#X msg -44 872 46;
#X msg -36 908 47;
#X msg -24 952 48;
#X msg -11 995 49;
#X msg 1 1040 50;
#X msg 16 1080 51;
#X obj -301 374 unpack s s s s s s s s s s s s s s s s;
#X msg -491 566 20;
#X obj -597 229 textfile;
#X obj -623 36 bng 15 250 50 0 empty empty empty 17 7 0 10 -262144
-1 -1;
#X msg -592 165 rewind;
#X obj -608 193 until;
#X obj -623 73 t b b b b b;
#X obj -597 335 list-extend;
#X msg -560 115 clear;
#X msg -501 432 16;
#X msg -501 403 8;
#X obj -476 462 *;
#X msg -501 378 4;
#X msg -576 140 read tmp/pd_list.txt;
#X obj -564 395 loadbang;
#X msg -113 122 \; pd dsp 1;
#X obj -113 73 loadbang;
#X obj -618 373 list;
#X obj -618 283 debounce_b 200;
#X text -200 811 9;
#X text -389 119 midi control in: sample pagination;
#X text -625 17 bang to load sample list in tmp/pd_list.txt;
#X obj 41 82 tgl 15 1 respect_note_off empty respect_note_off 17 7
0 10 -262144 -1 -1 0 1;
#X obj 42 152 tgl 15 1 monosample empty mono_sample 17 7 0 10 -262144
-1 -1 1 1;
#X obj 44 220 tgl 15 1 loop_enable empty loop_enable 17 7 0 10 -262144
-1 -1 0 1;
#X floatatom -493 254 5 0 0 0 - - -;
#X obj -286 516 jample_subsampler;
#X obj -271 556 jample_subsampler;
#X obj -256 597 jample_subsampler;
#X obj -236 645 jample_subsampler;
#X obj -223 690 jample_subsampler;
#X obj -210 729 jample_subsampler;
#X obj -196 771 jample_subsampler;
#X obj -175 813 jample_subsampler;
#X obj -160 856 jample_subsampler;
#X obj -141 895 jample_subsampler;
#X obj -133 937 jample_subsampler;
#X obj -123 977 jample_subsampler;
#X obj -110 1022 jample_subsampler;
#X obj -95 1061 jample_subsampler;
#X obj -83 1103 jample_subsampler;
#X obj -301 473 jample_subsampler;
#X obj -301 473 jample_subsampler;
#X obj -301 473 jample_subsampler;
#X connect 0 0 8 1;
#X connect 1 0 25 0;
#X connect 3 0 10 0;
#X connect 5 0 3 0;
#X connect 5 1 2 0;
#X connect 5 2 4 0;
#X connect 6 0 9 1;
#X connect 6 0 7 0;
#X connect 7 0 11 0;
#X connect 7 0 51 1;
#X connect 8 1 1 0;
#X connect 10 0 43 0;
#X connect 10 1 36 0;
#X connect 10 3 26 0;
#X connect 11 0 12 0;
#X connect 11 0 52 1;
#X connect 12 0 13 0;
#X connect 12 0 53 1;
#X connect 13 0 14 0;
#X connect 13 0 54 1;
#X connect 14 0 15 0;
#X connect 14 0 55 1;
#X connect 15 0 16 0;
#X connect 15 0 56 1;
#X connect 16 0 17 0;
#X connect 16 0 57 1;
#X connect 17 0 18 0;
#X connect 17 0 58 1;
#X connect 18 0 19 0;
#X connect 18 0 59 1;
#X connect 19 0 20 0;
#X connect 19 0 60 1;
#X connect 20 0 21 0;
#X connect 20 0 61 1;
#X connect 21 0 22 0;
#X connect 21 0 62 1;
#X connect 22 0 23 0;
#X connect 22 0 63 1;
#X connect 23 0 24 0;
#X connect 23 0 64 1;
#X connect 24 0 65 1;
#X connect 25 0 9 0;
#X connect 25 1 51 0;
#X connect 25 2 52 0;
#X connect 25 3 53 0;
#X connect 25 4 54 0;
#X connect 25 5 55 0;
#X connect 25 6 56 0;
#X connect 25 7 57 0;
#X connect 25 8 58 0;
#X connect 25 9 59 0;
#X connect 25 10 60 0;
#X connect 25 11 61 0;
#X connect 25 12 62 0;
#X connect 25 13 63 0;
#X connect 25 14 64 0;
#X connect 25 15 65 0;
#X connect 26 0 1 1;
#X connect 27 0 32 0;
#X connect 27 1 30 1;
#X connect 28 0 31 0;
#X connect 29 0 27 0;
#X connect 30 0 27 0;
#X connect 31 1 30 0;
#X connect 31 2 29 0;
#X connect 31 3 38 0;
#X connect 31 3 32 1;
#X connect 31 4 33 0;
#X connect 32 0 42 1;
#X connect 33 0 27 0;
#X connect 34 0 36 1;
#X connect 35 0 36 1;
#X connect 36 0 0 0;
#X connect 37 0 36 1;
#X connect 38 0 27 0;
#X connect 39 0 34 0;
#X connect 41 0 40 0;
#X connect 42 0 8 0;
#X connect 43 0 42 0;
#X connect 43 0 6 0;
#X connect 50 0 43 1;
