#N canvas 0 22 1436 803 10;
#X declare -stdpath extra/zexy -stdpath extra/moocow -stdpath extra/mrpeach
;
#X declare -stdpath extra/zexy -stdpath extra/moocow -stdpath extra/mrpeach
;
#X declare -stdpath extra/zexy -stdpath extra/moocow -stdpath extra/mrpeach
;
#X declare -stdpath extra/zexy -stdpath extra/moocow -stdpath extra/mrpeach
;
#X declare -stdpath extra/zexy -stdpath extra/moocow -stdpath extra/mrpeach
;
#X declare -stdpath extra/zexy -stdpath extra/moocow -stdpath extra/mrpeach
;
#X declare -stdpath extra/zexy -stdpath extra/moocow -stdpath extra/mrpeach
;
#X declare -stdpath extra/zexy -stdpath extra/moocow -stdpath extra/mrpeach
;
#X declare -stdpath extra/zexy -stdpath extra/moocow -stdpath extra/mrpeach
;
#X declare -stdpath extra/zexy -stdpath extra/moocow -stdpath extra/mrpeach
;
#X declare -stdpath extra/zexy -stdpath extra/moocow -stdpath extra/mrpeach
;
#X declare -stdpath extra/zexy -stdpath extra/moocow -stdpath extra/mrpeach
;
#X declare -stdpath extra/zexy -stdpath extra/moocow -stdpath extra/mrpeach
;
#X declare -stdpath extra/zexy -stdpath extra/moocow -stdpath extra/mrpeach
;
#X declare -stdpath extra/zexy -stdpath extra/moocow -stdpath extra/mrpeach
;
#X declare -stdpath extra/zexy -stdpath extra/moocow -stdpath extra/mrpeach
;
#X declare -stdpath extra/zexy -stdpath extra/moocow -stdpath extra/mrpeach
;
#X declare -stdpath extra/zexy -stdpath extra/moocow -stdpath extra/mrpeach
;
#X declare -stdpath extra/zexy -stdpath extra/moocow -stdpath extra/mrpeach
;
#X declare -stdpath extra/zexy -stdpath extra/moocow -stdpath extra/mrpeach
;
#X declare -stdpath extra/zexy -stdpath extra/moocow -stdpath extra/mrpeach
;
#X declare -stdpath extra/zexy -stdpath extra/moocow -stdpath extra/mrpeach
;
#X declare -stdpath extra/zexy -stdpath extra/moocow -stdpath extra/mrpeach
;
#X declare -stdpath extra/zexy -stdpath extra/moocow -stdpath extra/mrpeach
;
#X declare -stdpath extra/zexy -stdpath extra/moocow -stdpath extra/mrpeach
;
#X obj -201 374 unpack s s s s s s s s s s s s s s s s;
#X msg 40 184 \; pd dsp 1;
#X obj 40 151 loadbang;
#X obj 151 140 tgl 15 1 respect_note_off empty respect_note_off 17
7 0 10 -262144 -1 -1 0 127;
#X obj 183 268 tgl 15 1 monosample empty mono_sample 17 7 0 10 -262144
-1 -1 0 127;
#X obj 185 336 tgl 15 1 loop_enable empty loop_enable 17 7 0 10 -262144
-1 -1 0 127;
#X text -100 811 9;
#X text -216 471 1;
#X text -36 1105 16;
#X floatatom 453 77 0 0 0 0 - - -;
#X floatatom 417 77 0 0 0 0 - - -;
#X floatatom 489 77 0 0 0 0 - - -;
#X text 416 25 midi in;
#X obj 395 116 ctlin;
#X floatatom 378 170 5 0 0 0 - - -;
#X floatatom 436 168 5 0 0 0 - - -;
#X floatatom 489 180 5 0 0 0 - - -;
#X obj -201 473 jample_subsampler;
#X obj 220 16 loadbang;
#X obj 150 82 note_to_toggle;
#X obj 245 142 loadbang;
#X obj 175 208 note_to_toggle;
#X obj 306 245 loadbang;
#X obj 236 311 note_to_toggle;
#X msg 54 446 1;
#X msg 64 598 1;
#X msg 102 749 1;
#X msg 116 892 1;
#X obj 417 44 notein;
#X msg -351 -87 list /Users/clean/Documents/essample/pure_data/tmp/patch/pad_0.wav
/Users/clean/Documents/essample/pure_data/tmp/patch/pad_1.wav /Users/clean/Documents/essample/pure_data/tmp/patch/pad_2.wav
/Users/clean/Documents/essample/pure_data/tmp/patch/pad_3.wav /Users/clean/Documents/essample/pure_data/tmp/patch/pad_4.wav
/Users/clean/Documents/essample/pure_data/tmp/patch/pad_5.wav /Users/clean/Documents/essample/pure_data/tmp/patch/pad_6.wav
/Users/clean/Documents/essample/pure_data/tmp/patch/pad_7.wav /Users/clean/Documents/essample/pure_data/tmp/patch/pad_8.wav
/Users/clean/Documents/essample/pure_data/tmp/patch/pad_9.wav /Users/clean/Documents/essample/pure_data/tmp/patch/pad_10.wav
/Users/clean/Documents/essample/pure_data/tmp/patch/pad_11.wav /Users/clean/Documents/essample/pure_data/tmp/patch/pad_12.wav
/Users/clean/Documents/essample/pure_data/tmp/patch/pad_13.wav /Users/clean/Documents/essample/pure_data/tmp/patch/pad_14.wav
/Users/clean/Documents/essample/pure_data/tmp/patch/pad_15.wav;
#X msg 57 487 1;
#X msg 62 527 1;
#X msg 62 559 1;
#X msg 67 639 1;
#X msg 72 679 1;
#X msg 72 711 1;
#X msg 105 790 1;
#X msg 110 830 1;
#X msg 110 862 1;
#X msg 119 933 1;
#X msg 124 973 1;
#X msg 124 1005 1;
#X msg -102 447 36;
#X msg -87 489 37;
#X msg -74 530 38;
#X msg -57 572 39;
#X msg -37 616 40;
#X msg -24 666 41;
#X msg -11 705 42;
#X msg 2 748 43;
#X msg 23 787 44;
#X msg 38 830 45;
#X msg 56 872 46;
#X msg 64 908 47;
#X msg 76 952 48;
#X msg 89 995 49;
#X msg 101 1040 50;
#X obj 320 26 bng 15 250 50 0 empty empty empty 17 7 0 10 -262144 -1
-1;
#X msg 116 1080 51;
#X floatatom 239 448 5 0 0 0 - - -;
#X obj 109 552 bng 15 250 50 0 empty empty empty 17 7 0 10 -262144
-1 -1;
#X obj 170 527 print;
#X obj 197 446 bng 15 250 50 0 empty empty empty 17 7 0 10 -262144
-1 -1;
#X obj 113 392 netreceive 4040;
#X obj -186 516 jample_subsampler;
#X obj -171 556 jample_subsampler;
#X obj -156 597 jample_subsampler;
#X obj -136 645 jample_subsampler;
#X obj -123 690 jample_subsampler;
#X obj -110 729 jample_subsampler;
#X obj -96 771 jample_subsampler;
#X obj -75 813 jample_subsampler;
#X obj -60 856 jample_subsampler;
#X obj -41 895 jample_subsampler;
#X obj -33 937 jample_subsampler;
#X obj -23 977 jample_subsampler;
#X obj -10 1022 jample_subsampler;
#X obj 5 1061 jample_subsampler;
#X obj 17 1103 jample_subsampler;
#X obj -201 473 jample_subsampler;
#X obj -201 473 jample_subsampler;
#X obj -201 473 jample_subsampler;
#X msg 197 54 9;
#X msg 243 55 25;
#X msg 222 180 10;
#X msg 268 181 25;
#X msg 283 283 11;
#X msg 329 284 25;
#X obj 343 617 bng 15 250 50 0 empty empty empty 17 7 0 10 -262144
-1 -1;
#X obj 344 591 note_to_bang;
#X obj 379 535 notein;
#X msg 413 569 25;
#X obj 345 676 http_get;
#X obj 682 166 bng 15 250 50 0 empty empty empty 17 7 0 10 -262144
-1 -1;
#X obj 676 124 note_to_bang;
#X obj 721 59 notein;
#X msg 676 101 28;
#X msg 745 102 25;
#X obj 666 293 http_get;
#X text 726 203 Set Current Patch in Rails;
#X msg 684 223 get http://localhost/randomize_current_patch/;
#X msg 344 568 12;
#X msg 345 647 get http://localhost/shrink_patch_by_one_on_the_end
;
#X text 387 627 comment;
#X obj 465 556 bng 15 250 50 0 empty empty empty 17 7 0 10 -262144
-1 -1;
#X obj 466 530 note_to_bang;
#X obj 501 474 notein;
#X msg 535 508 25;
#X obj 467 615 http_get;
#X text 509 566 comment;
#X msg 466 507 25;
#X msg 467 586 get http://localhost/grow_patch_by_one_on_the_end;
#X obj 578 486 bng 15 250 50 0 empty empty empty 17 7 0 10 -262144
-1 -1;
#X obj 579 460 note_to_bang;
#X obj 614 404 notein;
#X msg 648 438 25;
#X obj 580 545 http_get;
#X text 622 496 comment;
#X msg 580 516 get http://localhost/shift_sample_backward_one_slice
;
#X msg 579 437 26;
#X obj 698 416 bng 15 250 50 0 empty empty empty 17 7 0 10 -262144
-1 -1;
#X obj 699 390 note_to_bang;
#X obj 734 334 notein;
#X msg 768 368 25;
#X obj 700 475 http_get;
#X text 742 426 comment;
#X msg 700 446 get http://localhost/shift_sample_forward_one_slice
;
#X msg 699 367 27;
#X obj 366 299 http_get;
#X msg 384 229 get http://localhost/set_volume/\$1;
#X connect 0 0 17 0;
#X connect 0 1 64 0;
#X connect 0 2 65 0;
#X connect 0 3 66 0;
#X connect 0 4 67 0;
#X connect 0 5 68 0;
#X connect 0 6 69 0;
#X connect 0 7 70 0;
#X connect 0 8 71 0;
#X connect 0 9 72 0;
#X connect 0 10 73 0;
#X connect 0 11 74 0;
#X connect 0 12 75 0;
#X connect 0 13 76 0;
#X connect 0 14 77 0;
#X connect 0 15 78 0;
#X connect 2 0 1 0;
#X connect 2 0 29 0;
#X connect 2 0 42 0;
#X connect 2 0 24 0;
#X connect 13 0 14 0;
#X connect 13 1 15 0;
#X connect 13 2 16 0;
#X connect 14 0 129 0;
#X connect 18 0 82 0;
#X connect 18 0 83 0;
#X connect 19 0 3 0;
#X connect 20 0 84 0;
#X connect 20 0 85 0;
#X connect 21 0 4 0;
#X connect 22 0 86 0;
#X connect 22 0 87 0;
#X connect 23 0 5 0;
#X connect 24 0 30 0;
#X connect 24 0 17 2;
#X connect 25 0 33 0;
#X connect 25 0 67 2;
#X connect 26 0 36 0;
#X connect 26 0 71 2;
#X connect 27 0 39 0;
#X connect 27 0 75 2;
#X connect 28 0 10 0;
#X connect 28 1 9 0;
#X connect 28 2 11 0;
#X connect 29 0 0 0;
#X connect 30 0 31 0;
#X connect 30 0 64 2;
#X connect 31 0 32 0;
#X connect 31 0 65 2;
#X connect 32 0 25 0;
#X connect 32 0 66 2;
#X connect 33 0 34 0;
#X connect 33 0 68 2;
#X connect 34 0 35 0;
#X connect 34 0 69 2;
#X connect 35 0 26 0;
#X connect 35 0 70 2;
#X connect 36 0 37 0;
#X connect 36 0 72 2;
#X connect 37 0 38 0;
#X connect 37 0 73 2;
#X connect 38 0 27 0;
#X connect 38 0 74 2;
#X connect 39 0 40 0;
#X connect 39 0 76 2;
#X connect 40 0 41 0;
#X connect 40 0 77 2;
#X connect 41 0 78 2;
#X connect 42 0 43 0;
#X connect 42 0 17 1;
#X connect 43 0 44 0;
#X connect 43 0 64 1;
#X connect 44 0 45 0;
#X connect 44 0 65 1;
#X connect 45 0 46 0;
#X connect 45 0 66 1;
#X connect 46 0 47 0;
#X connect 46 0 67 1;
#X connect 47 0 48 0;
#X connect 47 0 68 1;
#X connect 48 0 49 0;
#X connect 48 0 69 1;
#X connect 49 0 50 0;
#X connect 49 0 70 1;
#X connect 50 0 51 0;
#X connect 50 0 71 1;
#X connect 51 0 52 0;
#X connect 51 0 72 1;
#X connect 52 0 53 0;
#X connect 52 0 73 1;
#X connect 53 0 54 0;
#X connect 53 0 74 1;
#X connect 54 0 55 0;
#X connect 54 0 75 1;
#X connect 55 0 56 0;
#X connect 55 0 76 1;
#X connect 56 0 58 0;
#X connect 56 0 77 1;
#X connect 57 0 18 0;
#X connect 57 0 20 0;
#X connect 57 0 22 0;
#X connect 58 0 78 1;
#X connect 63 0 61 0;
#X connect 63 0 62 0;
#X connect 63 0 60 0;
#X connect 63 0 29 0;
#X connect 63 1 59 0;
#X connect 82 0 19 0;
#X connect 83 0 19 1;
#X connect 84 0 21 0;
#X connect 85 0 21 1;
#X connect 86 0 23 0;
#X connect 87 0 23 1;
#X connect 88 0 102 0;
#X connect 89 0 88 0;
#X connect 90 0 101 0;
#X connect 90 2 91 0;
#X connect 91 0 89 1;
#X connect 93 0 100 0;
#X connect 94 0 93 0;
#X connect 95 0 96 0;
#X connect 95 2 97 0;
#X connect 96 0 94 0;
#X connect 97 0 94 1;
#X connect 100 0 98 0;
#X connect 101 0 89 0;
#X connect 102 0 92 0;
#X connect 104 0 111 0;
#X connect 105 0 104 0;
#X connect 106 0 110 0;
#X connect 106 2 107 0;
#X connect 107 0 105 1;
#X connect 110 0 105 0;
#X connect 111 0 108 0;
#X connect 112 0 118 0;
#X connect 113 0 112 0;
#X connect 114 0 119 0;
#X connect 114 2 115 0;
#X connect 115 0 113 1;
#X connect 118 0 116 0;
#X connect 119 0 113 0;
#X connect 120 0 126 0;
#X connect 121 0 120 0;
#X connect 122 0 127 0;
#X connect 122 2 123 0;
#X connect 123 0 121 1;
#X connect 126 0 124 0;
#X connect 127 0 121 0;
#X connect 129 0 128 0;
