#N canvas 427 23 824 743 10;
#X declare -stdpath extra/zexy -stdpath extra/moocow -stdpath extra/mrpeach
;
#X declare -stdpath extra/zexy -stdpath extra/moocow -stdpath extra/mrpeach
;
#X declare -stdpath extra/zexy -stdpath extra/moocow -stdpath extra/mrpeach
;
#X declare -stdpath extra/zexy -stdpath extra/moocow -stdpath extra/mrpeach
;
#X declare -stdpath extra/zexy -stdpath extra/moocow -stdpath extra/mrpeach
;
#X declare -stdpath extra/zexy -stdpath extra/moocow -stdpath extra/mrpeach
;
#X declare -stdpath extra/zexy -stdpath extra/moocow -stdpath extra/mrpeach
;
#X declare -stdpath extra/zexy -stdpath extra/moocow -stdpath extra/mrpeach
;
#X declare -stdpath extra/zexy -stdpath extra/moocow -stdpath extra/mrpeach
;
#X declare -stdpath extra/zexy -stdpath extra/moocow -stdpath extra/mrpeach
;
#X declare -stdpath extra/zexy -stdpath extra/moocow -stdpath extra/mrpeach
;
#X declare -stdpath extra/zexy -stdpath extra/moocow -stdpath extra/mrpeach
;
#X declare -stdpath extra/zexy -stdpath extra/moocow -stdpath extra/mrpeach
;
#X declare -stdpath extra/zexy -stdpath extra/moocow -stdpath extra/mrpeach
;
#X declare -stdpath extra/zexy -stdpath extra/moocow -stdpath extra/mrpeach
;
#X declare -stdpath extra/zexy -stdpath extra/moocow -stdpath extra/mrpeach
;
#X obj 285 247 tgl 15 0 empty empty empty 17 7 0 10 -262144 -1 -1 0
1;
#X obj 261 199 bng 15 250 50 0 empty empty empty 17 7 0 10 -262144
-1 -1;
#X obj 319 201 bng 15 250 50 0 empty empty empty 17 7 0 10 -262144
-1 -1;
#X obj 206 147 assigned_note 64 17;
#X msg 283 199 1;
#X msg 341 200 0;
#X obj 338 298 tgl 15 0 respect_note_off empty respect_note_off 17
7 0 10 -262144 -1 -1 1 1;
#X obj 285 322 tgl 15 0 monosample empty monosample 17 7 0 10 -262144
-1 -1 0 1;
#X obj 285 298 > 0;
#X obj 338 276 == 0;
#X msg 208 62 \; pd dsp 1;
#X obj 208 39 loadbang;
#X obj 208 11 bng 15 250 50 0 empty empty empty 17 7 0 10 -262144 -1
-1;
#X text 227 9 initialiaze;
#X obj 341 148 loadbang;
#X obj 360 86 tgl 15 0 loop empty loop 17 7 0 10 -262144 -1 -1 0 1
;
#X floatatom 473 57 0 0 0 0 - - -;
#X floatatom 437 57 0 0 0 0 - - -;
#X floatatom 509 57 0 0 0 0 - - -;
#X text 436 5 midi in;
#X obj 555 21 ctlin;
#X floatatom 555 57 5 0 0 0 - - -;
#X floatatom 594 57 5 0 0 0 - - -;
#X floatatom 630 58 5 0 0 0 - - -;
#X obj 437 24 notein;
#X obj 548 174 netreceive 4040;
#X obj 548 204 bng 15 250 50 0 netreceive empty netreceive 17 7 0 10
-262144 -1 -1;
#X text 545 156 receives refresh signal from rails;
#X text 67 -4 index \, note \, channel;
#X obj 23 20 jample_subsampler 0 36 1;
#X obj 23 50 jample_subsampler 1 37 1;
#X obj 23 80 jample_subsampler 2 38 1;
#X obj 23 110 jample_subsampler 3 39 1;
#X obj 24 140 jample_subsampler 4 40 1;
#X obj 23 170 jample_subsampler 5 41 1;
#X obj 23 200 jample_subsampler 6 42 1;
#X obj 23 230 jample_subsampler 7 43 1;
#X obj 23 260 jample_subsampler 8 44 1;
#X obj 23 290 jample_subsampler 9 45 1;
#X obj 23 320 jample_subsampler 10 46 1;
#X obj 23 350 jample_subsampler 11 47 1;
#X obj 23 380 jample_subsampler 12 48 1;
#X obj 23 410 jample_subsampler 13 49 1;
#X obj 23 440 jample_subsampler 14 50 1;
#X obj 23 470 jample_subsampler 15 51 1;
#X connect 0 0 8 0;
#X connect 0 0 9 0;
#X connect 3 1 1 0;
#X connect 3 1 4 0;
#X connect 3 2 2 0;
#X connect 3 2 5 0;
#X connect 4 0 0 0;
#X connect 5 0 0 0;
#X connect 8 0 7 0;
#X connect 9 0 6 0;
#X connect 11 0 10 0;
#X connect 12 0 11 0;
#X connect 14 0 5 0;
#X connect 20 0 21 0;
#X connect 20 1 22 0;
#X connect 20 2 23 0;
#X connect 24 0 17 0;
#X connect 24 1 16 0;
#X connect 24 2 18 0;
#X connect 25 0 26 0;
