#N canvas 0 22 1397 803 10;
#X declare -stdpath extra/zexy -stdpath extra/moocow -stdpath extra/mrpeach
;
#X declare -stdpath extra/zexy -stdpath extra/moocow -stdpath extra/mrpeach
;
#X declare -stdpath extra/zexy -stdpath extra/moocow -stdpath extra/mrpeach
;
#X declare -stdpath extra/zexy -stdpath extra/moocow -stdpath extra/mrpeach
;
#X declare -stdpath extra/zexy -stdpath extra/moocow -stdpath extra/mrpeach
;
#X declare -stdpath extra/zexy -stdpath extra/moocow -stdpath extra/mrpeach
;
#X declare -stdpath extra/zexy -stdpath extra/moocow -stdpath extra/mrpeach
;
#X declare -stdpath extra/zexy -stdpath extra/moocow -stdpath extra/mrpeach
;
#X declare -stdpath extra/zexy -stdpath extra/moocow -stdpath extra/mrpeach
;
#X declare -stdpath extra/zexy -stdpath extra/moocow -stdpath extra/mrpeach
;
#X declare -stdpath extra/zexy -stdpath extra/moocow -stdpath extra/mrpeach
;
#X declare -stdpath extra/zexy -stdpath extra/moocow -stdpath extra/mrpeach
;
#X obj -201 374 unpack s s s s s s s s s s s s s s s s;
#X msg 40 184 \; pd dsp 1;
#X obj 40 151 loadbang;
#X obj 141 80 tgl 15 1 respect_note_off empty respect_note_off 17 7
0 10 -262144 -1 -1 1 1;
#X obj 173 68 tgl 15 1 monosample empty mono_sample 17 7 0 10 -262144
-1 -1 0 1;
#X text -216 471 1;
#X obj 722 194 bng 15 250 50 0 empty empty empty 17 7 0 10 -262144
-1 -1;
#X floatatom 453 77 0 0 0 0 - - -;
#X floatatom 417 77 0 0 0 0 - - -;
#X floatatom 489 77 0 0 0 0 - - -;
#X text 416 25 midi in;
#X obj 395 116 ctlin;
#X floatatom 378 170 5 0 0 0 - - -;
#X floatatom 436 168 5 0 0 0 - - -;
#X floatatom 489 180 5 0 0 0 - - -;
#X obj -201 473 jample_subsampler;
#X msg 54 446 1;
#X msg 64 598 1;
#X msg 102 749 1;
#X obj 716 152 note_to_bang;
#X obj 417 44 notein;
#X obj 761 87 notein;
#X msg -351 -87 list /Users/clean/Documents/essample/pure_data/tmp/patch/pad_0.wav
/Users/clean/Documents/essample/pure_data/tmp/patch/pad_1.wav /Users/clean/Documents/essample/pure_data/tmp/patch/pad_2.wav
/Users/clean/Documents/essample/pure_data/tmp/patch/pad_3.wav /Users/clean/Documents/essample/pure_data/tmp/patch/pad_4.wav
/Users/clean/Documents/essample/pure_data/tmp/patch/pad_5.wav /Users/clean/Documents/essample/pure_data/tmp/patch/pad_6.wav
/Users/clean/Documents/essample/pure_data/tmp/patch/pad_7.wav /Users/clean/Documents/essample/pure_data/tmp/patch/pad_8.wav
/Users/clean/Documents/essample/pure_data/tmp/patch/pad_9.wav /Users/clean/Documents/essample/pure_data/tmp/patch/pad_10.wav
/Users/clean/Documents/essample/pure_data/tmp/patch/pad_11.wav /Users/clean/Documents/essample/pure_data/tmp/patch/pad_12.wav
/Users/clean/Documents/essample/pure_data/tmp/patch/pad_13.wav /Users/clean/Documents/essample/pure_data/tmp/patch/pad_14.wav
/Users/clean/Documents/essample/pure_data/tmp/patch/pad_15.wav;
#X msg 57 487 1;
#X msg 62 527 1;
#X msg 62 559 1;
#X msg 67 639 1;
#X msg 72 679 1;
#X msg 72 711 1;
#X msg 105 790 1;
#X msg -102 447 36;
#X msg -87 489 37;
#X msg -74 530 38;
#X msg -57 572 39;
#X msg -37 616 40;
#X msg -24 666 41;
#X msg -11 705 42;
#X msg 2 748 43;
#X msg 23 787 44;
#X floatatom 299 218 5 0 0 0 - - -;
#X obj 169 322 bng 15 250 50 0 empty empty empty 17 7 0 10 -262144
-1 -1;
#X obj 230 297 print;
#X obj 257 216 bng 15 250 50 0 empty empty empty 17 7 0 10 -262144
-1 -1;
#X obj 173 162 netreceive 4040;
#X msg 716 129 28;
#X msg 785 130 25;
#X obj 706 321 http_get;
#X msg 724 251 get http://localhost/randomize_current_patch/;
#X obj -186 516 jample_subsampler;
#X obj -171 556 jample_subsampler;
#X obj -156 597 jample_subsampler;
#X obj -136 645 jample_subsampler;
#X obj -123 690 jample_subsampler;
#X obj -110 729 jample_subsampler;
#X obj -96 771 jample_subsampler;
#X obj -201 473 jample_subsampler;
#X obj -201 473 jample_subsampler;
#X obj -201 473 jample_subsampler;
#X obj 141 -47 pgmin;
#X floatatom 141 -11 5 0 0 0 - - -;
#X floatatom 233 1 5 0 0 0 - - -;
#X obj 141 38 == 1;
#X obj 177 40 == 2;
#X text 766 231 Randomize Current Patch in Rails;
#X obj 66 33 bng 15 250 50 0 empty empty empty 17 7 0 10 -262144 -1
-1;
#X connect 0 0 15 0;
#X connect 0 1 48 0;
#X connect 0 2 49 0;
#X connect 0 3 50 0;
#X connect 0 4 51 0;
#X connect 0 5 52 0;
#X connect 0 6 53 0;
#X connect 0 7 54 0;
#X connect 2 0 1 0;
#X connect 2 0 22 0;
#X connect 2 0 30 0;
#X connect 2 0 16 0;
#X connect 6 0 47 0;
#X connect 11 0 12 0;
#X connect 11 1 13 0;
#X connect 11 2 14 0;
#X connect 16 0 23 0;
#X connect 16 0 15 2;
#X connect 17 0 26 0;
#X connect 17 0 51 2;
#X connect 18 0 29 0;
#X connect 19 0 6 0;
#X connect 20 0 8 0;
#X connect 20 1 7 0;
#X connect 20 2 9 0;
#X connect 21 0 44 0;
#X connect 21 2 45 0;
#X connect 22 0 0 0;
#X connect 23 0 24 0;
#X connect 23 0 48 2;
#X connect 24 0 25 0;
#X connect 24 0 49 2;
#X connect 25 0 17 0;
#X connect 25 0 50 2;
#X connect 26 0 27 0;
#X connect 26 0 52 2;
#X connect 27 0 28 0;
#X connect 27 0 53 2;
#X connect 28 0 18 0;
#X connect 28 0 54 2;
#X connect 30 0 31 0;
#X connect 30 0 15 1;
#X connect 31 0 32 0;
#X connect 31 0 48 1;
#X connect 32 0 33 0;
#X connect 32 0 49 1;
#X connect 33 0 34 0;
#X connect 33 0 50 1;
#X connect 34 0 35 0;
#X connect 34 0 51 1;
#X connect 35 0 36 0;
#X connect 35 0 52 1;
#X connect 36 0 37 0;
#X connect 36 0 53 1;
#X connect 37 0 38 0;
#X connect 37 0 54 1;
#X connect 43 0 41 0;
#X connect 43 0 42 0;
#X connect 43 0 40 0;
#X connect 43 0 22 0;
#X connect 43 1 39 0;
#X connect 44 0 19 0;
#X connect 45 0 19 1;
#X connect 47 0 46 0;
#X connect 58 0 59 0;
#X connect 58 0 61 0;
#X connect 58 0 62 0;
#X connect 58 1 60 0;
#X connect 61 0 3 0;
#X connect 62 0 4 0;
#X connect 64 0 2 0;
