#N canvas 234 22 1083 826 10;
#X obj 6 125 soundfiler;
#X obj 6 32 inlet;
#X floatatom 521 66 5 0 0 0 - - -;
#X obj 521 33 inlet;
#N canvas 0 22 450 278 (subpatch) 0;
#X array \$0-drumL 80905 float 0;
#X coords 0 1 80904 -1 200 140 1 0 0;
#X restore 749 37 graph;
#X obj 6 56 pack s \$0;
#X floatatom 443 67 0 0 0 0 - - -;
#X floatatom 407 67 0 0 0 0 - - -;
#X floatatom 479 67 0 0 0 0 - - -;
#X obj 251 759 dac~;
#X obj 407 166 stripnote;
#X obj 407 104 t f f;
#X obj 506 292 bng 15 250 50 0 empty empty empty 17 7 0 10 -262144
-1 -1;
#X text 406 15 midi in;
#X text 3 13 sample path;
#X floatatom 680 260 5 0 0 0 respect_note_off respect_note_off -;
#X floatatom 608 195 5 0 0 0 mono_sample monosample -;
#X obj 665 293 &;
#X obj 665 346 sel 1;
#X obj 665 319 &;
#X obj 698 293 == 0;
#X obj 506 219 &;
#N canvas 0 22 450 278 (subpatch) 0;
#X array \$0-drumR 80905 float 0;
#X coords 0 1 80904 -1 200 140 1;
#X restore 750 200 graph;
#X msg 6 80 read -resize \$1 \$2-drumL \$2-drumR;
#X floatatom 271 576 5 0 0 0 - - -;
#X obj 271 596 / 127;
#X obj 551 322 ctlin 88;
#X obj 50 200 expr 44100 / $f1;
#X floatatom 26 323 5 0 0 0 - - -;
#X obj 26 375 phasor~;
#X obj 109 298 t b f;
#X obj 138 615 tabread4~ \$0-drumL;
#X obj 356 618 tabread4~ \$0-drumR;
#X floatatom 56 349 5 0 0 0 - - -;
#X obj 260 132 ctlin 25;
#X floatatom 200 211 5 0 0 0 - - -;
#X msg 507 269 0;
#X obj 414 331 &;
#X floatatom 414 360 5 0 0 0 - - -;
#X msg 414 304 1;
#X obj 191 131 ctlin 89;
#X msg 201 166 1;
#X obj 26 348 * 1;
#X obj 259 167 / 100;
#X text 270 114 speed;
#X text 188 114 speed reset;
#X text 236 211 1 is normal;
#X obj 61 241 expr 1 / $f1;
#X obj 11 274 *;
#X obj 752 348 hsl 200 15 0 1 0 0 empty empty empty -2 -6 0 8 -262144
-1 -1 0 1;
#X obj 26 464 *~;
#X obj 26 404 *~ 1;
#X obj 26 433 +~ 0;
#X msg 103 166 1;
#X obj 375 390 sel 1;
#X msg 381 424 0;
#X msg 424 423 1;
#X obj 430 459 bng 15 250 50 0 empty empty empty 17 7 0 10 -262144
-1 -1;
#X msg 142 164 0;
#X obj 6 102 spigot 1;
#X obj 200 236 spigot 0;
#X obj 271 619 spigot 0;
#X obj 411 526 unsig~ 20;
#X obj 757 389 hsl 200 15 0 1 0 0 empty empty empty -2 -6 0 8 -262144
-1 -1 0 1;
#X obj 416 567 unsig~ 20;
#X obj 509 535 threshold~ 0.999 1 0.01 10;
#X obj 538 481 ctlin 87;
#X obj 509 505 spigot~;
#X obj 135 722 hip~ 5;
#X obj 358 725 hip~ 5;
#X obj 138 664 *~ 0.8;
#X obj 356 669 *~ 0.8;
#X obj 222 703 line~;
#X obj 357 697 *~;
#X obj 136 691 *~;
#X msg 222 671 \$1 15;
#X obj 407 34 notein;
#X floatatom 609 66 5 0 0 0 - - -;
#X obj 609 33 inlet;
#X text 498 13 assigned note;
#X text 609 13 assigned channel;
#X obj 553 115 ==;
#X obj 509 126 ==;
#X obj 533 154 &;
#X floatatom 534 178 5 0 0 0 - - -;
#X obj 496 189 == 0;
#X obj 435 214 spigot;
#X obj 603 114 is_patch_editable;
#X floatatom 348 228 5 0 0 0 - - -;
#X obj 271 555 ctlin 7 1;
#X text 216 655 fade in;
#X text 268 535 local volume;
#X msg 733 566 start;
#X msg 784 566 stop;
#X obj 734 608 tabwrite~ \$0-drumL;
#X obj 730 630 tabwrite~ \$0-drumR;
#X connect 0 0 27 0;
#X connect 0 0 50 1;
#X connect 0 0 53 0;
#X connect 0 0 58 0;
#X connect 1 0 5 0;
#X connect 2 0 82 1;
#X connect 2 0 87 0;
#X connect 3 0 2 0;
#X connect 5 0 23 0;
#X connect 6 0 10 1;
#X connect 6 0 20 0;
#X connect 7 0 11 0;
#X connect 8 0 81 0;
#X connect 10 0 39 0;
#X connect 10 0 86 0;
#X connect 11 0 10 0;
#X connect 11 1 82 0;
#X connect 15 0 17 1;
#X connect 16 0 21 1;
#X connect 17 0 19 0;
#X connect 18 0 36 0;
#X connect 19 0 18 0;
#X connect 20 0 19 1;
#X connect 21 0 86 1;
#X connect 23 0 59 0;
#X connect 24 0 25 0;
#X connect 25 0 61 0;
#X connect 26 0 36 0;
#X connect 27 0 48 1;
#X connect 28 0 42 0;
#X connect 29 0 51 0;
#X connect 29 0 64 0;
#X connect 29 0 67 0;
#X connect 30 0 28 0;
#X connect 30 1 42 1;
#X connect 31 0 70 0;
#X connect 32 0 71 0;
#X connect 34 0 43 0;
#X connect 35 0 60 0;
#X connect 36 0 12 0;
#X connect 36 0 75 0;
#X connect 37 0 38 0;
#X connect 37 0 54 0;
#X connect 39 0 37 0;
#X connect 40 0 41 0;
#X connect 41 0 35 0;
#X connect 42 0 29 0;
#X connect 42 0 33 0;
#X connect 43 0 35 0;
#X connect 47 0 48 0;
#X connect 48 0 28 0;
#X connect 50 0 31 0;
#X connect 50 0 32 0;
#X connect 51 0 52 0;
#X connect 51 0 62 0;
#X connect 52 0 50 0;
#X connect 53 0 47 0;
#X connect 53 0 51 1;
#X connect 54 0 55 0;
#X connect 54 0 56 0;
#X connect 55 0 29 1;
#X connect 56 0 57 0;
#X connect 56 0 75 0;
#X connect 58 0 52 1;
#X connect 59 0 0 0;
#X connect 60 0 30 0;
#X connect 61 0 70 1;
#X connect 61 0 71 1;
#X connect 62 0 49 0;
#X connect 64 0 63 0;
#X connect 65 0 36 0;
#X connect 66 0 67 1;
#X connect 67 0 65 0;
#X connect 68 0 9 0;
#X connect 69 0 9 1;
#X connect 70 0 74 0;
#X connect 71 0 73 0;
#X connect 72 0 73 1;
#X connect 72 0 74 1;
#X connect 73 0 69 0;
#X connect 74 0 68 0;
#X connect 75 0 72 0;
#X connect 76 0 7 0;
#X connect 76 1 6 0;
#X connect 76 2 8 0;
#X connect 77 0 81 1;
#X connect 77 0 87 1;
#X connect 78 0 77 0;
#X connect 81 0 83 1;
#X connect 82 0 83 0;
#X connect 83 0 17 0;
#X connect 83 0 37 1;
#X connect 83 0 84 0;
#X connect 83 0 85 0;
#X connect 85 0 21 0;
#X connect 86 0 36 0;
#X connect 87 0 88 0;
#X connect 88 0 61 1;
#X connect 88 0 60 1;
#X connect 89 0 24 0;
#X connect 92 0 94 0;
#X connect 92 0 95 0;
#X connect 93 0 94 0;
#X connect 93 0 95 0;
