#N canvas 0 22 1436 852 10;
#X floatatom -476 521 5 0 0 0 - - -;
#X obj -476 580 zl slice;
#X floatatom -347 168 0 0 0 0 - - -;
#X floatatom -385 168 0 0 0 0 - - -;
#X floatatom -309 167 0 0 0 0 - - -;
#X msg -102 447 36;
#X msg -87 489 37;
#X obj -575 559 zl slice;
#X obj -201 473 jample_subsampler;
#X obj -385 198 t b f b b;
#X msg -74 530 38;
#X msg -57 572 39;
#X msg -37 616 40;
#X msg -24 666 41;
#X msg -11 705 42;
#X msg 2 748 43;
#X msg 23 787 44;
#X msg 38 830 45;
#X msg 56 872 46;
#X msg 64 908 47;
#X msg 76 952 48;
#X msg 89 995 49;
#X msg 101 1040 50;
#X msg 116 1080 51;
#X obj -201 374 unpack s s s s s s s s s s s s s s s s;
#X msg -431 556 20;
#X obj -476 491 *;
#X msg -81 81 \; pd dsp 1;
#X obj -173 64 loadbang;
#X text -389 119 midi control in: sample pagination;
#X obj 141 82 tgl 15 1 respect_note_off empty respect_note_off 17 7
0 10 -262144 -1 -1 127 127;
#X obj 142 152 tgl 15 1 monosample empty mono_sample 17 7 0 10 -262144
-1 -1 127 127;
#X obj 144 220 tgl 15 1 loop_enable empty loop_enable 17 7 0 10 -262144
-1 -1 0 127;
#X obj -579 148 file_loader;
#X obj -138 194 file_loader;
#X msg -138 157 list tmp/metadata/song_index.txt;
#X obj -181 289 zl nth;
#X obj -180 265 list;
#X obj -181 315 pack s;
#X msg -67 247 -1;
#X msg -1 247 1;
#X floatatom -40 329 5 0 0 0 - - -;
#X obj -67 271 +;
#X obj -24 312 f;
#X obj -67 295 t b f;
#X obj -557 327 list length;
#X obj -557 383 / 127;
#X obj -557 410 int;
#X floatatom -461 467 5 0 0 0 - - -;
#X floatatom -557 353 5 0 0 0 - - -;
#X obj -421 420 +;
#X msg -419 392 -4;
#X msg -384 392 4;
#X obj -419 471 t b f;
#X obj -516 292 debounce_b 100;
#X obj -172 131 t b b b b;
#X msg -257 203 4;
#X obj -385 141 ctlin 1;
#X obj 141 57 ctlin 85;
#X obj 142 125 ctlin 86;
#X obj 144 192 ctlin 87;
#X obj -384 369 ctlin 115;
#X obj -419 349 ctlin 114;
#X obj -67 219 ctlin 116;
#X obj -2 220 ctlin 117;
#X obj -186 516 jample_subsampler;
#X obj -171 556 jample_subsampler;
#X obj -156 597 jample_subsampler;
#X obj -136 645 jample_subsampler;
#X obj -123 690 jample_subsampler;
#X obj -110 729 jample_subsampler;
#X obj -96 771 jample_subsampler;
#X obj -75 813 jample_subsampler;
#X obj -60 856 jample_subsampler;
#X obj -41 895 jample_subsampler;
#X obj -33 937 jample_subsampler;
#X obj -23 977 jample_subsampler;
#X obj -10 1022 jample_subsampler;
#X obj 5 1061 jample_subsampler;
#X obj 17 1103 jample_subsampler;
#X obj -201 473 jample_subsampler;
#X obj -201 473 jample_subsampler;
#X obj -201 473 jample_subsampler;
#X obj -23 271 max 1;
#X obj -419 444 max 0;
#X floatatom -328 489 5 0 0 0 - - -;
#X obj -361 526 bng 15 250 50 0 empty empty empty 17 7 0 10 -262144
-1 -1;
#X obj -363 604 bng 15 250 50 0 empty empty empty 17 7 0 10 -262144
-1 -1;
#X text -100 811 9;
#X text -216 471 1;
#X text -36 1105 16;
#X obj -121 320 list length;
#X floatatom -124 348 5 0 0 0 - - -;
#X obj 41 297 min;
#X obj 57 272 - 1;
#X connect 0 0 7 1;
#X connect 0 0 50 1;
#X connect 1 0 24 0;
#X connect 3 0 9 0;
#X connect 5 0 8 1;
#X connect 5 0 6 0;
#X connect 6 0 10 0;
#X connect 6 0 65 1;
#X connect 7 1 1 0;
#X connect 9 0 54 0;
#X connect 9 1 26 0;
#X connect 9 3 25 0;
#X connect 10 0 11 0;
#X connect 10 0 66 1;
#X connect 11 0 12 0;
#X connect 11 0 67 1;
#X connect 12 0 13 0;
#X connect 12 0 68 1;
#X connect 13 0 14 0;
#X connect 13 0 69 1;
#X connect 14 0 15 0;
#X connect 14 0 70 1;
#X connect 15 0 16 0;
#X connect 15 0 71 1;
#X connect 16 0 17 0;
#X connect 16 0 72 1;
#X connect 17 0 18 0;
#X connect 17 0 73 1;
#X connect 18 0 19 0;
#X connect 18 0 74 1;
#X connect 19 0 20 0;
#X connect 19 0 75 1;
#X connect 20 0 21 0;
#X connect 20 0 76 1;
#X connect 21 0 22 0;
#X connect 21 0 77 1;
#X connect 22 0 23 0;
#X connect 22 0 78 1;
#X connect 23 0 79 1;
#X connect 24 0 8 0;
#X connect 24 1 65 0;
#X connect 24 2 66 0;
#X connect 24 3 67 0;
#X connect 24 4 68 0;
#X connect 24 5 69 0;
#X connect 24 6 70 0;
#X connect 24 7 71 0;
#X connect 24 8 72 0;
#X connect 24 9 73 0;
#X connect 24 10 74 0;
#X connect 24 11 75 0;
#X connect 24 12 76 0;
#X connect 24 13 77 0;
#X connect 24 14 78 0;
#X connect 24 15 79 0;
#X connect 25 0 1 1;
#X connect 26 0 0 0;
#X connect 28 0 27 0;
#X connect 28 0 55 0;
#X connect 33 0 7 0;
#X connect 33 0 45 0;
#X connect 34 0 37 1;
#X connect 35 0 34 0;
#X connect 36 0 38 0;
#X connect 37 0 36 0;
#X connect 37 0 91 0;
#X connect 38 0 33 0;
#X connect 39 0 42 0;
#X connect 40 0 42 0;
#X connect 42 0 44 0;
#X connect 42 0 83 0;
#X connect 43 0 42 1;
#X connect 44 0 37 0;
#X connect 44 1 36 1;
#X connect 44 1 41 0;
#X connect 45 0 49 0;
#X connect 46 0 47 0;
#X connect 47 0 48 0;
#X connect 48 0 26 1;
#X connect 49 0 46 0;
#X connect 50 0 84 0;
#X connect 50 0 85 0;
#X connect 51 0 50 0;
#X connect 52 0 50 0;
#X connect 53 0 7 0;
#X connect 53 1 0 0;
#X connect 54 0 33 0;
#X connect 54 0 5 0;
#X connect 55 0 37 0;
#X connect 55 0 56 0;
#X connect 55 1 40 0;
#X connect 55 1 0 0;
#X connect 55 2 35 0;
#X connect 56 0 9 0;
#X connect 57 0 3 0;
#X connect 57 1 2 0;
#X connect 58 0 30 0;
#X connect 59 0 31 0;
#X connect 60 0 32 0;
#X connect 61 0 52 0;
#X connect 62 0 51 0;
#X connect 63 0 39 0;
#X connect 64 0 40 0;
#X connect 83 0 93 0;
#X connect 84 0 53 0;
#X connect 86 0 0 0;
#X connect 87 0 7 0;
#X connect 91 0 92 0;
#X connect 91 0 94 0;
#X connect 93 0 43 0;
#X connect 94 0 93 1;
