#N canvas 492 271 634 518 10;
#X obj 6 138 soundfiler;
#X floatatom 6 169 15 0 0 0 - - -;
#X obj 6 32 inlet;
#X floatatom 302 66 5 0 0 0 - - -;
#X obj 302 33 inlet;
#N canvas 0 22 450 278 (subpatch) 0;
#X array \$0-drum 139482 float 0;
#X coords 0 1 139481 -1 200 140 1 0 0;
#X restore 374 33 graph;
#X msg 6 102 read -resize \$1 \$2-drum;
#X obj 6 66 pack s \$0;
#X floatatom 224 67 0 0 0 0 - - -;
#X obj 188 34 notein;
#X floatatom 188 67 0 0 0 0 - - -;
#X floatatom 260 67 0 0 0 0 - - -;
#X obj 242 356 hip~ 5;
#X obj 242 409 dac~;
#X obj 188 268 spigot;
#X obj 242 323 tabplay~ \$0-drum;
#X obj 221 137 ==;
#X obj 188 294 bng 15 250 50 0 empty empty empty 17 7 0 10 -262144
-1 -1;
#X msg 287 268 stop;
#X obj 188 166 stripnote;
#X obj 188 104 t f f;
#X obj 287 194 !=;
#X obj 287 292 bng 15 250 50 0 empty empty empty 17 7 0 10 -262144
-1 -1;
#X obj 287 242 sel 1;
#X text 279 13 assigned note;
#X text 187 15 midi in;
#X text 3 13 sample path;
#X floatatom 461 260 5 0 0 0 respect_note_off respect_note_off -;
#X floatatom 389 195 5 0 0 0 mono_sample monosample -;
#X floatatom 409 367 5 0 0 0 loop_enable loop_enable -;
#X obj 287 219 != 0;
#X obj 446 293 &;
#X obj 446 346 sel 1;
#X obj 446 319 &;
#X obj 479 293 == 0;
#X obj 334 391 spigot;
#X connect 0 0 1 0;
#X connect 2 0 7 0;
#X connect 3 0 16 1;
#X connect 3 0 21 1;
#X connect 4 0 3 0;
#X connect 6 0 0 0;
#X connect 7 0 6 0;
#X connect 8 0 19 1;
#X connect 8 0 34 0;
#X connect 9 0 10 0;
#X connect 9 1 8 0;
#X connect 9 2 11 0;
#X connect 10 0 20 0;
#X connect 12 0 13 0;
#X connect 12 0 13 1;
#X connect 14 0 15 0;
#X connect 14 0 17 0;
#X connect 15 0 12 0;
#X connect 15 1 35 0;
#X connect 16 0 14 1;
#X connect 16 0 31 0;
#X connect 18 0 15 0;
#X connect 18 0 22 0;
#X connect 19 0 14 0;
#X connect 19 0 21 0;
#X connect 20 0 19 0;
#X connect 20 1 16 0;
#X connect 21 0 30 0;
#X connect 23 0 18 0;
#X connect 27 0 31 1;
#X connect 28 0 30 1;
#X connect 29 0 35 1;
#X connect 30 0 23 0;
#X connect 31 0 33 0;
#X connect 32 0 18 0;
#X connect 33 0 32 0;
#X connect 34 0 33 1;
#X connect 35 0 15 0;
