#N canvas 36 23 1083 826 10;
#X declare -stdpath extra/zexy -stdpath extra/moocow -stdpath extra/mrpeach
;
#X obj 6 225 soundfiler;
#X obj 6 132 inlet;
#X floatatom 521 166 5 0 0 0 - - -;
#X obj 521 133 inlet;
#N canvas 0 22 450 278 (subpatch) 0;
#X array \$0-drumL 127872 float 0;
#X coords 0 1 127871 -1 200 140 1 0 0;
#X restore 829 137 graph;
#X obj 6 156 pack s \$0;
#X floatatom 443 167 0 0 0 0 - - -;
#X floatatom 407 167 0 0 0 0 - - -;
#X floatatom 479 167 0 0 0 0 - - -;
#X obj 251 859 dac~;
#X obj 407 266 stripnote;
#X obj 407 198 t f f;
#X obj 506 392 bng 15 250 50 0 empty empty empty 17 7 0 10 -262144
-1 -1;
#X text 406 115 midi in;
#X text 3 113 sample path;
#X floatatom 608 295 5 0 0 0 mono_sample monosample -;
#X obj 697 370 &;
#X obj 698 424 sel 1;
#X obj 698 397 &;
#X obj 731 371 == 0;
#X obj 506 319 &;
#N canvas 0 22 450 278 (subpatch) 0;
#X array \$0-drumR 127872 float 0;
#X coords 0 1 127871 -1 200 140 1;
#X restore 830 300 graph;
#X msg 6 180 read -resize \$1 \$2-drumL \$2-drumR;
#X obj 271 728 / 127;
#X obj 551 422 ctlin 88;
#X obj 50 300 expr 44100 / $f1;
#X floatatom 26 423 5 0 0 0 - - -;
#X obj 26 475 phasor~;
#X obj 109 398 t b f;
#X obj 138 715 tabread4~ \$0-drumL;
#X obj 356 718 tabread4~ \$0-drumR;
#X floatatom 56 449 5 0 0 0 - - -;
#X msg 507 369 0;
#X obj 414 431 &;
#X floatatom 414 460 5 0 0 0 - - -;
#X msg 414 404 1;
#X obj 26 448 * 1;
#X obj 61 341 expr 1 / $f1;
#X obj 11 374 *;
#X obj 835 474 hsl 200 15 0 1 0 0 empty empty empty -2 -6 0 8 -262144
-1 -1 15487 1;
#X obj 26 564 *~;
#X text 288 709 volume;
#X obj 26 504 *~ 1;
#X obj 26 533 +~ 0;
#X msg 103 266 1;
#X obj 375 490 sel 1;
#X msg 381 524 0;
#X msg 424 523 1;
#X obj 428 559 bng 15 250 50 0 empty empty empty 17 7 0 10 -262144
-1 -1;
#X msg 142 264 0;
#X obj 6 202 spigot 1;
#X obj 411 626 unsig~ 20;
#X obj 834 446 hsl 200 15 0 1 0 0 empty empty empty -2 -6 0 8 -262144
-1 -1 15487 1;
#X obj 412 598 unsig~ 20;
#X obj 135 822 hip~ 5;
#X obj 358 825 hip~ 5;
#X obj 138 764 *~ 0.8;
#X obj 356 769 *~ 0.8;
#X obj 222 803 line~;
#X obj 357 797 *~;
#X obj 136 791 *~;
#X msg 222 775 \$1 15;
#X obj 407 134 notein;
#X floatatom 609 166 5 0 0 0 - - -;
#X obj 609 133 inlet;
#X text 498 113 assigned note;
#X text 609 113 assigned channel;
#X obj 551 198 ==;
#X obj 524 198 ==;
#X obj 532 230 &;
#X floatatom 613 266 5 0 0 0 - - -;
#X obj 309 826 bng 15 250 50 0 empty empty empty 17 7 0 10 -262144
-1 -1;
#X obj 526 278 == 0;
#X obj 435 314 spigot;
#X obj 107 859 send~ bus-L;
#X obj 401 866 send~ bus-R;
#X obj 727 626 note_to_bang;
#X obj 727 577 loadbang;
#X msg 773 603 1;
#X msg 727 602 81;
#X text 728 556 mute all;
#X floatatom 558 339 5 0 0 0 - - -;
#X obj 709 266 tgl 15 0 empty respect_note_off respect_note_off 17
7 0 10 -262144 -1 -1 16 16;
#X obj 504 343 bng 15 250 50 0 empty empty empty 17 7 0 10 -262144
-1 -1;
#X floatatom 745 402 5 0 0 0 - - -;
#X floatatom 657 394 5 0 0 0 - - -;
#X floatatom 742 348 5 0 0 0 - - -;
#X obj 747 320 != 0;
#X floatatom 286 777 5 0 0 0 - - -;
#X obj 275 753 spigot;
#X floatatom 423 686 5 0 0 0 - - -;
#X obj 368 678 t b f;
#X obj 291 613 f;
#X obj 339 146 tgl 15 0 empty empty empty 17 7 0 10 -262144 -1 -1 0
1;
#X obj 278 101 http_get;
#X msg 296 31 get http://localhost/set_current_patch/\$1;
#X text 338 11 Set Current Patch in Rails;
#X obj 276 245 ctlin 25;
#X floatatom 216 324 5 0 0 0 - - -;
#X msg 217 279 1;
#X obj 275 280 / 100;
#X text 286 227 speed;
#X text 204 227 speed reset;
#X text 252 324 1 is normal;
#X obj 216 349 spigot 0;
#X obj 207 244 ctlin 45;
#X connect 0 0 25 0;
#X connect 0 0 40 1;
#X connect 0 0 44 0;
#X connect 0 0 49 0;
#X connect 1 0 5 0;
#X connect 2 0 68 1;
#X connect 2 0 95 0;
#X connect 3 0 2 0;
#X connect 5 0 22 0;
#X connect 6 0 10 1;
#X connect 6 0 19 0;
#X connect 6 0 92 1;
#X connect 7 0 11 0;
#X connect 8 0 67 0;
#X connect 10 0 35 0;
#X connect 10 0 73 0;
#X connect 11 0 10 0;
#X connect 11 1 68 0;
#X connect 15 0 20 1;
#X connect 16 0 18 0;
#X connect 16 0 85 0;
#X connect 17 0 32 0;
#X connect 18 0 17 0;
#X connect 19 0 18 1;
#X connect 19 0 84 0;
#X connect 20 0 73 1;
#X connect 22 0 50 0;
#X connect 23 0 89 0;
#X connect 24 0 32 0;
#X connect 25 0 38 1;
#X connect 26 0 36 0;
#X connect 27 0 42 0;
#X connect 27 0 53 0;
#X connect 28 0 26 0;
#X connect 28 1 36 1;
#X connect 29 0 56 0;
#X connect 30 0 57 0;
#X connect 32 0 12 0;
#X connect 32 0 61 0;
#X connect 33 0 34 0;
#X connect 33 0 45 0;
#X connect 35 0 33 0;
#X connect 36 0 27 0;
#X connect 36 0 31 0;
#X connect 37 0 38 0;
#X connect 38 0 26 0;
#X connect 40 0 29 0;
#X connect 40 0 30 0;
#X connect 42 0 43 0;
#X connect 42 0 51 0;
#X connect 43 0 40 0;
#X connect 44 0 37 0;
#X connect 44 0 42 1;
#X connect 45 0 46 0;
#X connect 45 0 47 0;
#X connect 46 0 27 1;
#X connect 47 0 48 0;
#X connect 47 0 61 0;
#X connect 48 0 2 0;
#X connect 49 0 43 1;
#X connect 50 0 0 0;
#X connect 51 0 39 0;
#X connect 53 0 52 0;
#X connect 54 0 9 0;
#X connect 54 0 74 0;
#X connect 55 0 9 1;
#X connect 55 0 75 0;
#X connect 56 0 60 0;
#X connect 57 0 59 0;
#X connect 58 0 59 1;
#X connect 58 0 60 1;
#X connect 59 0 55 0;
#X connect 60 0 54 0;
#X connect 61 0 58 0;
#X connect 61 0 71 0;
#X connect 62 0 7 0;
#X connect 62 1 6 0;
#X connect 62 2 8 0;
#X connect 63 0 67 1;
#X connect 64 0 63 0;
#X connect 67 0 69 1;
#X connect 68 0 69 0;
#X connect 69 0 16 0;
#X connect 69 0 33 1;
#X connect 69 0 70 0;
#X connect 69 0 72 0;
#X connect 69 0 91 0;
#X connect 69 0 104 1;
#X connect 72 0 20 0;
#X connect 72 0 81 0;
#X connect 73 0 32 0;
#X connect 76 0 32 0;
#X connect 77 0 79 0;
#X connect 77 0 78 0;
#X connect 78 0 76 1;
#X connect 79 0 76 0;
#X connect 82 0 87 0;
#X connect 83 0 32 0;
#X connect 87 0 16 1;
#X connect 87 0 86 0;
#X connect 89 0 56 1;
#X connect 89 0 57 1;
#X connect 89 0 88 0;
#X connect 91 0 92 0;
#X connect 91 1 89 1;
#X connect 91 1 90 0;
#X connect 92 0 23 0;
#X connect 94 2 93 0;
#X connect 95 0 94 0;
#X connect 97 0 100 0;
#X connect 98 0 104 0;
#X connect 99 0 98 0;
#X connect 100 0 98 0;
#X connect 104 0 28 0;
#X connect 105 0 99 0;
