#N canvas 368 82 878 721 10;
#X obj 6 138 soundfiler;
#X floatatom 6 169 15 0 0 0 - - -;
#X obj 6 32 inlet;
#X floatatom 331 66 5 0 0 0 - - -;
#X obj 331 33 inlet;
#N canvas 0 22 450 278 (subpatch) 0;
#X array \$0-drumL 136955 float 0;
#X coords 0 1 136954 -1 200 140 1 0 0;
#X restore 559 27 graph;
#X obj 6 66 pack s \$0;
#X floatatom 253 67 0 0 0 0 - - -;
#X obj 217 34 notein;
#X floatatom 217 67 0 0 0 0 - - -;
#X floatatom 289 67 0 0 0 0 - - -;
#X obj 227 512 hip~ 5;
#X obj 287 558 dac~;
#X obj 250 137 ==;
#X obj 217 166 stripnote;
#X obj 217 104 t f f;
#X obj 316 194 !=;
#X obj 316 292 bng 15 250 50 0 empty empty empty 17 7 0 10 -262144
-1 -1;
#X obj 316 242 sel 1;
#X text 308 13 assigned note;
#X text 216 15 midi in;
#X text 3 13 sample path;
#X floatatom 490 260 5 0 0 0 respect_note_off respect_note_off -;
#X floatatom 418 195 5 0 0 0 mono_sample monosample -;
#X floatatom 442 481 5 0 0 0 loop_enable loop_enable -;
#X obj 475 293 &;
#X obj 475 346 sel 1;
#X obj 475 319 &;
#X obj 508 293 == 0;
#X obj 409 512 spigot;
#X obj 316 219 &;
#N canvas 0 22 450 278 (subpatch) 0;
#X array \$0-drumR 136955 float 0;
#X coords 0 1 136954 -1 200 140 1;
#X restore 560 190 graph;
#X msg 6 102 read -resize \$1 \$2-drumL \$2-drumR;
#X obj 344 515 hip~ 5;
#X obj 282 487 ctlin 21;
#X floatatom 172 496 5 0 0 0 - - -;
#X obj 286 510 / 127;
#X floatatom 295 535 5 0 0 0 - - -;
#X obj 223 548 *~ 1;
#X obj 359 548 *~ 1;
#X obj 361 322 ctlin 88;
#X obj 43 247 expr 44100 / $f1;
#X floatatom 26 323 5 0 0 0 - - -;
#X obj 26 375 phasor~;
#X obj 30 414 *~;
#X obj 26 348 *;
#X obj 63 291 t b f;
#X obj 200 464 tabread4~ \$0-drumL;
#X obj 367 451 tabread4~ \$0-drumR;
#X msg 164 348 1;
#X floatatom 108 385 5 0 0 0 - - -;
#X obj 155 194 ctlin 25;
#X obj 156 227 / 100;
#X floatatom 160 271 5 0 0 0 - - -;
#X obj 192 390 spigot~;
#X msg 316 268 0;
#X obj 278 225 bng 15 250 50 0 empty empty empty 17 7 0 10 -262144
-1 -1;
#X floatatom 273 250 5 0 0 0 - - -;
#X obj 259 319 &;
#X floatatom 269 351 5 0 0 0 - - -;
#X msg 211 314 1;
#X msg 233 280 0;
#X obj 86 191 ctlin 89;
#X msg 98 226 1;
#X connect 0 0 1 0;
#X connect 0 0 41 0;
#X connect 0 0 44 1;
#X connect 2 0 6 0;
#X connect 3 0 13 1;
#X connect 3 0 16 1;
#X connect 4 0 3 0;
#X connect 6 0 32 0;
#X connect 7 0 14 1;
#X connect 7 0 28 0;
#X connect 8 0 9 0;
#X connect 8 1 7 0;
#X connect 8 2 10 0;
#X connect 9 0 15 0;
#X connect 11 0 38 0;
#X connect 13 0 25 0;
#X connect 13 0 56 0;
#X connect 13 0 57 0;
#X connect 13 0 58 1;
#X connect 14 0 16 0;
#X connect 14 0 60 0;
#X connect 14 0 61 0;
#X connect 15 0 14 0;
#X connect 15 1 13 0;
#X connect 16 0 30 0;
#X connect 18 0 55 0;
#X connect 22 0 25 1;
#X connect 23 0 30 1;
#X connect 24 0 29 1;
#X connect 25 0 27 0;
#X connect 26 0 55 0;
#X connect 27 0 26 0;
#X connect 28 0 27 1;
#X connect 29 0 47 0;
#X connect 29 0 48 0;
#X connect 30 0 18 0;
#X connect 32 0 0 0;
#X connect 33 0 39 0;
#X connect 34 0 35 0;
#X connect 34 0 36 0;
#X connect 36 0 37 0;
#X connect 36 0 38 1;
#X connect 36 0 39 1;
#X connect 38 0 12 0;
#X connect 39 0 12 1;
#X connect 40 0 55 0;
#X connect 41 0 42 0;
#X connect 42 0 45 0;
#X connect 43 0 44 0;
#X connect 44 0 54 0;
#X connect 45 0 43 0;
#X connect 45 0 50 0;
#X connect 46 0 42 0;
#X connect 46 1 45 1;
#X connect 47 0 11 0;
#X connect 48 0 33 0;
#X connect 49 0 46 0;
#X connect 51 0 52 0;
#X connect 52 0 53 0;
#X connect 53 0 46 0;
#X connect 54 1 47 0;
#X connect 54 1 48 0;
#X connect 55 0 17 0;
#X connect 55 0 54 1;
#X connect 58 0 54 1;
#X connect 58 0 59 0;
#X connect 60 0 58 0;
#X connect 61 0 43 1;
#X connect 62 0 63 0;
#X connect 63 0 53 0;
