#N canvas 480 291 878 590 10;
#X obj 6 138 soundfiler;
#X floatatom 6 169 15 0 0 0 - - -;
#X obj 6 32 inlet;
#X floatatom 331 66 5 0 0 0 - - -;
#X obj 331 33 inlet;
#N canvas 0 22 450 278 (subpatch) 0;
#X array \$0-drumL 340143 float 0;
#X coords 0 1 340142 -1 200 140 1 0 0;
#X restore 559 27 graph;
#X obj 6 66 pack s \$0;
#X floatatom 253 67 0 0 0 0 - - -;
#X obj 217 34 notein;
#X floatatom 217 67 0 0 0 0 - - -;
#X floatatom 289 67 0 0 0 0 - - -;
#X obj 227 482 hip~ 5;
#X obj 287 528 dac~;
#X obj 217 268 spigot;
#X obj 250 137 ==;
#X obj 217 294 bng 15 250 50 0 empty empty empty 17 7 0 10 -262144
-1 -1;
#X msg 316 268 stop;
#X obj 217 166 stripnote;
#X obj 217 104 t f f;
#X obj 316 194 !=;
#X obj 316 292 bng 15 250 50 0 empty empty empty 17 7 0 10 -262144
-1 -1;
#X obj 316 242 sel 1;
#X text 308 13 assigned note;
#X text 216 15 midi in;
#X text 3 13 sample path;
#X floatatom 490 260 5 0 0 0 respect_note_off respect_note_off -;
#X floatatom 418 195 5 0 0 0 mono_sample monosample -;
#X floatatom 442 451 5 0 0 0 loop_enable loop_enable -;
#X obj 475 293 &;
#X obj 475 346 sel 1;
#X obj 475 319 &;
#X obj 508 293 == 0;
#X obj 409 482 spigot;
#X obj 316 219 &;
#N canvas 0 22 450 278 (subpatch) 0;
#X array \$0-drumR 340143 float 0;
#X coords 0 1 340142 -1 200 140 1;
#X restore 560 190 graph;
#X msg 6 102 read -resize \$1 \$2-drumL \$2-drumR;
#X obj 338 421 tabplay~ \$0-drumR;
#X obj 213 421 tabplay~ \$0-drumL;
#X obj 344 485 hip~ 5;
#X obj 282 457 ctlin 21;
#X floatatom 172 466 5 0 0 0 - - -;
#X obj 286 480 / 127;
#X floatatom 295 505 5 0 0 0 - - -;
#X obj 223 518 *~ 1;
#X obj 359 518 *~ 1;
#X obj 361 322 ctlin 88;
#X connect 0 0 1 0;
#X connect 2 0 6 0;
#X connect 3 0 14 1;
#X connect 3 0 19 1;
#X connect 4 0 3 0;
#X connect 6 0 35 0;
#X connect 7 0 17 1;
#X connect 7 0 31 0;
#X connect 8 0 9 0;
#X connect 8 1 7 0;
#X connect 8 2 10 0;
#X connect 9 0 18 0;
#X connect 11 0 43 0;
#X connect 13 0 15 0;
#X connect 13 0 37 0;
#X connect 13 0 36 0;
#X connect 14 0 13 1;
#X connect 14 0 28 0;
#X connect 16 0 20 0;
#X connect 16 0 37 0;
#X connect 16 0 36 0;
#X connect 17 0 13 0;
#X connect 17 0 19 0;
#X connect 18 0 17 0;
#X connect 18 1 14 0;
#X connect 19 0 33 0;
#X connect 21 0 16 0;
#X connect 25 0 28 1;
#X connect 26 0 33 1;
#X connect 27 0 32 1;
#X connect 28 0 30 0;
#X connect 29 0 16 0;
#X connect 30 0 29 0;
#X connect 31 0 30 1;
#X connect 32 0 37 0;
#X connect 32 0 36 0;
#X connect 33 0 21 0;
#X connect 35 0 0 0;
#X connect 36 0 38 0;
#X connect 37 0 11 0;
#X connect 37 1 32 0;
#X connect 38 0 44 0;
#X connect 39 0 40 0;
#X connect 39 0 41 0;
#X connect 41 0 42 0;
#X connect 41 0 43 1;
#X connect 41 0 44 1;
#X connect 43 0 12 0;
#X connect 44 0 12 1;
#X connect 45 0 16 0;
