#N canvas 0 22 1436 852 10;
#X floatatom -476 622 5 0 0 0 - - -;
#X obj -476 681 zl slice;
#X floatatom -347 168 0 0 0 0 - - -;
#X floatatom -385 168 0 0 0 0 - - -;
#X floatatom -309 167 0 0 0 0 - - -;
#X obj -575 660 zl slice;
#X obj -385 198 t b f b b;
#X obj -201 374 unpack s s s s s s s s s s s s s s s s;
#X msg -431 657 20;
#X obj -476 592 *;
#X msg -89 58 \; pd dsp 1;
#X obj -181 41 loadbang;
#X text -389 117 midi control in: sample pagination;
#X obj 151 140 tgl 15 1 respect_note_off empty respect_note_off 17
7 0 10 -262144 -1 -1 0 127;
#X obj 183 268 tgl 15 1 monosample empty mono_sample 17 7 0 10 -262144
-1 -1 127 127;
#X obj 185 336 tgl 15 1 loop_enable empty loop_enable 17 7 0 10 -262144
-1 -1 0 127;
#X obj -579 148 file_loader;
#X obj -146 171 file_loader;
#X msg -146 134 list tmp/metadata/song_index.txt;
#X obj -181 289 zl nth;
#X obj -180 265 list;
#X obj -181 315 pack s;
#X msg -67 247 -1;
#X msg -1 247 1;
#X floatatom -46 350 5 0 0 0 - - -;
#X obj -67 271 +;
#X obj -67 308 t b f;
#X obj -557 327 list length;
#X obj -557 383 / 127;
#X obj -557 410 int;
#X floatatom -461 568 5 0 0 0 - - -;
#X floatatom -557 353 5 0 0 0 - - -;
#X obj -421 521 +;
#X msg -419 493 -4;
#X msg -384 493 4;
#X obj -419 572 t b f;
#X obj -516 292 debounce_b 100;
#X obj -180 108 t b b b b;
#X msg -257 203 4;
#X obj 42 303 max 1;
#X obj -419 545 max 0;
#X floatatom -328 590 5 0 0 0 - - -;
#X obj -361 627 bng 15 250 50 0 empty empty empty 17 7 0 10 -262144
-1 -1;
#X obj -363 705 bng 15 250 50 0 empty empty empty 17 7 0 10 -262144
-1 -1;
#X text -100 811 9;
#X text -216 471 1;
#X text -36 1105 16;
#X obj 57 246 list length;
#X floatatom 101 283 5 0 0 0 - - -;
#X obj 42 331 min;
#X obj -228 342 print;
#X obj -179 5 bng 15 250 50 0 empty empty empty 17 7 0 10 -262144 -1
-1;
#X obj 57 272 - 1;
#X floatatom 46 367 5 0 0 0 - - -;
#X floatatom -109 271 5 0 0 0 - - -;
#X msg -102 447 53;
#X floatatom 453 77 0 0 0 0 - - -;
#X floatatom 417 77 0 0 0 0 - - -;
#X floatatom 489 77 0 0 0 0 - - -;
#X text 416 25 midi in;
#X obj 417 44 notein;
#X msg -87 489 53;
#X msg -74 530 53;
#X msg -57 572 53;
#X msg -37 616 54;
#X msg -24 666 54;
#X msg -11 705 54;
#X msg 2 748 54;
#X msg 23 787 55;
#X msg 38 830 55;
#X msg 56 872 55;
#X msg 64 908 55;
#X msg 76 952 56;
#X msg 89 995 56;
#X msg 101 1040 56;
#X msg 116 1080 56;
#X obj 395 116 ctlin;
#X floatatom 378 170 5 0 0 0 - - -;
#X floatatom 436 168 5 0 0 0 - - -;
#X floatatom 489 180 5 0 0 0 - - -;
#X obj -201 473 jample_subsampler;
#X msg 197 54 50;
#X obj 220 16 loadbang;
#X obj 150 82 note_to_toggle;
#X msg 222 180 50;
#X obj 245 142 loadbang;
#X obj 175 208 note_to_toggle;
#X msg 282 283 50;
#X obj 305 245 loadbang;
#X obj 235 311 note_to_toggle;
#X msg 54 446 1;
#X msg 57 487 2;
#X msg 62 527 3;
#X msg 62 559 4;
#X msg 64 598 1;
#X msg 67 639 2;
#X msg 72 679 3;
#X msg 72 711 4;
#X msg 102 749 1;
#X msg 105 790 2;
#X msg 110 830 3;
#X msg 110 862 4;
#X msg 116 892 1;
#X msg 119 933 2;
#X msg 124 973 3;
#X msg 124 1005 4;
#X msg 243 55 1;
#X msg 268 181 2;
#X msg 328 284 3;
#X obj -385 141 ctlin 15 1;
#X msg 20 186 1;
#X obj -49 161 loadbang;
#X msg 130 185 1;
#X obj 61 160 loadbang;
#X msg -49 185 95;
#X msg 61 184 94;
#X obj -466 451 note_to_bang;
#X obj -466 402 loadbang;
#X msg -420 428 1;
#X msg -466 427 97;
#X obj -49 208 note_to_bang;
#X obj 61 207 note_to_bang;
#X obj -359 446 note_to_bang;
#X obj -359 397 loadbang;
#X msg -313 423 1;
#X msg -359 422 96;
#X obj -186 516 jample_subsampler;
#X obj -171 556 jample_subsampler;
#X obj -156 597 jample_subsampler;
#X obj -136 645 jample_subsampler;
#X obj -123 690 jample_subsampler;
#X obj -110 729 jample_subsampler;
#X obj -96 771 jample_subsampler;
#X obj -75 813 jample_subsampler;
#X obj -60 856 jample_subsampler;
#X obj -41 895 jample_subsampler;
#X obj -33 937 jample_subsampler;
#X obj -23 977 jample_subsampler;
#X obj -10 1022 jample_subsampler;
#X obj 5 1061 jample_subsampler;
#X obj 17 1103 jample_subsampler;
#X obj -201 473 jample_subsampler;
#X obj -201 473 jample_subsampler;
#X obj -201 473 jample_subsampler;
#X connect 0 0 5 1;
#X connect 0 0 32 1;
#X connect 1 0 7 0;
#X connect 3 0 6 0;
#X connect 5 1 1 0;
#X connect 6 0 36 0;
#X connect 6 1 9 0;
#X connect 6 3 8 0;
#X connect 7 0 80 0;
#X connect 7 1 126 0;
#X connect 7 2 127 0;
#X connect 7 3 128 0;
#X connect 7 4 129 0;
#X connect 7 5 130 0;
#X connect 7 6 131 0;
#X connect 7 7 132 0;
#X connect 7 8 133 0;
#X connect 7 9 134 0;
#X connect 7 10 135 0;
#X connect 7 11 136 0;
#X connect 7 12 137 0;
#X connect 7 13 138 0;
#X connect 7 14 139 0;
#X connect 7 15 140 0;
#X connect 8 0 1 1;
#X connect 9 0 0 0;
#X connect 11 0 10 0;
#X connect 11 0 37 0;
#X connect 16 0 5 0;
#X connect 16 0 27 0;
#X connect 17 0 20 1;
#X connect 18 0 17 0;
#X connect 19 0 21 0;
#X connect 20 0 19 0;
#X connect 20 0 47 0;
#X connect 21 0 16 0;
#X connect 21 0 50 0;
#X connect 22 0 25 0;
#X connect 23 0 25 0;
#X connect 25 0 26 0;
#X connect 25 0 39 0;
#X connect 26 0 20 0;
#X connect 26 1 19 1;
#X connect 26 1 24 0;
#X connect 27 0 31 0;
#X connect 28 0 29 0;
#X connect 29 0 30 0;
#X connect 30 0 9 1;
#X connect 31 0 28 0;
#X connect 32 0 40 0;
#X connect 32 0 41 0;
#X connect 33 0 32 0;
#X connect 34 0 32 0;
#X connect 35 0 5 0;
#X connect 35 1 0 0;
#X connect 36 0 16 0;
#X connect 36 0 90 0;
#X connect 36 0 55 0;
#X connect 37 0 20 0;
#X connect 37 0 38 0;
#X connect 37 1 23 0;
#X connect 37 1 0 0;
#X connect 37 2 18 0;
#X connect 38 0 6 0;
#X connect 39 0 49 0;
#X connect 40 0 35 0;
#X connect 42 0 0 0;
#X connect 43 0 5 0;
#X connect 47 0 48 0;
#X connect 47 0 52 0;
#X connect 49 0 25 1;
#X connect 49 0 53 0;
#X connect 51 0 11 0;
#X connect 52 0 49 1;
#X connect 54 0 26 0;
#X connect 55 0 61 0;
#X connect 55 0 80 1;
#X connect 60 0 57 0;
#X connect 60 1 56 0;
#X connect 60 2 58 0;
#X connect 61 0 62 0;
#X connect 61 0 126 1;
#X connect 62 0 63 0;
#X connect 62 0 127 1;
#X connect 63 0 64 0;
#X connect 63 0 128 1;
#X connect 64 0 65 0;
#X connect 64 0 129 1;
#X connect 65 0 66 0;
#X connect 65 0 130 1;
#X connect 66 0 67 0;
#X connect 66 0 131 1;
#X connect 67 0 68 0;
#X connect 67 0 132 1;
#X connect 68 0 69 0;
#X connect 68 0 133 1;
#X connect 69 0 70 0;
#X connect 69 0 134 1;
#X connect 70 0 71 0;
#X connect 70 0 135 1;
#X connect 71 0 72 0;
#X connect 71 0 136 1;
#X connect 72 0 73 0;
#X connect 72 0 137 1;
#X connect 73 0 74 0;
#X connect 73 0 138 1;
#X connect 74 0 75 0;
#X connect 74 0 139 1;
#X connect 75 0 140 1;
#X connect 76 0 77 0;
#X connect 76 1 78 0;
#X connect 76 2 79 0;
#X connect 81 0 83 0;
#X connect 82 0 81 0;
#X connect 82 0 106 0;
#X connect 83 0 13 0;
#X connect 84 0 86 0;
#X connect 85 0 84 0;
#X connect 85 0 107 0;
#X connect 86 0 14 0;
#X connect 87 0 89 0;
#X connect 88 0 87 0;
#X connect 88 0 108 0;
#X connect 89 0 15 0;
#X connect 90 0 91 0;
#X connect 90 0 80 2;
#X connect 91 0 92 0;
#X connect 91 0 126 2;
#X connect 92 0 93 0;
#X connect 92 0 127 2;
#X connect 93 0 94 0;
#X connect 93 0 128 2;
#X connect 94 0 95 0;
#X connect 94 0 129 2;
#X connect 95 0 96 0;
#X connect 95 0 130 2;
#X connect 96 0 97 0;
#X connect 96 0 131 2;
#X connect 97 0 98 0;
#X connect 97 0 132 2;
#X connect 98 0 99 0;
#X connect 98 0 133 2;
#X connect 99 0 100 0;
#X connect 99 0 134 2;
#X connect 100 0 101 0;
#X connect 100 0 135 2;
#X connect 101 0 102 0;
#X connect 101 0 136 2;
#X connect 102 0 103 0;
#X connect 102 0 137 2;
#X connect 103 0 104 0;
#X connect 103 0 138 2;
#X connect 104 0 105 0;
#X connect 104 0 139 2;
#X connect 105 0 140 2;
#X connect 106 0 83 1;
#X connect 107 0 86 1;
#X connect 108 0 89 1;
#X connect 109 0 3 0;
#X connect 110 0 120 1;
#X connect 111 0 114 0;
#X connect 111 0 110 0;
#X connect 112 0 121 1;
#X connect 113 0 115 0;
#X connect 113 0 112 0;
#X connect 114 0 120 0;
#X connect 115 0 121 0;
#X connect 116 0 33 0;
#X connect 117 0 119 0;
#X connect 117 0 118 0;
#X connect 118 0 116 1;
#X connect 119 0 116 0;
#X connect 120 0 22 0;
#X connect 121 0 23 0;
#X connect 122 0 34 0;
#X connect 123 0 125 0;
#X connect 123 0 124 0;
#X connect 124 0 122 1;
#X connect 125 0 122 0;
