#N canvas 0 22 1083 826 10;
#X obj 6 125 soundfiler;
#X obj 6 32 inlet;
#X floatatom 521 66 5 0 0 0 - - -;
#X obj 521 33 inlet;
#N canvas 0 22 450 278 (subpatch) 0;
#X array \$0-drumL 242916 float 0;
#X coords 0 1 242915 -1 200 140 1 0 0;
#X restore 749 37 graph;
#X obj 6 56 pack s \$0;
#X floatatom 443 67 0 0 0 0 - - -;
#X obj 407 34 notein;
#X floatatom 407 67 0 0 0 0 - - -;
#X floatatom 479 67 0 0 0 0 - - -;
#X obj 138 639 hip~ 5;
#X obj 251 729 dac~;
#X obj 434 128 ==;
#X obj 407 166 stripnote;
#X obj 407 104 t f f;
#X obj 506 194 !=;
#X obj 506 292 bng 15 250 50 0 empty empty empty 17 7 0 10 -262144
-1 -1;
#X obj 506 242 sel 1;
#X text 498 13 assigned note;
#X text 406 15 midi in;
#X text 3 13 sample path;
#X floatatom 680 260 5 0 0 0 respect_note_off respect_note_off -;
#X floatatom 608 195 5 0 0 0 mono_sample monosample -;
#X obj 665 293 &;
#X obj 665 346 sel 1;
#X obj 665 319 &;
#X obj 698 293 == 0;
#X obj 506 219 &;
#N canvas 0 22 450 278 (subpatch) 0;
#X array \$0-drumR 242916 float 0;
#X coords 0 1 242915 -1 200 140 1;
#X restore 750 200 graph;
#X msg 6 80 read -resize \$1 \$2-drumL \$2-drumR;
#X obj 356 644 hip~ 5;
#X obj 271 617 ctlin 21;
#X floatatom 271 638 5 0 0 0 - - -;
#X obj 271 658 / 127;
#X floatatom 271 681 5 0 0 0 - - -;
#X obj 138 664 *~ 1;
#X obj 356 669 *~ 1;
#X obj 551 322 ctlin 88;
#X obj 50 200 expr 44100 / $f1;
#X floatatom 26 323 5 0 0 0 - - -;
#X obj 26 375 phasor~;
#X obj 109 298 t b f;
#X obj 138 615 tabread4~ \$0-drumL;
#X obj 356 618 tabread4~ \$0-drumR;
#X floatatom 56 349 5 0 0 0 - - -;
#X obj 250 172 ctlin 25;
#X floatatom 190 251 5 0 0 0 - - -;
#X obj 246 507 spigot~;
#X msg 506 268 0;
#X obj 414 331 &;
#X floatatom 414 360 5 0 0 0 - - -;
#X msg 414 304 1;
#X obj 181 171 ctlin 89;
#X msg 191 206 1;
#X obj 26 348 * 1;
#X obj 249 207 / 100;
#X text 260 154 speed;
#X text 178 154 speed reset;
#X text 226 251 1 is normal;
#X obj 61 241 expr 1 / $f1;
#X obj 160 378 -;
#X floatatom 160 350 5 0 0 0 - - -;
#X obj 226 367 t f b;
#X obj 11 274 *;
#X obj 752 348 hsl 200 15 0 1 0 0 empty empty empty -2 -6 0 8 -262144
-1 -1 9689 1;
#X obj 226 301 ctlin 22;
#X obj 160 301 ctlin 23;
#X text 223 284 start;
#X text 170 283 stop;
#X obj 226 323 / 127;
#X obj 160 326 / 127;
#X floatatom 226 344 5 0 0 0 - - -;
#X obj 26 464 *~;
#X text 271 604 volume;
#X obj 26 404 *~ 1;
#X obj 26 433 +~ 0;
#X obj 411 526 unsig~ 20;
#X msg 103 166 1;
#X obj 226 408 spigot;
#X obj 160 406 spigot;
#X obj 375 390 sel 1;
#X msg 381 424 0;
#X msg 424 423 1;
#X obj 430 459 bng 15 250 50 0 empty empty empty 17 7 0 10 -262144
-1 -1;
#X msg 142 164 0;
#X text 465 134 comment;
#X obj 322 42 ctlin 90;
#X obj 255 95 tgl 15 0 empty empty empty 17 7 0 10 -262144 -1 -1 0
1;
#X obj 6 102 spigot 1;
#X obj 322 65 != 0;
#X obj 307 90 &;
#X msg 307 138 0;
#X obj 233 42 ctlin 91;
#X msg 254 69 1;
#X obj 307 112 sel 1;
#X text 322 25 freeze pad;
#X text 232 24 unfreeze all;
#X connect 0 0 38 0;
#X connect 0 0 72 1;
#X connect 0 0 77 0;
#X connect 0 0 84 0;
#X connect 1 0 5 0;
#X connect 2 0 12 1;
#X connect 2 0 15 1;
#X connect 3 0 2 0;
#X connect 5 0 29 0;
#X connect 6 0 13 1;
#X connect 6 0 26 0;
#X connect 7 0 8 0;
#X connect 7 1 6 0;
#X connect 7 2 9 0;
#X connect 8 0 14 0;
#X connect 10 0 35 0;
#X connect 12 0 23 0;
#X connect 12 0 49 1;
#X connect 12 0 90 0;
#X connect 13 0 15 0;
#X connect 13 0 51 0;
#X connect 14 0 13 0;
#X connect 14 1 12 0;
#X connect 15 0 27 0;
#X connect 17 0 48 0;
#X connect 21 0 23 1;
#X connect 22 0 27 1;
#X connect 23 0 25 0;
#X connect 24 0 48 0;
#X connect 25 0 24 0;
#X connect 26 0 25 1;
#X connect 27 0 17 0;
#X connect 29 0 88 0;
#X connect 30 0 36 0;
#X connect 31 0 32 0;
#X connect 32 0 33 0;
#X connect 33 0 34 0;
#X connect 33 0 35 1;
#X connect 33 0 36 1;
#X connect 35 0 11 0;
#X connect 36 0 11 1;
#X connect 37 0 48 0;
#X connect 38 0 63 1;
#X connect 39 0 54 0;
#X connect 40 0 74 0;
#X connect 41 0 39 0;
#X connect 41 1 54 1;
#X connect 42 0 10 0;
#X connect 43 0 30 0;
#X connect 45 0 55 0;
#X connect 46 0 41 0;
#X connect 47 1 42 0;
#X connect 47 1 43 0;
#X connect 48 0 16 0;
#X connect 48 0 47 1;
#X connect 48 0 78 1;
#X connect 48 0 79 1;
#X connect 49 0 50 0;
#X connect 49 0 78 1;
#X connect 49 0 79 1;
#X connect 49 0 80 0;
#X connect 51 0 49 0;
#X connect 52 0 53 0;
#X connect 53 0 46 0;
#X connect 54 0 40 0;
#X connect 54 0 44 0;
#X connect 55 0 46 0;
#X connect 59 0 63 0;
#X connect 60 0 79 0;
#X connect 61 0 60 0;
#X connect 62 0 60 1;
#X connect 62 0 78 0;
#X connect 62 1 61 0;
#X connect 63 0 39 0;
#X connect 65 0 69 0;
#X connect 66 0 70 0;
#X connect 69 0 71 0;
#X connect 70 0 61 0;
#X connect 71 0 62 0;
#X connect 72 0 47 0;
#X connect 74 0 75 0;
#X connect 74 0 76 0;
#X connect 75 0 72 0;
#X connect 76 0 64 0;
#X connect 77 0 59 0;
#X connect 77 0 74 1;
#X connect 78 0 75 1;
#X connect 79 0 74 1;
#X connect 79 0 59 0;
#X connect 80 0 81 0;
#X connect 80 0 82 0;
#X connect 81 0 40 1;
#X connect 82 0 47 1;
#X connect 82 0 83 0;
#X connect 84 0 75 1;
#X connect 86 0 89 0;
#X connect 87 0 88 1;
#X connect 88 0 0 0;
#X connect 89 0 90 1;
#X connect 90 0 94 0;
#X connect 91 0 87 0;
#X connect 92 0 93 0;
#X connect 93 0 87 0;
#X connect 94 0 91 0;
