#N canvas 301 23 1012 823 10;
#X obj 399 212 assigned_note \$2 \$3;
#X obj 69 174 soundfiler;
#X obj 69 105 pack s \$0;
#X msg 69 129 read -resize \$1 \$2-drumL \$2-drumR;
#X obj 113 249 expr 44100 / $f1;
#X floatatom 89 372 5 0 0 0 - - -;
#X obj 89 424 phasor~;
#X obj 217 344 t b f;
#X floatatom 119 398 5 0 0 0 - - -;
#X obj 89 397 * 1;
#X obj 124 290 expr 1 / $f1;
#X obj 97 323 *;
#X obj 89 513 *~;
#X obj 89 453 *~ 1;
#X obj 89 482 +~ 0;
#X msg 166 215 1;
#X msg 205 213 0;
#X obj 69 151 spigot 1;
#X obj 68 37 f \$1;
#X obj 68 11 loadbang;
#X msg 68 63 ~/Documents/essample/pure_data/tmp/patch/pad_\$1.wav;
#N canvas 0 22 450 278 (subpatch) 0;
#X array \$0-drumL 252288 float 0;
#X coords 0 1 252287 -1 200 140 1 0 0;
#X restore -183 157 graph;
#N canvas 0 22 450 278 (subpatch) 0;
#X array \$0-drumR 252288 float 0;
#X coords 0 1 252287 -1 200 140 1;
#X restore -182 320 graph;
#X obj -178 496 hsl 200 15 0 1 0 0 empty empty empty -2 -6 0 8 -262144
-1 -1 17561 1;
#X obj 241 598 / 127;
#X obj 108 585 tabread4~ \$0-drumL;
#X obj 326 588 tabread4~ \$0-drumR;
#X text 258 579 volume;
#X obj 105 692 hip~ 5;
#X obj 328 695 hip~ 5;
#X obj 108 634 *~ 0.8;
#X obj 326 639 *~ 0.8;
#X obj 192 673 line~;
#X obj 327 667 *~;
#X obj 106 661 *~;
#X obj 171 662 bng 15 250 50 0 empty empty empty 17 7 0 10 -262144
-1 -1;
#X obj 105 729 send~ bus-L;
#X obj 328 726 send~ bus-R;
#X floatatom 247 651 5 0 0 0 - - -;
#X obj 245 623 spigot 1;
#X obj -181 470 unsig~ 20;
#X msg 400 323 0;
#X obj 460 243 bng 15 250 50 0 empty empty empty 17 7 0 10 -262144
-1 -1;
#X msg 340 426 0;
#X obj 514 243 bng 15 250 50 0 empty empty empty 17 7 0 10 -262144
-1 -1;
#X obj 529 362 unassigned_note \$2 \$3;
#X obj 587 392 bng 15 250 50 0 empty empty empty 17 7 0 10 -262144
-1 -1;
#X obj 650 392 bng 15 250 50 0 empty empty empty 17 7 0 10 -262144
-1 -1;
#X obj 373 427 tgl 15 0 empty respect_note_off respect_note_off 17
7 0 10 -262144 -1 -1 1 1;
#X obj 481 439 tgl 15 0 empty monosample Mono_Sample 17 7 0 10 -262144
-1 -1 0 1;
#X obj 448 465 spigot;
#X msg 461 566 0;
#X obj 141 105 print;
#X obj 340 452 spigot;
#X obj 430 486 bng 15 250 50 0 empty empty empty 17 7 0 10 -262144
-1 -1;
#X obj 340 486 bng 15 250 50 0 empty empty empty 17 7 0 10 -262144
-1 -1;
#X obj 493 515 assigned_note 64 17;
#X obj 68 -16 bng 15 250 50 0 empty netreceive netreceive 17 7 0 10
-262144 -1 -1;
#X msg 474 323 0;
#X msg 434 322 1;
#X obj 434 295 delay 5;
#X msg 192 645 \$1 5;
#X text 429 275 this fades out and in to prevent popping;
#X text 396 192 trigger if midi matches assigned note;
#X text 528 340 trigger when unassigned note;
#X msg 251 290 1;
#X msg 284 289 0;
#X obj 217 316 spigot;
#X obj 217 262 speed_control;
#X text 260 315 current patch?;
#X obj 295 192 bng 15 250 50 0 empty reset_speed Reset_Speed 17 7 0
10 -262144 -1 -1;
#X msg 301 222 1;
#X obj 241 541 ctlin 4 1;
#X obj 361 539 ctlin 4 17;
#X obj 215 731 dac~ \$1;
#X obj 302 756 tgl 15 0 empty multichannel_out multichannel_out 17
7 0 10 -262144 -1 -1 1 1;
#X obj 193 706 spigot~;
#X obj 302 779 invert;
#X obj 300 846 dac~;
#X obj 263 816 spigot~;
#X obj 317 816 spigot~;
#X obj 637 521 tgl 15 0 empty empty empty 17 7 0 10 -262144 -1 -1 0
1;
#X obj 604 553 spigot;
#X obj 465 606 bng 15 250 50 0 empty empty empty 17 7 0 10 -262144
-1 -1;
#X text 658 516 Note Off State;
#X msg 637 472 1;
#X msg 677 472 0;
#X text 459 497 Conditional Mute on Foot Pedal;
#X text 363 524 mute all;
#X connect 0 1 42 0;
#X connect 0 1 58 0;
#X connect 0 1 60 0;
#X connect 0 1 65 0;
#X connect 0 2 43 0;
#X connect 0 2 44 0;
#X connect 1 0 4 0;
#X connect 1 0 12 1;
#X connect 1 0 15 0;
#X connect 1 0 16 0;
#X connect 2 0 3 0;
#X connect 3 0 17 0;
#X connect 4 0 11 1;
#X connect 5 0 9 0;
#X connect 6 0 13 0;
#X connect 7 0 5 0;
#X connect 7 1 9 1;
#X connect 9 0 6 0;
#X connect 9 0 8 0;
#X connect 10 0 11 0;
#X connect 11 0 5 0;
#X connect 12 0 25 0;
#X connect 12 0 26 0;
#X connect 13 0 14 0;
#X connect 13 0 40 0;
#X connect 14 0 12 0;
#X connect 15 0 10 0;
#X connect 15 0 13 1;
#X connect 16 0 14 1;
#X connect 17 0 1 0;
#X connect 18 0 20 0;
#X connect 19 0 18 0;
#X connect 20 0 2 0;
#X connect 20 0 52 0;
#X connect 24 0 39 0;
#X connect 25 0 30 0;
#X connect 26 0 31 0;
#X connect 28 0 36 0;
#X connect 28 0 76 0;
#X connect 28 0 79 0;
#X connect 29 0 37 0;
#X connect 29 0 80 0;
#X connect 30 0 34 0;
#X connect 31 0 33 0;
#X connect 32 0 33 1;
#X connect 32 0 34 1;
#X connect 33 0 29 0;
#X connect 34 0 28 0;
#X connect 39 0 30 1;
#X connect 39 0 31 1;
#X connect 39 0 38 0;
#X connect 40 0 23 0;
#X connect 41 0 6 1;
#X connect 43 0 53 0;
#X connect 45 1 46 0;
#X connect 45 1 50 0;
#X connect 45 1 66 0;
#X connect 45 2 47 0;
#X connect 48 0 53 1;
#X connect 49 0 50 1;
#X connect 50 0 51 0;
#X connect 50 0 54 0;
#X connect 51 0 61 0;
#X connect 51 0 83 0;
#X connect 53 0 55 0;
#X connect 53 0 61 0;
#X connect 53 0 85 0;
#X connect 56 2 82 0;
#X connect 57 0 19 0;
#X connect 58 0 61 0;
#X connect 59 0 61 0;
#X connect 60 0 59 0;
#X connect 60 0 41 0;
#X connect 61 0 32 0;
#X connect 61 0 35 0;
#X connect 61 0 86 0;
#X connect 65 0 67 1;
#X connect 66 0 67 1;
#X connect 67 0 7 0;
#X connect 68 0 67 0;
#X connect 70 0 71 0;
#X connect 71 0 7 0;
#X connect 72 0 24 0;
#X connect 73 0 51 0;
#X connect 75 0 76 1;
#X connect 75 0 77 0;
#X connect 76 0 74 0;
#X connect 77 0 79 1;
#X connect 77 0 80 1;
#X connect 79 0 78 0;
#X connect 80 0 78 1;
#X connect 81 0 82 1;
#X connect 82 0 51 0;
#X connect 85 0 81 0;
#X connect 86 0 81 0;
