#N canvas 0 22 1436 856 10;
#X obj -201 374 unpack s s s s s s s s s s s s s s s s;
#X msg 40 184 \; pd dsp 1;
#X obj 40 151 loadbang;
#X obj 151 140 tgl 15 1 respect_note_off empty respect_note_off 17
7 0 10 -262144 -1 -1 0 127;
#X obj 183 268 tgl 15 1 monosample empty mono_sample 17 7 0 10 -262144
-1 -1 0 127;
#X obj 185 336 tgl 15 1 loop_enable empty loop_enable 17 7 0 10 -262144
-1 -1 0 127;
#X text -100 811 9;
#X text -216 471 1;
#X text -36 1105 16;
#X obj 42 114 bng 15 250 50 0 empty empty empty 17 7 0 10 -262144 -1
-1;
#X msg -102 447 53;
#X floatatom 453 77 0 0 0 0 - - -;
#X floatatom 417 77 0 0 0 0 - - -;
#X floatatom 489 77 0 0 0 0 - - -;
#X text 416 25 midi in;
#X msg -87 489 53;
#X msg -74 530 53;
#X msg -57 572 53;
#X msg -37 616 54;
#X msg -24 666 54;
#X msg -11 705 54;
#X msg 2 748 54;
#X msg 23 787 55;
#X msg 38 830 55;
#X msg 56 872 55;
#X msg 64 908 55;
#X msg 76 952 56;
#X msg 89 995 56;
#X msg 101 1040 56;
#X msg 116 1080 56;
#X obj 395 116 ctlin;
#X floatatom 378 170 5 0 0 0 - - -;
#X floatatom 436 168 5 0 0 0 - - -;
#X floatatom 489 180 5 0 0 0 - - -;
#X obj -201 473 jample_subsampler;
#X msg 197 54 50;
#X obj 220 16 loadbang;
#X obj 150 82 note_to_toggle;
#X msg 222 180 50;
#X obj 245 142 loadbang;
#X obj 175 208 note_to_toggle;
#X msg 282 283 50;
#X obj 305 245 loadbang;
#X obj 235 311 note_to_toggle;
#X msg 54 446 1;
#X msg 57 487 2;
#X msg 62 527 3;
#X msg 62 559 4;
#X msg 64 598 1;
#X msg 67 639 2;
#X msg 72 679 3;
#X msg 72 711 4;
#X msg 102 749 1;
#X msg 105 790 2;
#X msg 110 830 3;
#X msg 110 862 4;
#X msg 116 892 1;
#X msg 119 933 2;
#X msg 124 973 3;
#X msg 124 1005 4;
#X msg 243 55 1;
#X msg 268 181 2;
#X msg 328 284 3;
#X obj -186 516 jample_subsampler;
#X obj -171 556 jample_subsampler;
#X obj -156 597 jample_subsampler;
#X obj -136 645 jample_subsampler;
#X obj -123 690 jample_subsampler;
#X obj -110 729 jample_subsampler;
#X obj -96 771 jample_subsampler;
#X obj -75 813 jample_subsampler;
#X obj -60 856 jample_subsampler;
#X obj -41 895 jample_subsampler;
#X obj -33 937 jample_subsampler;
#X obj -23 977 jample_subsampler;
#X obj -10 1022 jample_subsampler;
#X obj 5 1061 jample_subsampler;
#X obj 17 1103 jample_subsampler;
#X obj -201 473 jample_subsampler;
#X obj -201 473 jample_subsampler;
#X obj -201 473 jample_subsampler;
#X msg 105 50 1;
#X obj 36 72 note_to_bang;
#X msg 36 49 82;
#X obj 417 44 notein;
#X obj 81 7 notein;
#X msg 130 185;
#X msg -351 -87 list /Users/clean/Documents/essample/pure_data/tmp/patch/pad_0.wav
/Users/clean/Documents/essample/pure_data/tmp/patch/pad_1.wav /Users/clean/Documents/essample/pure_data/tmp/patch/pad_2.wav
/Users/clean/Documents/essample/pure_data/tmp/patch/pad_3.wav /Users/clean/Documents/essample/pure_data/tmp/patch/pad_4.wav
/Users/clean/Documents/essample/pure_data/tmp/patch/pad_5.wav /Users/clean/Documents/essample/pure_data/tmp/patch/pad_6.wav
/Users/clean/Documents/essample/pure_data/tmp/patch/pad_7.wav /Users/clean/Documents/essample/pure_data/tmp/patch/pad_8.wav
/Users/clean/Documents/essample/pure_data/tmp/patch/pad_9.wav /Users/clean/Documents/essample/pure_data/tmp/patch/pad_10.wav
/Users/clean/Documents/essample/pure_data/tmp/patch/pad_11.wav /Users/clean/Documents/essample/pure_data/tmp/patch/pad_12.wav
/Users/clean/Documents/essample/pure_data/tmp/patch/pad_13.wav /Users/clean/Documents/essample/pure_data/tmp/patch/pad_14.wav
/Users/clean/Documents/essample/pure_data/tmp/patch/pad_15.wav;
#X connect 0 0 34 0;
#X connect 0 1 63 0;
#X connect 0 2 64 0;
#X connect 0 3 65 0;
#X connect 0 4 66 0;
#X connect 0 5 67 0;
#X connect 0 6 68 0;
#X connect 0 7 69 0;
#X connect 0 8 70 0;
#X connect 0 9 71 0;
#X connect 0 10 72 0;
#X connect 0 11 73 0;
#X connect 0 12 74 0;
#X connect 0 13 75 0;
#X connect 0 14 76 0;
#X connect 0 15 77 0;
#X connect 2 0 1 0;
#X connect 2 0 87 0;
#X connect 2 0 10 0;
#X connect 2 0 44 0;
#X connect 9 0 2 0;
#X connect 10 0 15 0;
#X connect 10 0 34 1;
#X connect 15 0 16 0;
#X connect 15 0 63 1;
#X connect 16 0 17 0;
#X connect 16 0 64 1;
#X connect 17 0 18 0;
#X connect 17 0 65 1;
#X connect 18 0 19 0;
#X connect 18 0 66 1;
#X connect 19 0 20 0;
#X connect 19 0 67 1;
#X connect 20 0 21 0;
#X connect 20 0 68 1;
#X connect 21 0 22 0;
#X connect 21 0 69 1;
#X connect 22 0 23 0;
#X connect 22 0 70 1;
#X connect 23 0 24 0;
#X connect 23 0 71 1;
#X connect 24 0 25 0;
#X connect 24 0 72 1;
#X connect 25 0 26 0;
#X connect 25 0 73 1;
#X connect 26 0 27 0;
#X connect 26 0 74 1;
#X connect 27 0 28 0;
#X connect 27 0 75 1;
#X connect 28 0 29 0;
#X connect 28 0 76 1;
#X connect 29 0 77 1;
#X connect 30 0 31 0;
#X connect 30 1 32 0;
#X connect 30 2 33 0;
#X connect 35 0 37 0;
#X connect 36 0 35 0;
#X connect 36 0 60 0;
#X connect 37 0 3 0;
#X connect 38 0 40 0;
#X connect 39 0 38 0;
#X connect 39 0 61 0;
#X connect 40 0 4 0;
#X connect 41 0 43 0;
#X connect 42 0 41 0;
#X connect 42 0 62 0;
#X connect 43 0 5 0;
#X connect 44 0 45 0;
#X connect 44 0 34 2;
#X connect 45 0 46 0;
#X connect 45 0 63 2;
#X connect 46 0 47 0;
#X connect 46 0 64 2;
#X connect 47 0 48 0;
#X connect 47 0 65 2;
#X connect 48 0 49 0;
#X connect 48 0 66 2;
#X connect 49 0 50 0;
#X connect 49 0 67 2;
#X connect 50 0 51 0;
#X connect 50 0 68 2;
#X connect 51 0 52 0;
#X connect 51 0 69 2;
#X connect 52 0 53 0;
#X connect 52 0 70 2;
#X connect 53 0 54 0;
#X connect 53 0 71 2;
#X connect 54 0 55 0;
#X connect 54 0 72 2;
#X connect 55 0 56 0;
#X connect 55 0 73 2;
#X connect 56 0 57 0;
#X connect 56 0 74 2;
#X connect 57 0 58 0;
#X connect 57 0 75 2;
#X connect 58 0 59 0;
#X connect 58 0 76 2;
#X connect 59 0 77 2;
#X connect 60 0 37 1;
#X connect 61 0 40 1;
#X connect 62 0 43 1;
#X connect 81 0 82 1;
#X connect 82 0 9 0;
#X connect 83 0 82 0;
#X connect 84 0 12 0;
#X connect 84 1 11 0;
#X connect 84 2 13 0;
#X connect 85 0 83 0;
#X connect 85 2 81 0;
#X connect 87 0 0 0;
