#N canvas 537 222 713 621 10;
#X obj 166 284 soundfiler;
#X floatatom 168 334 15 0 0 0 - - -;
#X obj 166 400 tabplay~ drum;
#X obj 93 328 bng 15 250 50 0 empty empty empty 17 7 0 10 -262144 -1
-1;
#X obj 169 449 hip~ 5;
#X obj 174 502 dac~;
#X obj 275 403 spigot;
#X obj 318 366 tgl 15 0 empty empty empty 17 7 0 10 -262144 -1 -1 1
1;
#X floatatom 73 229 0 0 0 0 - - -;
#X obj 43 197 notein;
#X floatatom 37 229 0 0 0 0 - - -;
#X floatatom 109 229 0 0 0 0 - - -;
#N canvas 0 22 450 278 (subpatch) 0;
#X array drum 131572 float 0;
#X coords 0 1 131571 -1 200 140 1 0 0;
#X restore 423 142 graph;
#X text 44 174 omni;
#X floatatom 210 115 5 0 0 0 - - -;
#X msg 204 37 read -resize /Users/clean/Documents/essample/slices/03_All_I_Need_0011.842562.wav
drum;
#X connect 0 0 1 0;
#X connect 2 0 4 0;
#X connect 2 1 6 0;
#X connect 3 0 2 0;
#X connect 4 0 5 0;
#X connect 4 0 5 1;
#X connect 6 0 3 0;
#X connect 7 0 6 1;
#X connect 9 0 10 0;
#X connect 9 1 8 0;
#X connect 9 2 11 0;
#X connect 10 0 3 0;
#X connect 15 0 0 0;
#X coords 0 -1 1 1 85 60 1 100 100;
