#N canvas 589 140 784 601 10;
#X obj 81 85 soundfiler;
#N canvas 0 22 450 278 (subpatch) 0;
#X array array2 100 float 2;
#X coords 0 1 99 -1 200 140 1;
#X restore 83 121 graph;
#X msg 79 16 read /Users/clean/Documents/essample/slices/DrumAndBass_Hip_Hop_Breaks_Part_7_0020.188277.wav
drum;
#X obj 180 360 soundfiler;
#N canvas 0 22 450 278 (subpatch) 0;
#X array array2 100 float 2;
#X coords 0 1 99 -1 200 140 1;
#X restore 182 396 graph;
#X msg 178 291 read /Users/clean/Documents/essample/slices/DrumAndBass_Hip_Hop_Breaks_Part_7_0020.188277.wav
drum;
#X obj 17 9 bng 15 250 50 0 empty empty empty 17 7 0 10 -262144 -1
-1;
#X connect 2 0 0 0;
#X connect 5 0 3 0;
#X connect 6 0 2 0;
#X connect 6 0 5 0;
