#N canvas 426 89 693 610 10;
#X floatatom 229 373 5 0 0 0 - - -;
#X msg 229 289 1;
#X text 201 237 speed reset;
#X text 248 274 1 is normal;
#X obj 106 255 ctlin 1;
#X obj 229 254 ctlin 2;
#X obj 106 287 / 127;
#X obj 106 316 + 0.5;
#X obj 408 288 / 800;
#X obj 315 389 + 0;
#X obj 229 409 +;
#X obj 408 257 ctlin 5;
#X floatatom 251 444 5 0 0 0 - - -;
#X obj 334 418 bng 15 250 50 0 empty empty empty 17 7 0 10 -262144
-1 -1;
#X msg 316 361 0;
#X text 104 236 speed course;
#X text 404 236 speed fine;
#X obj 231 514 outlet;
#X obj 361 147 loadbang;
#X connect 0 0 10 0;
#X connect 1 0 0 0;
#X connect 4 0 6 0;
#X connect 5 0 1 0;
#X connect 5 0 14 0;
#X connect 6 0 7 0;
#X connect 7 0 0 0;
#X connect 8 0 9 0;
#X connect 9 0 13 0;
#X connect 9 0 10 1;
#X connect 10 0 12 0;
#X connect 10 0 17 0;
#X connect 11 0 8 0;
#X connect 13 0 0 0;
#X connect 14 0 9 0;
#X connect 18 0 1 0;
#X connect 18 0 14 0;
