#N canvas 0 22 1147 738 10;
#X floatatom 568 158 5 0 0 0 - - -;
#X floatatom 483 157 0 0 0 0 - - -;
#X floatatom 447 157 0 0 0 0 - - -;
#X floatatom 519 157 0 0 0 0 - - -;
#X text 446 105 midi in;
#X obj 447 124 notein;
#X floatatom 637 156 5 0 0 0 - - -;
#X text 520 114 assigned note;
#X text 636 107 assigned channel;
#X obj 579 218 ==;
#X obj 552 218 ==;
#X obj 566 279 &;
#X floatatom 518 509 5 0 0 0 - - -;
#X obj 568 130 f \$1;
#X obj 637 127 f \$2;
#X obj 568 76 loadbang;
#X floatatom 602 249 5 0 0 0 - - -;
#X floatatom 519 249 5 0 0 0 - - -;
#X obj 498 546 outlet;
#X text 446 525 current patch? boolean;
#X obj 678 546 outlet;
#X obj 858 546 outlet;
#X text 626 525 note on bang;
#X text 806 525 note off bang;
#X obj 468 267 f;
#X obj 447 184 t b f;
#X obj 468 300 spigot;
#X obj 702 382 sel 0;
#X obj 468 336 bng 15 250 50 0 empty empty empty 17 7 0 10 -262144
-1 -1;
#X obj 904 526 bng 15 250 50 0 empty empty empty 17 7 0 10 -262144
-1 -1;
#X obj 718 530 bng 15 250 50 0 empty empty empty 17 7 0 10 -262144
-1 -1;
#X obj 582 365 > 0;
#X obj 583 389 sel 1;
#X connect 0 0 10 1;
#X connect 1 0 24 1;
#X connect 2 0 25 0;
#X connect 3 0 9 0;
#X connect 5 0 2 0;
#X connect 5 1 1 0;
#X connect 5 2 3 0;
#X connect 6 0 9 1;
#X connect 9 0 11 1;
#X connect 9 0 16 0;
#X connect 10 0 11 0;
#X connect 10 0 17 0;
#X connect 11 0 12 0;
#X connect 11 0 18 0;
#X connect 11 0 26 1;
#X connect 13 0 0 0;
#X connect 14 0 6 0;
#X connect 15 0 14 0;
#X connect 15 0 13 0;
#X connect 24 0 26 0;
#X connect 25 0 24 0;
#X connect 25 1 10 0;
#X connect 26 0 27 0;
#X connect 26 0 28 0;
#X connect 26 0 31 0;
#X connect 27 0 21 0;
#X connect 27 0 29 0;
#X connect 31 0 32 0;
#X connect 32 0 30 0;
#X connect 32 0 20 0;
