#N canvas 816 50 664 646 12;
#N canvas 0 22 450 300 (subpatch) 0;
#X array array1 176825 float 2;
#X coords 0 1 176825 -1 200 140 1;
#X restore 315 240 graph;
#X obj 47 100 openpanel;
#X obj 47 76 bng 15 250 50 0 empty empty empty 0 -6 0 8 -262144 -1
-1;
#X obj 47 152 soundfiler;
#X msg 47 126 read -resize \$1 array1;
#X obj 47 179 expr 44100 / $f1;
#X floatatom 47 240 5 0 0 0 - - -;
#X obj 47 292 phasor~;
#X obj 47 332 *~;
#X obj 46 369 tabread4~ array1;
#X obj 48 531 hip~ 5;
#X obj 48 561 dac~;
#X obj 47 265 *;
#X obj 143 215 hsl 128 15 -2 2 0 0 empty empty empty -2 -6 0 8 -262144
-1 -1 7700 1;
#X text 130 232 -2;
#X text 268 233 2;
#X text 40 18 3.4.2.2. Sampler with variable Speed;
#X text 72 73 load sound file;
#X text 182 192 playback speed;
#X text 305 446 slider shows playing position;
#X text 115 528 DC offset filter;
#X text 414 586 www.pd-tutorial.com;
#X text 427 564 Johannes Kreidler;
#X obj 84 208 t b f;
#X floatatom 143 275 5 0 0 0 - - -;
#X connect 1 0 4 0;
#X connect 2 0 1 0;
#X connect 3 0 5 0;
#X connect 3 0 8 1;
#X connect 4 0 3 0;
#X connect 5 0 6 0;
#X connect 6 0 12 0;
#X connect 7 0 8 0;
#X connect 8 0 9 0;
#X connect 9 0 10 0;
#X connect 10 0 11 0;
#X connect 10 0 11 1;
#X connect 12 0 7 0;
#X connect 12 0 24 0;
#X connect 13 0 23 0;
#X connect 23 0 6 0;
#X connect 23 1 12 1;
