#N canvas 369 226 713 621 10;
#X obj 166 284 soundfiler;
#X floatatom 168 334 15 0 0 0 - - -;
#X obj 166 400 tabplay~ drum;
#X obj 93 328 bng 15 250 50 0 empty empty empty 17 7 0 10 -262144 -1
-1;
#X obj 169 449 hip~ 5;
#X obj 174 502 dac~;
#X msg 404 390 \; pd dsp \$1;
#X obj 407 349 tgl 15 0 empty empty empty 17 7 0 10 -262144 -1 -1 0
1;
#X obj 275 403 spigot;
#X obj 318 366 tgl 15 0 empty empty empty 17 7 0 10 -262144 -1 -1 0
1;
#X floatatom 73 229 0 0 0 0 - - -;
#X obj 43 197 notein;
#X floatatom 37 229 0 0 0 0 - - -;
#X floatatom 109 229 0 0 0 0 - - -;
#N canvas 0 22 450 278 (subpatch) 0;
#X array drum 51086 float 0;
#X coords 0 1 51085 -1 200 140 1;
#X restore 271 27 graph;
#X text 44 174 omni;
#X msg 176 240 read -resize \$1 drum;
#X obj 146 46 inlet;
#X obj 329 522 outlet;
#X connect 0 0 1 0;
#X connect 2 0 4 0;
#X connect 2 1 8 0;
#X connect 3 0 2 0;
#X connect 4 0 5 0;
#X connect 4 0 5 1;
#X connect 7 0 6 0;
#X connect 8 0 3 0;
#X connect 9 0 8 1;
#X connect 11 0 12 0;
#X connect 11 1 10 0;
#X connect 11 2 13 0;
#X connect 16 0 0 0;
#X connect 17 0 16 0;
