#N canvas 0 22 1440 852 10;
#X obj 553 659 unpack s s s;
#X floatatom 418 625 5 0 0 0 - - -;
#X obj 375 690 zl slice;
#X floatatom 504 602 5 0 0 0 - - -;
#X floatatom 564 268 0 0 0 0 - - -;
#X floatatom 526 268 0 0 0 0 - - -;
#X floatatom 602 267 0 0 0 0 - - -;
#X obj 526 241 ctlin;
#X obj 607 554 + 15;
#X obj 693 458 t f f f;
#X msg 1015 142 list /Users/clean/Documents/essample/slices/03_All_I_Need_0000.000000.wav
/Users/clean/Documents/essample/slices/03_All_I_Need_0000.277211.wav
/Users/clean/Documents/essample/slices/03_All_I_Need_0000.310091.wav
/Users/clean/Documents/essample/slices/03_All_I_Need_0000.674308.wav
/Users/clean/Documents/essample/slices/03_All_I_Need_0001.073265.wav
/Users/clean/Documents/essample/slices/03_All_I_Need_0001.474150.wav
/Users/clean/Documents/essample/slices/03_All_I_Need_0001.873628.wav
/Users/clean/Documents/essample/slices/03_All_I_Need_0002.273741.wav
/Users/clean/Documents/essample/slices/03_All_I_Need_0002.669252.wav
/Users/clean/Documents/essample/slices/03_All_I_Need_0003.870363.wav
/Users/clean/Documents/essample/slices/03_All_I_Need_0004.270113.wav
/Users/clean/Documents/essample/slices/03_All_I_Need_0004.670816.wav
/Users/clean/Documents/essample/slices/03_All_I_Need_0005.075510.wav
/Users/clean/Documents/essample/slices/03_All_I_Need_0005.347755.wav
/Users/clean/Documents/essample/slices/03_All_I_Need_0005.972426.wav
/Users/clean/Documents/essample/slices/03_All_I_Need_0007.238776.wav
/Users/clean/Documents/essample/slices/03_All_I_Need_0008.503061.wav
/Users/clean/Documents/essample/slices/03_All_I_Need_0009.766531.wav
/Users/clean/Documents/essample/slices/03_All_I_Need_0010.082154.wav
/Users/clean/Documents/essample/slices/03_All_I_Need_0010.389456.wav
/Users/clean/Documents/essample/slices/03_All_I_Need_0010.713810.wav
/Users/clean/Documents/essample/slices/03_All_I_Need_0011.030590.wav
/Users/clean/Documents/essample/slices/03_All_I_Need_0011.346531.wav
/Users/clean/Documents/essample/slices/03_All_I_Need_0011.507052.wav
/Users/clean/Documents/essample/slices/03_All_I_Need_0011.666100.wav
/Users/clean/Documents/essample/slices/03_All_I_Need_0011.842562.wav
/Users/clean/Documents/essample/slices/03_All_I_Need_0011.978163.wav
/Users/clean/Documents/essample/slices/03_All_I_Need_0012.295556.wav
/Users/clean/Documents/essample/slices/03_All_I_Need_0012.612109.wav
/Users/clean/Documents/essample/slices/03_All_I_Need_0012.902812.wav
/Users/clean/Documents/essample/slices/03_All_I_Need_0013.243243.wav
/Users/clean/Documents/essample/slices/03_All_I_Need_0013.538912.wav
/Users/clean/Documents/essample/slices/03_All_I_Need_0013.875601.wav
/Users/clean/Documents/essample/slices/03_All_I_Need_0014.039342.wav
/Users/clean/Documents/essample/slices/03_All_I_Need_0014.196599.wav
/Users/clean/Documents/essample/slices/03_All_I_Need_0014.508639.wav
/Users/clean/Documents/essample/slices/03_All_I_Need_0014.826032.wav
/Users/clean/Documents/essample/slices/03_All_I_Need_0015.140907.wav
/Users/clean/Documents/essample/slices/03_All_I_Need_0015.458390.wav
/Users/clean/Documents/essample/slices/03_All_I_Need_0015.772494.wav
/Users/clean/Documents/essample/slices/03_All_I_Need_0016.070499.wav
/Users/clean/Documents/essample/slices/03_All_I_Need_0016.406145.wav
/Users/clean/Documents/essample/slices/03_All_I_Need_0016.726757.wav
/Users/clean/Documents/essample/slices/03_All_I_Need_0017.040862.wav
/Users/clean/Documents/essample/slices/03_All_I_Need_0017.356848.wav
/Users/clean/Documents/essample/slices/03_All_I_Need_0017.672789.wav
/Users/clean/Documents/essample/slices/03_All_I_Need_0017.979365.wav
/Users/clean/Documents/essample/slices/03_All_I_Need_0018.303107.wav
/Users/clean/Documents/essample/slices/03_All_I_Need_0018.622268.wav
/Users/clean/Documents/essample/slices/03_All_I_Need_0018.938050.wav
/Users/clean/Documents/essample/slices/03_All_I_Need_0019.096100.wav
/Users/clean/Documents/essample/slices/03_All_I_Need_0019.257687.wav
/Users/clean/Documents/essample/slices/03_All_I_Need_0019.569342.wav
/Users/clean/Documents/essample/slices/03_All_I_Need_0019.887324.wav
/Users/clean/Documents/essample/slices/03_All_I_Need_0020.178730.wav
/Users/clean/Documents/essample/slices/03_All_I_Need_0020.511224.wav
/Users/clean/Documents/essample/slices/03_All_I_Need_0020.834014.wav
/Users/clean/Documents/essample/slices/03_All_I_Need_0021.152948.wav
/Users/clean/Documents/essample/slices/03_All_I_Need_0021.469025.wav
/Users/clean/Documents/essample/slices/03_All_I_Need_0021.624989.wav
/Users/clean/Documents/essample/slices/03_All_I_Need_0021.786689.wav
/Users/clean/Documents/essample/slices/03_All_I_Need_0021.960862.wav
/Users/clean/Documents/essample/slices/03_All_I_Need_0022.101995.wav
/Users/clean/Documents/essample/slices/03_All_I_Need_0022.418050.wav
/Users/clean/Documents/essample/slices/03_All_I_Need_0022.706032.wav
/Users/clean/Documents/essample/slices/03_All_I_Need_0023.004580.wav
/Users/clean/Documents/essample/slices/03_All_I_Need_0023.034127.wav
/Users/clean/Documents/essample/slices/03_All_I_Need_0023.684308.wav
/Users/clean/Documents/essample/slices/03_All_I_Need_0024.001088.wav
/Users/clean/Documents/essample/slices/03_All_I_Need_0024.731973.wav
/Users/clean/Documents/essample/slices/03_All_I_Need_0024.861905.wav
/Users/clean/Documents/essample/slices/03_All_I_Need_0024.948821.wav
/Users/clean/Documents/essample/slices/03_All_I_Need_0025.161519.wav
/Users/clean/Documents/essample/slices/03_All_I_Need_0025.233401.wav
/Users/clean/Documents/essample/slices/03_All_I_Need_0025.578526.wav
/Users/clean/Documents/essample/slices/03_All_I_Need_0025.895510.wav
/Users/clean/Documents/essample/slices/03_All_I_Need_0026.192744.wav
/Users/clean/Documents/essample/slices/03_All_I_Need_0026.529116.wav
/Users/clean/Documents/essample/slices/03_All_I_Need_0026.692268.wav
/Users/clean/Documents/essample/slices/03_All_I_Need_0026.848685.wav
/Users/clean/Documents/essample/slices/03_All_I_Need_0027.161587.wav
/Users/clean/Documents/essample/slices/03_All_I_Need_0027.478662.wav
/Users/clean/Documents/essample/slices/03_All_I_Need_0027.795374.wav
/Users/clean/Documents/essample/slices/03_All_I_Need_0027.930839.wav
/Users/clean/Documents/essample/slices/03_All_I_Need_0028.086213.wav
/Users/clean/Documents/essample/slices/03_All_I_Need_0028.388753.wav
/Users/clean/Documents/essample/slices/03_All_I_Need_0028.741905.wav
/Users/clean/Documents/essample/slices/03_All_I_Need_0028.870771.wav
/Users/clean/Documents/essample/slices/03_All_I_Need_0028.986395.wav
/Users/clean/Documents/essample/slices/03_All_I_Need_0029.503855.wav
/Users/clean/Documents/essample/slices/03_All_I_Need_0029.673492.wav
/Users/clean/Documents/essample/slices/03_All_I_Need_0029.775692.wav
/Users/clean/Documents/essample/slices/03_All_I_Need_0030.008503.wav
/Users/clean/Documents/essample/slices/03_All_I_Need_0030.189161.wav
/Users/clean/Documents/essample/slices/03_All_I_Need_0030.323673.wav
/Users/clean/Documents/essample/slices/03_All_I_Need_0030.462517.wav
/Users/clean/Documents/essample/slices/03_All_I_Need_0030.953447.wav
/Users/clean/Documents/essample/slices/03_All_I_Need_0031.271927.wav
/Users/clean/Documents/essample/slices/03_All_I_Need_0031.359070.wav
/Users/clean/Documents/essample/slices/03_All_I_Need_0031.589048.wav
/Users/clean/Documents/essample/slices/03_All_I_Need_0031.749342.wav
/Users/clean/Documents/essample/slices/03_All_I_Need_0031.906621.wav
/Users/clean/Documents/essample/slices/03_All_I_Need_0032.081973.wav
/Users/clean/Documents/essample/slices/03_All_I_Need_0032.221859.wav
/Users/clean/Documents/essample/slices/03_All_I_Need_0032.536848.wav
/Users/clean/Documents/essample/slices/03_All_I_Need_0032.853991.wav
/Users/clean/Documents/essample/slices/03_All_I_Need_0033.129116.wav
/Users/clean/Documents/essample/slices/03_All_I_Need_0033.805374.wav
/Users/clean/Documents/essample/slices/03_All_I_Need_0034.097800.wav
/Users/clean/Documents/essample/slices/03_All_I_Need_0034.889819.wav
/Users/clean/Documents/essample/slices/03_All_I_Need_0035.039093.wav
/Users/clean/Documents/essample/slices/03_All_I_Need_0035.069297.wav
/Users/clean/Documents/essample/slices/03_All_I_Need_0035.165533.wav
/Users/clean/Documents/essample/slices/03_All_I_Need_0035.335057.wav
/Users/clean/Documents/essample/slices/03_All_I_Need_0035.369388.wav
/Users/clean/Documents/essample/slices/03_All_I_Need_0035.449206.wav
/Users/clean/Documents/essample/slices/03_All_I_Need_0035.575964.wav
/Users/clean/Documents/essample/slices/03_All_I_Need_0035.699501.wav
/Users/clean/Documents/essample/slices/03_All_I_Need_0036.015420.wav
/Users/clean/Documents/essample/slices/03_All_I_Need_0036.235261.wav
/Users/clean/Documents/essample/slices/03_All_I_Need_0036.313628.wav
/Users/clean/Documents/essample/slices/03_All_I_Need_0036.649138.wav
/Users/clean/Documents/essample/slices/03_All_I_Need_0036.812336.wav
/Users/clean/Documents/essample/slices/03_All_I_Need_0036.968435.wav
/Users/clean/Documents/essample/slices/03_All_I_Need_0037.282630.wav
/Users/clean/Documents/essample/slices/03_All_I_Need_0037.551701.wav
/Users/clean/Documents/essample/slices/03_All_I_Need_0037.598503.wav
/Users/clean/Documents/essample/slices/03_All_I_Need_0037.886327.wav
/Users/clean/Documents/essample/slices/03_All_I_Need_0038.076871.wav
/Users/clean/Documents/essample/slices/03_All_I_Need_0038.111111.wav
/Users/clean/Documents/essample/slices/03_All_I_Need_0038.863968.wav
/Users/clean/Documents/essample/slices/03_All_I_Need_0040.130907.wav
/Users/clean/Documents/essample/slices/03_All_I_Need_0040.759297.wav
/Users/clean/Documents/essample/slices/03_All_I_Need_0041.078073.wav
/Users/clean/Documents/essample/slices/03_All_I_Need_0041.364717.wav
/Users/clean/Documents/essample/slices/03_All_I_Need_0041.562358.wav
/Users/clean/Documents/essample/slices/03_All_I_Need_0041.710726.wav
/Users/clean/Documents/essample/slices/03_All_I_Need_0042.030068.wav
/Users/clean/Documents/essample/slices/03_All_I_Need_0042.204626.wav
/Users/clean/Documents/essample/slices/03_All_I_Need_0042.343129.wav
/Users/clean/Documents/essample/slices/03_All_I_Need_0042.660703.wav
/Users/clean/Documents/essample/slices/03_All_I_Need_0042.975941.wav
/Users/clean/Documents/essample/slices/03_All_I_Need_0043.261315.wav
/Users/clean/Documents/essample/slices/03_All_I_Need_0043.756780.wav
/Users/clean/Documents/essample/slices/03_All_I_Need_0043.926009.wav
/Users/clean/Documents/essample/slices/03_All_I_Need_0044.561156.wav
/Users/clean/Documents/essample/slices/03_All_I_Need_0044.852245.wav
/Users/clean/Documents/essample/slices/03_All_I_Need_0044.943968.wav
/Users/clean/Documents/essample/slices/03_All_I_Need_0045.618141.wav
/Users/clean/Documents/essample/slices/03_All_I_Need_0045.800635.wav
/Users/clean/Documents/essample/slices/03_All_I_Need_0046.456621.wav
/Users/clean/Documents/essample/slices/03_All_I_Need_0046.726531.wav
/Users/clean/Documents/essample/slices/03_All_I_Need_0047.090045.wav
/Users/clean/Documents/essample/slices/03_All_I_Need_0047.230522.wav
/Users/clean/Documents/essample/slices/03_All_I_Need_0047.402063.wav
/Users/clean/Documents/essample/slices/03_All_I_Need_0047.530862.wav
/Users/clean/Documents/essample/slices/03_All_I_Need_0047.678141.wav
/Users/clean/Documents/essample/slices/03_All_I_Need_0047.719138.wav
/Users/clean/Documents/essample/slices/03_All_I_Need_0048.034739.wav
/Users/clean/Documents/essample/slices/03_All_I_Need_0048.341406.wav
/Users/clean/Documents/essample/slices/03_All_I_Need_0048.987619.wav
/Users/clean/Documents/essample/slices/03_All_I_Need_0049.620113.wav
/Users/clean/Documents/essample/slices/03_All_I_Need_0049.933515.wav
/Users/clean/Documents/essample/slices/03_All_I_Need_0050.032925.wav
/Users/clean/Documents/essample/slices/03_All_I_Need_0050.678934.wav
/Users/clean/Documents/essample/slices/03_All_I_Need_0050.849456.wav
/Users/clean/Documents/essample/slices/03_All_I_Need_0051.347279.wav
/Users/clean/Documents/essample/slices/03_All_I_Need_0051.515533.wav
/Users/clean/Documents/essample/slices/03_All_I_Need_0051.647846.wav
/Users/clean/Documents/essample/slices/03_All_I_Need_0051.790227.wav
/Users/clean/Documents/essample/slices/03_All_I_Need_0052.186281.wav
/Users/clean/Documents/essample/slices/03_All_I_Need_0052.293900.wav
/Users/clean/Documents/essample/slices/03_All_I_Need_0052.440612.wav
/Users/clean/Documents/essample/slices/03_All_I_Need_0052.583991.wav
/Users/clean/Documents/essample/slices/03_All_I_Need_0052.728549.wav
/Users/clean/Documents/essample/slices/03_All_I_Need_0052.778186.wav
/Users/clean/Documents/essample/slices/03_All_I_Need_0053.095306.wav
/Users/clean/Documents/essample/slices/03_All_I_Need_0053.383900.wav
/Users/clean/Documents/essample/slices/03_All_I_Need_0053.861882.wav
/Users/clean/Documents/essample/slices/03_All_I_Need_0054.044671.wav
/Users/clean/Documents/essample/slices/03_All_I_Need_0054.679773.wav
/Users/clean/Documents/essample/slices/03_All_I_Need_0054.970975.wav
/Users/clean/Documents/essample/slices/03_All_I_Need_0055.039161.wav
/Users/clean/Documents/essample/slices/03_All_I_Need_0055.719819.wav
/Users/clean/Documents/essample/slices/03_All_I_Need_0055.941814.wav
/Users/clean/Documents/essample/slices/03_All_I_Need_0056.557596.wav
/Users/clean/Documents/essample/slices/03_All_I_Need_0056.890839.wav
/Users/clean/Documents/essample/slices/03_All_I_Need_0057.054694.wav
/Users/clean/Documents/essample/slices/03_All_I_Need_0057.211587.wav
/Users/clean/Documents/essample/slices/03_All_I_Need_0057.525034.wav
/Users/clean/Documents/essample/slices/03_All_I_Need_0057.841678.wav
/Users/clean/Documents/essample/slices/03_All_I_Need_0058.156667.wav
/Users/clean/Documents/essample/slices/03_All_I_Need_0058.419320.wav
/Users/clean/Documents/essample/slices/03_All_I_Need_0059.106667.wav
/Users/clean/Documents/essample/slices/03_All_I_Need_0060.372834.wav
/Users/clean/Documents/essample/slices/03_All_I_Need_0061.000567.wav
/Users/clean/Documents/essample/slices/03_All_I_Need_0061.318753.wav
/Users/clean/Documents/essample/slices/03_All_I_Need_0061.637619.wav
/Users/clean/Documents/essample/slices/03_All_I_Need_0061.951882.wav
/Users/clean/Documents/essample/slices/03_All_I_Need_0062.112313.wav
/Users/clean/Documents/essample/slices/03_All_I_Need_0062.271927.wav
/Users/clean/Documents/essample/slices/03_All_I_Need_0062.584195.wav
/Users/clean/Documents/essample/slices/03_All_I_Need_0062.902834.wav
/Users/clean/Documents/essample/slices/03_All_I_Need_0063.448277.wav
/Users/clean/Documents/essample/slices/03_All_I_Need_0070.493810.wav
/Users/clean/Documents/essample/slices/03_All_I_Need_0071.760113.wav
/Users/clean/Documents/essample/slices/03_All_I_Need_0072.392653.wav
/Users/clean/Documents/essample/slices/03_All_I_Need_0072.652517.wav
/Users/clean/Documents/essample/slices/03_All_I_Need_0073.021882.wav
/Users/clean/Documents/essample/slices/03_All_I_Need_0074.291814.wav
/Users/clean/Documents/essample/slices/03_All_I_Need_0075.554172.wav
/Users/clean/Documents/essample/slices/03_All_I_Need_0076.190567.wav
/Users/clean/Documents/essample/slices/03_All_I_Need_0076.500204.wav
/Users/clean/Documents/essample/slices/03_All_I_Need_0076.818367.wav
/Users/clean/Documents/essample/slices/03_All_I_Need_0077.133628.wav
/Users/clean/Documents/essample/slices/03_All_I_Need_0078.085737.wav
/Users/clean/Documents/essample/slices/03_All_I_Need_0080.613968.wav
/Users/clean/Documents/essample/slices/03_All_I_Need_0081.248526.wav
/Users/clean/Documents/essample/slices/03_All_I_Need_0081.561746.wav
/Users/clean/Documents/essample/slices/03_All_I_Need_0081.879955.wav
/Users/clean/Documents/essample/slices/03_All_I_Need_0082.194853.wav
/Users/clean/Documents/essample/slices/03_All_I_Need_0082.513537.wav
/Users/clean/Documents/essample/slices/03_All_I_Need_0082.828299.wav
/Users/clean/Documents/essample/slices/03_All_I_Need_0083.145102.wav
/Users/clean/Documents/essample/slices/03_All_I_Need_0083.322676.wav
/Users/clean/Documents/essample/slices/03_All_I_Need_0088.192132.wav
/Users/clean/Documents/essample/slices/03_All_I_Need_0088.327460.wav
/Users/clean/Documents/essample/slices/03_All_I_Need_0088.547438.wav
/Users/clean/Documents/essample/slices/03_All_I_Need_0088.805442.wav
/Users/clean/Documents/essample/slices/03_All_I_Need_0088.864059.wav
/Users/clean/Documents/essample/slices/03_All_I_Need_0089.430612.wav
/Users/clean/Documents/essample/slices/03_All_I_Need_0089.790136.wav
/Users/clean/Documents/essample/slices/03_All_I_Need_0090.533311.wav
/Users/clean/Documents/essample/slices/03_All_I_Need_0090.608050.wav
/Users/clean/Documents/essample/slices/03_All_I_Need_0090.777347.wav
/Users/clean/Documents/essample/slices/03_All_I_Need_0090.818639.wav
/Users/clean/Documents/essample/slices/03_All_I_Need_0090.857868.wav
/Users/clean/Documents/essample/slices/03_All_I_Need_0091.025624.wav
/Users/clean/Documents/essample/slices/03_All_I_Need_0092.030975.wav
/Users/clean/Documents/essample/slices/03_All_I_Need_0093.613424.wav
/Users/clean/Documents/essample/slices/03_All_I_Need_0093.684943.wav
/Users/clean/Documents/essample/slices/03_All_I_Need_0093.844218.wav
/Users/clean/Documents/essample/slices/03_All_I_Need_0094.161859.wav
/Users/clean/Documents/essample/slices/03_All_I_Need_0094.647506.wav
/Users/clean/Documents/essample/slices/03_All_I_Need_0094.751973.wav
/Users/clean/Documents/essample/slices/03_All_I_Need_0095.315215.wav
/Users/clean/Documents/essample/slices/03_All_I_Need_0095.468912.wav
/Users/clean/Documents/essample/slices/03_All_I_Need_0095.571927.wav
/Users/clean/Documents/essample/slices/03_All_I_Need_0095.641338.wav
/Users/clean/Documents/essample/slices/03_All_I_Need_0095.810000.wav
/Users/clean/Documents/essample/slices/03_All_I_Need_0096.059728.wav
/Users/clean/Documents/essample/slices/03_All_I_Need_0096.356100.wav
/Users/clean/Documents/essample/slices/03_All_I_Need_0097.284127.wav
/Users/clean/Documents/essample/slices/03_All_I_Need_0098.949206.wav
/Users/clean/Documents/essample/slices/03_All_I_Need_0099.920635.wav
/Users/clean/Documents/essample/slices/03_All_I_Need_0100.653220.wav
/Users/clean/Documents/essample/slices/03_All_I_Need_0100.803673.wav
/Users/clean/Documents/essample/slices/03_All_I_Need_0100.848594.wav
/Users/clean/Documents/essample/slices/03_All_I_Need_0100.953469.wav
/Users/clean/Documents/essample/slices/03_All_I_Need_0101.013832.wav
/Users/clean/Documents/essample/slices/03_All_I_Need_0101.129705.wav
/Users/clean/Documents/essample/slices/03_All_I_Need_0101.185374.wav
/Users/clean/Documents/essample/slices/03_All_I_Need_0101.303220.wav
/Users/clean/Documents/essample/slices/03_All_I_Need_0101.953492.wav
/Users/clean/Documents/essample/slices/03_All_I_Need_0102.122766.wav
/Users/clean/Documents/essample/slices/03_All_I_Need_0103.069433.wav
/Users/clean/Documents/essample/slices/03_All_I_Need_0103.387438.wav
/Users/clean/Documents/essample/slices/03_All_I_Need_0103.866984.wav
/Users/clean/Documents/essample/slices/03_All_I_Need_0104.653605.wav
/Users/clean/Documents/essample/slices/03_All_I_Need_0105.600181.wav
/Users/clean/Documents/essample/slices/03_All_I_Need_0105.918118.wav
/Users/clean/Documents/essample/slices/03_All_I_Need_0106.229569.wav
/Users/clean/Documents/essample/slices/03_All_I_Need_0106.865941.wav
/Users/clean/Documents/essample/slices/03_All_I_Need_0107.183447.wav
/Users/clean/Documents/essample/slices/03_All_I_Need_0107.498186.wav
/Users/clean/Documents/essample/slices/03_All_I_Need_0107.656054.wav
/Users/clean/Documents/essample/slices/03_All_I_Need_0107.816100.wav
/Users/clean/Documents/essample/slices/03_All_I_Need_0107.990227.wav
/Users/clean/Documents/essample/slices/03_All_I_Need_0108.130000.wav
/Users/clean/Documents/essample/slices/03_All_I_Need_0108.448526.wav
/Users/clean/Documents/essample/slices/03_All_I_Need_0108.762540.wav
/Users/clean/Documents/essample/slices/03_All_I_Need_0109.050726.wav
/Users/clean/Documents/essample/slices/03_All_I_Need_0109.544467.wav
/Users/clean/Documents/essample/slices/03_All_I_Need_0109.713061.wav
/Users/clean/Documents/essample/slices/03_All_I_Need_0110.347075.wav
/Users/clean/Documents/essample/slices/03_All_I_Need_0110.634898.wav
/Users/clean/Documents/essample/slices/03_All_I_Need_0110.722200.wav
/Users/clean/Documents/essample/slices/03_All_I_Need_0110.978980.wav
/Users/clean/Documents/essample/slices/03_All_I_Need_0111.075828.wav
/Users/clean/Documents/essample/slices/03_All_I_Need_0111.393424.wav
/Users/clean/Documents/essample/slices/03_All_I_Need_0111.549025.wav
/Users/clean/Documents/essample/slices/03_All_I_Need_0111.582789.wav
/Users/clean/Documents/essample/slices/03_All_I_Need_0112.244331.wav
/Users/clean/Documents/essample/slices/03_All_I_Need_0113.031338.wav
/Users/clean/Documents/essample/slices/03_All_I_Need_0113.186349.wav
/Users/clean/Documents/essample/slices/03_All_I_Need_0113.323469.wav
/Users/clean/Documents/essample/slices/03_All_I_Need_0113.485329.wav
/Users/clean/Documents/essample/slices/03_All_I_Need_0114.128866.wav
/Users/clean/Documents/essample/slices/03_All_I_Need_0114.614785.wav
/Users/clean/Documents/essample/slices/03_All_I_Need_0115.407914.wav
/Users/clean/Documents/essample/slices/03_All_I_Need_0115.708209.wav
/Users/clean/Documents/essample/slices/03_All_I_Need_0115.797755.wav
/Users/clean/Documents/essample/slices/03_All_I_Need_0116.039773.wav
/Users/clean/Documents/essample/slices/03_All_I_Need_0116.480000.wav
/Users/clean/Documents/essample/slices/03_All_I_Need_0116.639546.wav
/Users/clean/Documents/essample/slices/03_All_I_Need_0117.301927.wav
/Users/clean/Documents/essample/slices/03_All_I_Need_0117.423129.wav
/Users/clean/Documents/essample/slices/03_All_I_Need_0117.577075.wav
/Users/clean/Documents/essample/slices/03_All_I_Need_0118.067370.wav
/Users/clean/Documents/essample/slices/03_All_I_Need_0118.249410.wav
/Users/clean/Documents/essample/slices/03_All_I_Need_0118.394150.wav
/Users/clean/Documents/essample/slices/03_All_I_Need_0118.562449.wav
/Users/clean/Documents/essample/slices/03_All_I_Need_0119.171020.wav
/Users/clean/Documents/essample/slices/03_All_I_Need_0119.656054.wav
/Users/clean/Documents/essample/slices/03_All_I_Need_0119.831224.wav
/Users/clean/Documents/essample/slices/03_All_I_Need_0120.466735.wav
/Users/clean/Documents/essample/slices/03_All_I_Need_0120.773492.wav
/Users/clean/Documents/essample/slices/03_All_I_Need_0120.832857.wav
/Users/clean/Documents/essample/slices/03_All_I_Need_0121.101859.wav
/Users/clean/Documents/essample/slices/03_All_I_Need_0121.516599.wav
/Users/clean/Documents/essample/slices/03_All_I_Need_0121.730317.wav
/Users/clean/Documents/essample/slices/03_All_I_Need_0122.363469.wav
/Users/clean/Documents/essample/slices/03_All_I_Need_0123.312971.wav
/Users/clean/Documents/essample/slices/03_All_I_Need_0123.628821.wav
/Users/clean/Documents/essample/slices/03_All_I_Need_0124.252902.wav
/Users/clean/Documents/essample/slices/03_All_I_Need_0124.894512.wav
/Users/clean/Documents/essample/slices/03_All_I_Need_0126.160317.wav
/Users/clean/Documents/essample/slices/03_All_I_Need_0126.473696.wav
/Users/clean/Documents/essample/slices/03_All_I_Need_0127.108141.wav
/Users/clean/Documents/essample/slices/03_All_I_Need_0127.426190.wav
/Users/clean/Documents/essample/slices/03_All_I_Need_0128.059615.wav
/Users/clean/Documents/essample/slices/03_All_I_Need_0128.372472.wav
/Users/clean/Documents/essample/slices/03_All_I_Need_0128.691270.wav
/Users/clean/Documents/essample/slices/03_All_I_Need_0136.283401.wav
/Users/clean/Documents/essample/slices/03_All_I_Need_0136.578549.wav
/Users/clean/Documents/essample/slices/03_All_I_Need_0137.546372.wav
/Users/clean/Documents/essample/slices/03_All_I_Need_0137.860544.wav
/Users/clean/Documents/essample/slices/03_All_I_Need_0138.180091.wav
/Users/clean/Documents/essample/slices/03_All_I_Need_0138.811066.wav
/Users/clean/Documents/essample/slices/03_All_I_Need_0141.340249.wav
/Users/clean/Documents/essample/slices/03_All_I_Need_0141.654671.wav
/Users/clean/Documents/essample/slices/03_All_I_Need_0142.606145.wav
/Users/clean/Documents/essample/slices/03_All_I_Need_0143.869478.wav
/Users/clean/Documents/essample/slices/03_All_I_Need_0146.401474.wav
/Users/clean/Documents/essample/slices/03_All_I_Need_0146.709637.wav
/Users/clean/Documents/essample/slices/03_All_I_Need_0147.668571.wav
/Users/clean/Documents/essample/slices/03_All_I_Need_0147.979887.wav
/Users/clean/Documents/essample/slices/03_All_I_Need_0148.303333.wav
/Users/clean/Documents/essample/slices/03_All_I_Need_0148.932880.wav
/Users/clean/Documents/essample/slices/03_All_I_Need_0149.246689.wav
/Users/clean/Documents/essample/slices/03_All_I_Need_0154.208662.wav
/Users/clean/Documents/essample/slices/03_All_I_Need_0154.649887.wav
/Users/clean/Documents/essample/slices/03_All_I_Need_0159.524807.wav
/Users/clean/Documents/essample/slices/03_All_I_Need_0159.633855.wav
/Users/clean/Documents/essample/slices/03_All_I_Need_0162.199116.wav
/Users/clean/Documents/essample/slices/03_All_I_Need_0162.818889.wav
/Users/clean/Documents/essample/slices/03_All_I_Need_0164.099297.wav
/Users/clean/Documents/essample/slices/03_All_I_Need_0168.859070.wav
/Users/clean/Documents/essample/slices/03_All_I_Need_0177.404127.wav
/Users/clean/Documents/essample/slices/03_All_I_Need_0178.029478.wav
/Users/clean/Documents/essample/slices/03_All_I_Need_0179.295193.wav
/Users/clean/Documents/essample/slices/03_All_I_Need_0180.563129.wav
/Users/clean/Documents/essample/slices/03_All_I_Need_0181.193356.wav
/Users/clean/Documents/essample/slices/03_All_I_Need_0181.825850.wav
/Users/clean/Documents/essample/slices/03_All_I_Need_0183.091043.wav
/Users/clean/Documents/essample/slices/03_All_I_Need_0183.404898.wav
/Users/clean/Documents/essample/slices/03_All_I_Need_0184.356213.wav
/Users/clean/Documents/essample/slices/03_All_I_Need_0184.990930.wav
/Users/clean/Documents/essample/slices/03_All_I_Need_0185.300907.wav
/Users/clean/Documents/essample/slices/03_All_I_Need_0185.621633.wav
/Users/clean/Documents/essample/slices/03_All_I_Need_0185.935147.wav
/Users/clean/Documents/essample/slices/03_All_I_Need_0186.256939.wav
/Users/clean/Documents/essample/slices/03_All_I_Need_0186.567778.wav
/Users/clean/Documents/essample/slices/03_All_I_Need_0186.886100.wav
/Users/clean/Documents/essample/slices/03_All_I_Need_0187.199683.wav
/Users/clean/Documents/essample/slices/03_All_I_Need_0188.152562.wav
/Users/clean/Documents/essample/slices/03_All_I_Need_0188.786599.wav
/Users/clean/Documents/essample/slices/03_All_I_Need_0189.415510.wav
/Users/clean/Documents/essample/slices/03_All_I_Need_0190.681474.wav
/Users/clean/Documents/essample/slices/03_All_I_Need_0190.994989.wav
/Users/clean/Documents/essample/slices/03_All_I_Need_0191.946961.wav
/Users/clean/Documents/essample/slices/03_All_I_Need_0193.212449.wav
/Users/clean/Documents/essample/slices/03_All_I_Need_0194.477211.wav
/Users/clean/Documents/essample/slices/03_All_I_Need_0195.423288.wav
/Users/clean/Documents/essample/slices/03_All_I_Need_0195.743039.wav
/Users/clean/Documents/essample/slices/03_All_I_Need_0196.055941.wav
/Users/clean/Documents/essample/slices/03_All_I_Need_0197.008050.wav
/Users/clean/Documents/essample/slices/03_All_I_Need_0197.641270.wav
/Users/clean/Documents/essample/slices/03_All_I_Need_0197.955351.wav
/Users/clean/Documents/essample/slices/03_All_I_Need_0198.273424.wav
/Users/clean/Documents/essample/slices/03_All_I_Need_0198.586417.wav
/Users/clean/Documents/essample/slices/03_All_I_Need_0198.906689.wav
/Users/clean/Documents/essample/slices/03_All_I_Need_0199.218821.wav
/Users/clean/Documents/essample/slices/03_All_I_Need_0199.537324.wav
/Users/clean/Documents/essample/slices/03_All_I_Need_0199.852290.wav
/Users/clean/Documents/essample/slices/03_All_I_Need_0200.169977.wav
/Users/clean/Documents/essample/slices/03_All_I_Need_0200.485624.wav
/Users/clean/Documents/essample/slices/03_All_I_Need_0200.801701.wav
/Users/clean/Documents/essample/slices/03_All_I_Need_0201.118209.wav
/Users/clean/Documents/essample/slices/03_All_I_Need_0201.435601.wav
/Users/clean/Documents/essample/slices/03_All_I_Need_0201.750658.wav
/Users/clean/Documents/essample/slices/03_All_I_Need_0202.068594.wav
/Users/clean/Documents/essample/slices/03_All_I_Need_0202.699796.wav
/Users/clean/Documents/essample/slices/03_All_I_Need_0203.333356.wav
/Users/clean/Documents/essample/slices/03_All_I_Need_0204.598889.wav
/Users/clean/Documents/essample/slices/03_All_I_Need_0205.863333.wav
/Users/clean/Documents/essample/slices/03_All_I_Need_0207.127846.wav
/Users/clean/Documents/essample/slices/03_All_I_Need_0207.762517.wav
/Users/clean/Documents/essample/slices/03_All_I_Need_0208.393696.wav
/Users/clean/Documents/essample/slices/03_All_I_Need_0209.029433.wav
/Users/clean/Documents/essample/slices/03_All_I_Need_0209.658844.wav
/Users/clean/Documents/essample/slices/03_All_I_Need_0210.924739.wav
/Users/clean/Documents/essample/slices/03_All_I_Need_0212.189093.wav
/Users/clean/Documents/essample/slices/03_All_I_Need_0212.692789.wav
/Users/clean/Documents/essample/slices/03_All_I_Need_0212.818844.wav
/Users/clean/Documents/essample/slices/03_All_I_Need_0213.455556.wav
/Users/clean/Documents/essample/slices/03_All_I_Need_0214.721202.wav
/Users/clean/Documents/essample/slices/03_All_I_Need_0215.986145.wav
/Users/clean/Documents/essample/slices/03_All_I_Need_0217.248639.wav
/Users/clean/Documents/essample/slices/03_All_I_Need_0217.881088.wav
/Users/clean/Documents/essample/slices/03_All_I_Need_0218.513583.wav
/Users/clean/Documents/essample/slices/03_All_I_Need_0219.148980.wav
/Users/clean/Documents/essample/slices/03_All_I_Need_0219.779116.wav
/Users/clean/Documents/essample/slices/03_All_I_Need_0221.045465.wav
/Users/clean/Documents/essample/slices/03_All_I_Need_0222.309796.wav
/Users/clean/Documents/essample/slices/03_All_I_Need_0224.516009.wav
/Users/clean/Documents/essample/slices/03_All_I_Need_0224.840658.wav
/Users/clean/Documents/essample/slices/03_All_I_Need_0225.153696.wav
/Users/clean/Documents/essample/slices/03_All_I_Need_0226.104376.wav
/Users/clean/Documents/essample/slices/03_All_I_Need_0227.369138.wav
/Users/clean/Documents/essample/slices/03_All_I_Need_0228.635805.wav
/Users/clean/Documents/essample/slices/03_All_I_Need_0229.573492.wav
/Users/clean/Documents/essample/slices/03_All_I_Need_0229.902086.wav
/Users/clean/Documents/essample/slices/03_All_I_Need_0230.208776.wav
/Users/clean/Documents/essample/slices/03_All_I_Need_0231.165465.wav
/Users/clean/Documents/essample/slices/03_All_I_Need_0232.429955.wav
/Users/clean/Documents/essample/slices/03_All_I_Need_0233.696304.wav
/Users/clean/Documents/essample/slices/03_All_I_Need_0234.299501.wav
/Users/clean/Documents/essample/slices/03_All_I_Need_0234.963197.wav
/Users/clean/Documents/essample/slices/03_All_I_Need_0236.227982.wav
/Users/clean/Documents/essample/slices/03_All_I_Need_0236.860680.wav
/Users/clean/Documents/essample/slices/03_All_I_Need_0237.173447.wav
/Users/clean/Documents/essample/slices/03_All_I_Need_0237.493039.wav
/Users/clean/Documents/essample/slices/03_All_I_Need_0239.703129.wav
/Users/clean/Documents/essample/slices/03_All_I_Need_0240.023401.wav
/Users/clean/Documents/essample/slices/03_All_I_Need_0240.332540.wav
/Users/clean/Documents/essample/slices/03_All_I_Need_0241.285737.wav
/Users/clean/Documents/essample/slices/03_All_I_Need_0242.554649.wav
/Users/clean/Documents/essample/slices/03_All_I_Need_0243.056735.wav
/Users/clean/Documents/essample/slices/03_All_I_Need_0243.185873.wav
/Users/clean/Documents/essample/slices/03_All_I_Need_0243.817891.wav
/Users/clean/Documents/essample/slices/03_All_I_Need_0244.442290.wav
/Users/clean/Documents/essample/slices/03_All_I_Need_0244.754989.wav
/Users/clean/Documents/essample/slices/03_All_I_Need_0245.082018.wav
/Users/clean/Documents/essample/slices/03_All_I_Need_0245.390454.wav
/Users/clean/Documents/essample/slices/03_All_I_Need_0246.347506.wav
/Users/clean/Documents/essample/slices/03_All_I_Need_0247.614830.wav
/Users/clean/Documents/essample/slices/03_All_I_Need_0249.496576.wav
/Users/clean/Documents/essample/slices/03_All_I_Need_0249.826485.wav
/Users/clean/Documents/essample/slices/03_All_I_Need_0251.410612.wav
/Users/clean/Documents/essample/slices/03_All_I_Need_0252.673605.wav
/Users/clean/Documents/essample/slices/03_All_I_Need_0253.178934.wav
/Users/clean/Documents/essample/slices/03_All_I_Need_0253.308118.wav
/Users/clean/Documents/essample/slices/03_All_I_Need_0253.937052.wav
/Users/clean/Documents/essample/slices/03_All_I_Need_0254.544739.wav
/Users/clean/Documents/essample/slices/03_All_I_Need_0254.861247.wav
/Users/clean/Documents/essample/slices/03_All_I_Need_0255.203764.wav
/Users/clean/Documents/essample/slices/03_All_I_Need_0257.735692.wav
/Users/clean/Documents/essample/slices/03_All_I_Need_0259.000068.wav
/Users/clean/Documents/essample/slices/03_All_I_Need_0259.304853.wav
/Users/clean/Documents/essample/slices/03_All_I_Need_0259.601270.wav
/Users/clean/Documents/essample/slices/03_All_I_Need_0259.918322.wav
/Users/clean/Documents/essample/slices/03_All_I_Need_0260.265374.wav
/Users/clean/Documents/essample/slices/03_All_I_Need_0260.552766.wav
/Users/clean/Documents/essample/slices/03_All_I_Need_0261.530476.wav
/Users/clean/Documents/essample/slices/03_All_I_Need_0262.795283.wav
/Users/clean/Documents/essample/slices/03_All_I_Need_0263.300408.wav
/Users/clean/Documents/essample/slices/03_All_I_Need_0263.429093.wav
/Users/clean/Documents/essample/slices/03_All_I_Need_0264.060544.wav
/Users/clean/Documents/essample/slices/03_All_I_Need_0264.681519.wav
/Users/clean/Documents/essample/slices/03_All_I_Need_0264.993537.wav
/Users/clean/Documents/essample/slices/03_All_I_Need_0265.325669.wav
/Users/clean/Documents/essample/slices/03_All_I_Need_0265.610454.wav
;
#X obj 575 768 abstract_test;
#X msg 654 679 36;
#X msg 828 747 37;
#X obj 768 793 abstract_test;
#X obj 353 653 zl slice;
#X connect 0 0 11 1;
#X connect 1 0 15 1;
#X connect 2 0 0 0;
#X connect 3 0 2 1;
#X connect 5 0 9 0;
#X connect 7 0 5 0;
#X connect 7 1 4 0;
#X connect 7 2 6 0;
#X connect 8 0 3 0;
#X connect 9 0 12 0;
#X connect 9 1 1 0;
#X connect 9 2 8 0;
#X connect 10 0 15 0;
#X connect 12 0 11 0;
#X connect 13 0 14 1;
#X connect 15 1 2 0;
