#N canvas 0 22 1440 852 10;
#X floatatom 418 625 5 0 0 0 - - -;
#X obj 375 690 zl slice;
#X floatatom 564 268 0 0 0 0 - - -;
#X floatatom 526 268 0 0 0 0 - - -;
#X floatatom 602 267 0 0 0 0 - - -;
#X obj 526 241 ctlin;
#X msg 588 754 36;
#X msg 638 778 37;
#X obj 353 653 zl slice;
#X obj 521 784 abstract_test;
#X obj 404 749 print;
#X msg 1015 142 list /Users/clean/Documents/essample/slices/03_All_I_Need_0000.000000.wav
/Users/clean/Documents/essample/slices/03_All_I_Need_0000.277211.wav
/Users/clean/Documents/essample/slices/03_All_I_Need_0000.310091.wav
/Users/clean/Documents/essample/slices/03_All_I_Need_0000.674308.wav
/Users/clean/Documents/essample/slices/03_All_I_Need_0001.073265.wav
/Users/clean/Documents/essample/slices/03_All_I_Need_0001.474150.wav
/Users/clean/Documents/essample/slices/03_All_I_Need_0001.873628.wav
/Users/clean/Documents/essample/slices/03_All_I_Need_0002.273741.wav
/Users/clean/Documents/essample/slices/03_All_I_Need_0002.669252.wav
/Users/clean/Documents/essample/slices/03_All_I_Need_0003.870363.wav
/Users/clean/Documents/essample/slices/03_All_I_Need_0004.270113.wav
/Users/clean/Documents/essample/slices/03_All_I_Need_0004.670816.wav
/Users/clean/Documents/essample/slices/03_All_I_Need_0005.075510.wav
/Users/clean/Documents/essample/slices/03_All_I_Need_0005.347755.wav
/Users/clean/Documents/essample/slices/03_All_I_Need_0005.972426.wav
/Users/clean/Documents/essample/slices/03_All_I_Need_0007.238776.wav
/Users/clean/Documents/essample/slices/03_All_I_Need_0008.503061.wav
/Users/clean/Documents/essample/slices/03_All_I_Need_0009.766531.wav
/Users/clean/Documents/essample/slices/03_All_I_Need_0010.082154.wav
/Users/clean/Documents/essample/slices/03_All_I_Need_0010.389456.wav
/Users/clean/Documents/essample/slices/03_All_I_Need_0010.713810.wav
/Users/clean/Documents/essample/slices/03_All_I_Need_0011.030590.wav
/Users/clean/Documents/essample/slices/03_All_I_Need_0011.346531.wav
/Users/clean/Documents/essample/slices/03_All_I_Need_0011.507052.wav
/Users/clean/Documents/essample/slices/03_All_I_Need_0011.666100.wav
/Users/clean/Documents/essample/slices/03_All_I_Need_0011.842562.wav
/Users/clean/Documents/essample/slices/03_All_I_Need_0011.978163.wav
/Users/clean/Documents/essample/slices/03_All_I_Need_0012.295556.wav
/Users/clean/Documents/essample/slices/03_All_I_Need_0012.612109.wav
/Users/clean/Documents/essample/slices/03_All_I_Need_0012.902812.wav
/Users/clean/Documents/essample/slices/03_All_I_Need_0013.243243.wav
/Users/clean/Documents/essample/slices/03_All_I_Need_0013.538912.wav
/Users/clean/Documents/essample/slices/03_All_I_Need_0013.875601.wav
/Users/clean/Documents/essample/slices/03_All_I_Need_0014.039342.wav
/Users/clean/Documents/essample/slices/03_All_I_Need_0014.196599.wav
/Users/clean/Documents/essample/slices/03_All_I_Need_0014.508639.wav
/Users/clean/Documents/essample/slices/03_All_I_Need_0014.826032.wav
/Users/clean/Documents/essample/slices/03_All_I_Need_0015.140907.wav
/Users/clean/Documents/essample/slices/03_All_I_Need_0015.458390.wav
/Users/clean/Documents/essample/slices/03_All_I_Need_0015.772494.wav
/Users/clean/Documents/essample/slices/03_All_I_Need_0016.070499.wav
/Users/clean/Documents/essample/slices/03_All_I_Need_0016.406145.wav
/Users/clean/Documents/essample/slices/03_All_I_Need_0016.726757.wav
/Users/clean/Documents/essample/slices/03_All_I_Need_0017.040862.wav
/Users/clean/Documents/essample/slices/03_All_I_Need_0017.356848.wav
/Users/clean/Documents/essample/slices/03_All_I_Need_0017.672789.wav
/Users/clean/Documents/essample/slices/03_All_I_Need_0017.979365.wav
/Users/clean/Documents/essample/slices/03_All_I_Need_0018.303107.wav
/Users/clean/Documents/essample/slices/03_All_I_Need_0018.622268.wav
/Users/clean/Documents/essample/slices/03_All_I_Need_0018.938050.wav
/Users/clean/Documents/essample/slices/03_All_I_Need_0019.096100.wav
/Users/clean/Documents/essample/slices/03_All_I_Need_0019.257687.wav
/Users/clean/Documents/essample/slices/03_All_I_Need_0019.569342.wav
/Users/clean/Documents/essample/slices/03_All_I_Need_0019.887324.wav
/Users/clean/Documents/essample/slices/03_All_I_Need_0020.178730.wav
/Users/clean/Documents/essample/slices/03_All_I_Need_0020.511224.wav
/Users/clean/Documents/essample/slices/03_All_I_Need_0020.834014.wav
/Users/clean/Documents/essample/slices/03_All_I_Need_0021.152948.wav
/Users/clean/Documents/essample/slices/03_All_I_Need_0021.469025.wav
/Users/clean/Documents/essample/slices/03_All_I_Need_0021.624989.wav
/Users/clean/Documents/essample/slices/03_All_I_Need_0021.786689.wav
/Users/clean/Documents/essample/slices/03_All_I_Need_0021.960862.wav
/Users/clean/Documents/essample/slices/03_All_I_Need_0022.101995.wav
/Users/clean/Documents/essample/slices/03_All_I_Need_0022.418050.wav
/Users/clean/Documents/essample/slices/03_All_I_Need_0022.706032.wav
/Users/clean/Documents/essample/slices/03_All_I_Need_0023.004580.wav
/Users/clean/Documents/essample/slices/03_All_I_Need_0023.034127.wav
/Users/clean/Documents/essample/slices/03_All_I_Need_0023.684308.wav
/Users/clean/Documents/essample/slices/03_All_I_Need_0024.001088.wav
/Users/clean/Documents/essample/slices/03_All_I_Need_0024.731973.wav
/Users/clean/Documents/essample/slices/03_All_I_Need_0024.861905.wav
/Users/clean/Documents/essample/slices/03_All_I_Need_0024.948821.wav
/Users/clean/Documents/essample/slices/03_All_I_Need_0025.161519.wav
/Users/clean/Documents/essample/slices/03_All_I_Need_0025.233401.wav
/Users/clean/Documents/essample/slices/03_All_I_Need_0025.578526.wav
/Users/clean/Documents/essample/slices/03_All_I_Need_0025.895510.wav
/Users/clean/Documents/essample/slices/03_All_I_Need_0026.192744.wav
/Users/clean/Documents/essample/slices/03_All_I_Need_0026.529116.wav
/Users/clean/Documents/essample/slices/03_All_I_Need_0026.692268.wav
/Users/clean/Documents/essample/slices/03_All_I_Need_0026.848685.wav
/Users/clean/Documents/essample/slices/03_All_I_Need_0027.161587.wav
/Users/clean/Documents/essample/slices/03_All_I_Need_0027.478662.wav
/Users/clean/Documents/essample/slices/03_All_I_Need_0027.795374.wav
/Users/clean/Documents/essample/slices/03_All_I_Need_0027.930839.wav
/Users/clean/Documents/essample/slices/03_All_I_Need_0028.086213.wav
/Users/clean/Documents/essample/slices/03_All_I_Need_0028.388753.wav
/Users/clean/Documents/essample/slices/03_All_I_Need_0028.741905.wav
/Users/clean/Documents/essample/slices/03_All_I_Need_0028.870771.wav
/Users/clean/Documents/essample/slices/03_All_I_Need_0028.986395.wav
/Users/clean/Documents/essample/slices/03_All_I_Need_0029.503855.wav
/Users/clean/Documents/essample/slices/03_All_I_Need_0029.673492.wav
/Users/clean/Documents/essample/slices/03_All_I_Need_0029.775692.wav
/Users/clean/Documents/essample/slices/03_All_I_Need_0030.008503.wav
/Users/clean/Documents/essample/slices/03_All_I_Need_0030.189161.wav
/Users/clean/Documents/essample/slices/03_All_I_Need_0030.323673.wav
/Users/clean/Documents/essample/slices/03_All_I_Need_0030.462517.wav
/Users/clean/Documents/essample/slices/03_All_I_Need_0030.953447.wav
/Users/clean/Documents/essample/slices/03_All_I_Need_0031.271927.wav
/Users/clean/Documents/essample/slices/03_All_I_Need_0031.359070.wav
/Users/clean/Documents/essample/slices/03_All_I_Need_0031.589048.wav
/Users/clean/Documents/essample/slices/03_All_I_Need_0031.749342.wav
/Users/clean/Documents/essample/slices/03_All_I_Need_0031.906621.wav
/Users/clean/Documents/essample/slices/03_All_I_Need_0032.081973.wav
/Users/clean/Documents/essample/slices/03_All_I_Need_0032.221859.wav
/Users/clean/Documents/essample/slices/03_All_I_Need_0032.536848.wav
/Users/clean/Documents/essample/slices/03_All_I_Need_0032.853991.wav
/Users/clean/Documents/essample/slices/03_All_I_Need_0033.129116.wav
/Users/clean/Documents/essample/slices/03_All_I_Need_0033.805374.wav
/Users/clean/Documents/essample/slices/03_All_I_Need_0034.097800.wav
/Users/clean/Documents/essample/slices/03_All_I_Need_0034.889819.wav
/Users/clean/Documents/essample/slices/03_All_I_Need_0035.039093.wav
/Users/clean/Documents/essample/slices/03_All_I_Need_0035.069297.wav
/Users/clean/Documents/essample/slices/03_All_I_Need_0035.165533.wav
/Users/clean/Documents/essample/slices/03_All_I_Need_0035.335057.wav
/Users/clean/Documents/essample/slices/03_All_I_Need_0035.369388.wav
/Users/clean/Documents/essample/slices/03_All_I_Need_0035.449206.wav
/Users/clean/Documents/essample/slices/03_All_I_Need_0035.575964.wav
/Users/clean/Documents/essample/slices/03_All_I_Need_0035.699501.wav
/Users/clean/Documents/essample/slices/03_All_I_Need_0036.015420.wav
/Users/clean/Documents/essample/slices/03_All_I_Need_0036.235261.wav
/Users/clean/Documents/essample/slices/03_All_I_Need_0036.313628.wav
/Users/clean/Documents/essample/slices/03_All_I_Need_0036.649138.wav
/Users/clean/Documents/essample/slices/03_All_I_Need_0036.812336.wav
/Users/clean/Documents/essample/slices/03_All_I_Need_0036.968435.wav
/Users/clean/Documents/essample/slices/03_All_I_Need_0037.282630.wav
/Users/clean/Documents/essample/slices/03_All_I_Need_0037.551701.wav
/Users/clean/Documents/essample/slices/03_All_I_Need_0037.598503.wav
/Users/clean/Documents/essample/slices/03_All_I_Need_0037.886327.wav
/Users/clean/Documents/essample/slices/03_All_I_Need_0038.076871.wav
/Users/clean/Documents/essample/slices/03_All_I_Need_0038.111111.wav
/Users/clean/Documents/essample/slices/03_All_I_Need_0038.863968.wav
/Users/clean/Documents/essample/slices/03_All_I_Need_0040.130907.wav
/Users/clean/Documents/essample/slices/03_All_I_Need_0040.759297.wav
/Users/clean/Documents/essample/slices/03_All_I_Need_0041.078073.wav
/Users/clean/Documents/essample/slices/03_All_I_Need_0041.364717.wav
/Users/clean/Documents/essample/slices/03_All_I_Need_0041.562358.wav
/Users/clean/Documents/essample/slices/03_All_I_Need_0041.710726.wav
/Users/clean/Documents/essample/slices/03_All_I_Need_0042.030068.wav
/Users/clean/Documents/essample/slices/03_All_I_Need_0042.204626.wav
/Users/clean/Documents/essample/slices/03_All_I_Need_0042.343129.wav
/Users/clean/Documents/essample/slices/03_All_I_Need_0042.660703.wav
/Users/clean/Documents/essample/slices/03_All_I_Need_0042.975941.wav
/Users/clean/Documents/essample/slices/03_All_I_Need_0043.261315.wav
/Users/clean/Documents/essample/slices/03_All_I_Need_0043.756780.wav
/Users/clean/Documents/essample/slices/03_All_I_Need_0043.926009.wav
/Users/clean/Documents/essample/slices/03_All_I_Need_0044.561156.wav
/Users/clean/Documents/essample/slices/03_All_I_Need_0044.852245.wav
/Users/clean/Documents/essample/slices/03_All_I_Need_0044.943968.wav
/Users/clean/Documents/essample/slices/03_All_I_Need_0045.618141.wav
/Users/clean/Documents/essample/slices/03_All_I_Need_0045.800635.wav
/Users/clean/Documents/essample/slices/03_All_I_Need_0046.456621.wav
/Users/clean/Documents/essample/slices/03_All_I_Need_0046.726531.wav
/Users/clean/Documents/essample/slices/03_All_I_Need_0047.090045.wav
/Users/clean/Documents/essample/slices/03_All_I_Need_0047.230522.wav
/Users/clean/Documents/essample/slices/03_All_I_Need_0047.402063.wav
/Users/clean/Documents/essample/slices/03_All_I_Need_0047.530862.wav
/Users/clean/Documents/essample/slices/03_All_I_Need_0047.678141.wav
/Users/clean/Documents/essample/slices/03_All_I_Need_0047.719138.wav
/Users/clean/Documents/essample/slices/03_All_I_Need_0048.034739.wav
/Users/clean/Documents/essample/slices/03_All_I_Need_0048.341406.wav
/Users/clean/Documents/essample/slices/03_All_I_Need_0048.987619.wav
/Users/clean/Documents/essample/slices/03_All_I_Need_0049.620113.wav
/Users/clean/Documents/essample/slices/03_All_I_Need_0049.933515.wav
/Users/clean/Documents/essample/slices/03_All_I_Need_0050.032925.wav
/Users/clean/Documents/essample/slices/03_All_I_Need_0050.678934.wav
/Users/clean/Documents/essample/slices/03_All_I_Need_0050.849456.wav
/Users/clean/Documents/essample/slices/03_All_I_Need_0051.347279.wav
/Users/clean/Documents/essample/slices/03_All_I_Need_0051.515533.wav
/Users/clean/Documents/essample/slices/03_All_I_Need_0051.647846.wav
/Users/clean/Documents/essample/slices/03_All_I_Need_0051.790227.wav
/Users/clean/Documents/essample/slices/03_All_I_Need_0052.186281.wav
/Users/clean/Documents/essample/slices/03_All_I_Need_0052.293900.wav
/Users/clean/Documents/essample/slices/03_All_I_Need_0052.440612.wav
/Users/clean/Documents/essample/slices/03_All_I_Need_0052.583991.wav
/Users/clean/Documents/essample/slices/03_All_I_Need_0052.728549.wav
/Users/clean/Documents/essample/slices/03_All_I_Need_0052.778186.wav
/Users/clean/Documents/essample/slices/03_All_I_Need_0053.095306.wav
/Users/clean/Documents/essample/slices/03_All_I_Need_0053.383900.wav
;
#X obj 588 386 t b f b b;
#X obj 575 807 abstract_test;
#X obj 618 846 abstract_test;
#X obj 646 888 abstract_test;
#X obj 656 928 abstract_test;
#X obj 669 973 abstract_test;
#X obj 677 1012 abstract_test;
#X obj 684 1054 abstract_test;
#X obj 530 685 unpack s s s s s s s s;
#X msg 567 549 10;
#X msg 689 821 38;
#X msg 726 858 39;
#X msg 743 899 40;
#X msg 751 950 41;
#X msg 765 990 42;
#X msg 771 1032 43;
#X connect 0 0 8 1;
#X connect 1 0 20 0;
#X connect 3 0 12 0;
#X connect 5 0 3 0;
#X connect 5 1 2 0;
#X connect 5 2 4 0;
#X connect 6 0 9 1;
#X connect 7 0 13 1;
#X connect 8 1 1 0;
#X connect 11 0 8 0;
#X connect 12 0 11 0;
#X connect 12 1 0 0;
#X connect 12 3 21 0;
#X connect 12 3 6 0;
#X connect 12 3 7 0;
#X connect 12 3 23 0;
#X connect 12 3 22 0;
#X connect 12 3 24 0;
#X connect 12 3 25 0;
#X connect 12 3 26 0;
#X connect 12 3 27 0;
#X connect 20 0 9 0;
#X connect 20 1 13 0;
#X connect 20 2 14 0;
#X connect 20 3 15 0;
#X connect 20 4 16 0;
#X connect 20 5 17 0;
#X connect 20 6 18 0;
#X connect 20 7 19 0;
#X connect 21 0 1 1;
#X connect 22 0 14 1;
#X connect 23 0 15 1;
#X connect 24 0 16 1;
#X connect 25 0 17 1;
#X connect 26 0 18 1;
#X connect 27 0 19 1;
