#N canvas 323 180 638 410 10;
#X obj -1927 119 textfile;
#X obj -1952 -53 bng 15 250 50 0 empty empty empty 17 7 0 10 -262144
-1 -1;
#X msg -1887 76 rewind;
#X obj -1981 68 until;
#X msg -1884 44 read foo.txt;
#X obj -1947 8 t b b b b b;
#X obj -1765 -74 hcs/sys_gui;
#X msg -1769 -120 menu_clear_console;
#X obj -1970 171 list-extend;
#X connect 0 0 8 0;
#X connect 0 1 3 1;
#X connect 1 0 5 0;
#X connect 2 0 0 0;
#X connect 3 0 0 0;
#X connect 4 0 0 0;
#X connect 5 2 3 0;
#X connect 5 3 2 0;
#X connect 5 4 4 0;
#X connect 5 4 8 1;
#X connect 7 0 6 0;
