#N canvas 471 68 679 523 10;
#X obj -21351 212 textfile;
#X obj -21364 316 print list;
#X obj -21220 286 print done;
#X msg -21191 177 clear;
#X msg -21325 111 read pd_list.txt;
#X obj -21402 159 print;
#X connect 0 0 1 0;
#X connect 0 1 2 0;
#X connect 3 0 0 0;
#X connect 4 0 5 0;
#X connect 4 0 0 0;
