#N canvas 227 55 765 440 10;
#X obj 27 289 tabread4~;
#X obj 27 239 line~;
#X obj 27 212 pack 0 0;
#X obj 187 168 / 44.1;
#X obj 27 168 f;
#X obj 157 135 t f f;
#X obj 27 84 t b b;
#X msg 62 107 0;
#X obj 27 4 inlet 1_or_0_to_start_and_stop;
#X obj 27 55 select 1;
#X text 134 107 <---first set [line~] to zero \, then send target;
#X text 123 212 <---tell [line~] to go to x-sample in y-miliseconds
;
#X text 233 136 <---first gives time \, then target \, for [line~]
object;
#X obj 28 266 +~ 1;
#X obj 27 328 outlet~;
#X text 230 54 <---to see how samples are selected open here;
#N canvas 281 2 450 300 main_selector 0;
#X obj 100 148 f;
#X msg 46 73 set \$1-zample;
#N canvas 360 216 900 671 selector 0;
#X obj 38 90 f;
#X obj 38 23 select 1;
#X msg 38 43 bang;
#X obj 54 65 r 1-zample_size;
#X obj 38 190 f;
#X msg 38 143 bang;
#X obj 178 90 f;
#X msg 178 43 bang;
#X obj 178 190 f;
#X msg 178 143 bang;
#X obj 338 90 f;
#X msg 338 43 bang;
#X obj 338 190 f;
#X msg 338 143 bang;
#X obj 478 90 f;
#X msg 478 43 bang;
#X obj 478 190 f;
#X msg 478 143 bang;
#X obj 465 518 outlet;
#X obj 458 -30 inlet;
#X obj 178 23 select 2;
#X obj 194 65 r 2-zample_size;
#X obj 338 23 select 3;
#X obj 354 65 r 3-zample_size;
#X obj 478 23 select 4;
#X obj 494 65 r 4-zample_size;
#X obj 38 123 select 5;
#X obj 54 165 r 5-zample_size;
#X obj 178 123 select 6;
#X obj 194 165 r 6-zample_size;
#X obj 338 123 select 7;
#X obj 354 165 r 7-zample_size;
#X obj 478 123 select 8;
#X obj 494 165 r 8-zample_size;
#X obj 642 83 f;
#X msg 642 36 bang;
#X obj 642 183 f;
#X msg 642 136 bang;
#X obj 782 83 f;
#X msg 782 36 bang;
#X obj 782 183 f;
#X msg 782 136 bang;
#X obj 942 83 f;
#X msg 942 36 bang;
#X obj 942 183 f;
#X msg 942 136 bang;
#X obj 1082 83 f;
#X msg 1082 36 bang;
#X obj 1082 183 f;
#X msg 1082 136 bang;
#X obj 642 16 select 9;
#X obj 658 58 r 9-zample_size;
#X obj 782 16 select 10;
#X obj 798 58 r 10-zample_size;
#X obj 942 16 select 11;
#X obj 958 58 r 11-zample_size;
#X obj 1082 16 select 12;
#X obj 1098 58 r 12-zample_size;
#X obj 642 116 select 13;
#X obj 658 158 r 13-zample_size;
#X obj 782 116 select 14;
#X obj 798 158 r 14-zample_size;
#X obj 942 116 select 15;
#X obj 958 158 r 15-zample_size;
#X obj 1082 116 select 16;
#X obj 1098 158 r 16-zample_size;
#X obj 54 311 f;
#X msg 48 263 bang;
#X obj 48 410 f;
#X msg 48 363 bang;
#X obj 188 310 f;
#X msg 188 263 bang;
#X obj 188 410 f;
#X msg 188 363 bang;
#X obj 348 310 f;
#X msg 348 263 bang;
#X obj 348 410 f;
#X msg 348 363 bang;
#X obj 488 310 f;
#X msg 488 263 bang;
#X obj 488 410 f;
#X msg 488 363 bang;
#X obj 652 303 f;
#X msg 652 256 bang;
#X obj 652 403 f;
#X msg 652 356 bang;
#X obj 792 303 f;
#X msg 792 256 bang;
#X obj 792 403 f;
#X msg 792 356 bang;
#X obj 952 303 f;
#X msg 952 256 bang;
#X obj 952 403 f;
#X msg 952 356 bang;
#X obj 1092 303 f;
#X msg 1092 256 bang;
#X obj 1092 403 f;
#X msg 1092 356 bang;
#X obj 48 243 select 17;
#X obj 64 285 r 17-zample_size;
#X obj 188 243 select 18;
#X obj 204 285 r 18-zample_size;
#X obj 348 243 select 19;
#X obj 364 285 r 19-zample_size;
#X obj 488 243 select 20;
#X obj 504 285 r 20-zample_size;
#X obj 652 236 select 21;
#X obj 668 278 r 21-zample_size;
#X obj 791 236 select 22;
#X obj 808 278 r 22-zample_size;
#X obj 952 236 select 23;
#X obj 968 278 r 23-zample_size;
#X obj 1092 236 select 24;
#X obj 1108 278 r 24-zample_size;
#X obj 48 343 select 25;
#X obj 64 385 r 25-zample_size;
#X obj 188 343 select 26;
#X obj 204 385 r 26-zample_size;
#X obj 348 343 select 27;
#X obj 364 385 r 27-zample_size;
#X obj 488 343 select 28;
#X obj 504 385 r 28-zample_size;
#X obj 652 336 select 29;
#X obj 668 378 r 29-zample_size;
#X obj 792 336 select 30;
#X obj 808 378 r 30-zample_size;
#X obj 952 336 select 31;
#X obj 968 378 r 31-zample_size;
#X obj 1092 336 select 32;
#X obj 1108 378 r 32-zample_size;
#X connect 0 0 18 0;
#X connect 1 0 2 0;
#X connect 2 0 0 0;
#X connect 3 0 0 1;
#X connect 4 0 18 0;
#X connect 5 0 4 0;
#X connect 6 0 18 0;
#X connect 7 0 6 0;
#X connect 8 0 18 0;
#X connect 9 0 8 0;
#X connect 10 0 18 0;
#X connect 11 0 10 0;
#X connect 12 0 18 0;
#X connect 13 0 12 0;
#X connect 14 0 18 0;
#X connect 15 0 14 0;
#X connect 16 0 18 0;
#X connect 17 0 16 0;
#X connect 19 0 1 0;
#X connect 19 0 20 0;
#X connect 19 0 22 0;
#X connect 19 0 24 0;
#X connect 19 0 26 0;
#X connect 19 0 28 0;
#X connect 19 0 30 0;
#X connect 19 0 32 0;
#X connect 19 0 50 0;
#X connect 19 0 52 0;
#X connect 19 0 54 0;
#X connect 19 0 56 0;
#X connect 19 0 58 0;
#X connect 19 0 60 0;
#X connect 19 0 62 0;
#X connect 19 0 64 0;
#X connect 19 0 98 0;
#X connect 19 0 100 0;
#X connect 19 0 102 0;
#X connect 19 0 104 0;
#X connect 19 0 106 0;
#X connect 19 0 108 0;
#X connect 19 0 114 0;
#X connect 19 0 116 0;
#X connect 19 0 118 0;
#X connect 19 0 120 0;
#X connect 19 0 122 0;
#X connect 19 0 124 0;
#X connect 19 0 110 0;
#X connect 19 0 112 0;
#X connect 19 0 126 0;
#X connect 19 0 128 0;
#X connect 20 0 7 0;
#X connect 21 0 6 1;
#X connect 22 0 11 0;
#X connect 23 0 10 1;
#X connect 24 0 15 0;
#X connect 25 0 14 1;
#X connect 26 0 5 0;
#X connect 27 0 4 1;
#X connect 28 0 9 0;
#X connect 29 0 8 1;
#X connect 30 0 13 0;
#X connect 31 0 12 1;
#X connect 32 0 17 0;
#X connect 33 0 16 1;
#X connect 34 0 18 0;
#X connect 35 0 34 0;
#X connect 36 0 18 0;
#X connect 37 0 36 0;
#X connect 38 0 18 0;
#X connect 39 0 38 0;
#X connect 40 0 18 0;
#X connect 41 0 40 0;
#X connect 42 0 18 0;
#X connect 43 0 42 0;
#X connect 44 0 18 0;
#X connect 45 0 44 0;
#X connect 46 0 18 0;
#X connect 47 0 46 0;
#X connect 48 0 18 0;
#X connect 49 0 48 0;
#X connect 50 0 35 0;
#X connect 51 0 34 1;
#X connect 52 0 39 0;
#X connect 53 0 38 1;
#X connect 54 0 43 0;
#X connect 55 0 42 1;
#X connect 56 0 47 0;
#X connect 57 0 46 1;
#X connect 58 0 37 0;
#X connect 59 0 36 1;
#X connect 60 0 41 0;
#X connect 61 0 40 1;
#X connect 62 0 45 0;
#X connect 63 0 44 1;
#X connect 64 0 49 0;
#X connect 65 0 48 1;
#X connect 66 0 18 0;
#X connect 67 0 66 0;
#X connect 68 0 18 0;
#X connect 69 0 68 0;
#X connect 70 0 18 0;
#X connect 71 0 70 0;
#X connect 72 0 18 0;
#X connect 73 0 72 0;
#X connect 74 0 18 0;
#X connect 75 0 74 0;
#X connect 76 0 18 0;
#X connect 77 0 76 0;
#X connect 78 0 18 0;
#X connect 79 0 78 0;
#X connect 80 0 18 0;
#X connect 81 0 80 0;
#X connect 82 0 18 0;
#X connect 83 0 82 0;
#X connect 84 0 18 0;
#X connect 85 0 84 0;
#X connect 86 0 18 0;
#X connect 87 0 86 0;
#X connect 88 0 18 0;
#X connect 89 0 88 0;
#X connect 90 0 18 0;
#X connect 91 0 90 0;
#X connect 92 0 18 0;
#X connect 93 0 92 0;
#X connect 94 0 18 0;
#X connect 95 0 94 0;
#X connect 96 0 18 0;
#X connect 97 0 96 0;
#X connect 98 0 67 0;
#X connect 99 0 66 1;
#X connect 100 0 71 0;
#X connect 101 0 70 1;
#X connect 102 0 75 0;
#X connect 103 0 74 1;
#X connect 104 0 79 0;
#X connect 105 0 78 1;
#X connect 106 0 83 0;
#X connect 107 0 82 1;
#X connect 108 0 87 0;
#X connect 109 0 86 1;
#X connect 110 0 91 0;
#X connect 111 0 90 1;
#X connect 112 0 95 0;
#X connect 113 0 94 1;
#X connect 114 0 69 0;
#X connect 115 0 68 1;
#X connect 116 0 73 0;
#X connect 117 0 72 1;
#X connect 118 0 77 0;
#X connect 119 0 76 1;
#X connect 120 0 81 0;
#X connect 121 0 80 1;
#X connect 122 0 85 0;
#X connect 123 0 84 1;
#X connect 124 0 89 0;
#X connect 125 0 88 1;
#X connect 126 0 93 0;
#X connect 127 0 92 1;
#X connect 128 0 97 0;
#X connect 129 0 96 1;
#X restore 100 100 pd selector;
#X obj 100 121 t b f;
#X obj 55 27 inlet;
#X obj 46 195 outlet sample_table_to_read;
#X text 185 101 <----samples are selected here \, total of 32 samples
are possible;
#X obj 100 176 outlet sample_length_in_samples;
#X connect 0 0 7 0;
#X connect 1 0 5 0;
#X connect 2 0 3 0;
#X connect 3 0 0 0;
#X connect 3 1 0 1;
#X connect 4 0 1 0;
#X connect 4 0 2 0;
#X restore 92 55 pd main_selector;
#X obj 92 28 inlet sample_number_to_select;
#X text 229 74 <---left output is table containing sample \, right
output is file length in samples;
#X text 278 169 <---remember to change to 48 for 48KHz sampling rate!
here is where you would do some math to change the playback rate;
#X text 124 330 derek@umatic.nl;
#X text 259 254 This example sampler client takes the sample number
as input \, and from this determines which table in samplemapper to
read \, as well as the length of the selected table in samples.;
#X connect 0 0 14 0;
#X connect 1 0 13 0;
#X connect 2 0 1 0;
#X connect 3 0 2 1;
#X connect 4 0 2 0;
#X connect 5 0 4 1;
#X connect 5 1 3 0;
#X connect 6 0 4 0;
#X connect 6 1 7 0;
#X connect 7 0 1 0;
#X connect 8 0 9 0;
#X connect 9 0 6 0;
#X connect 9 1 7 0;
#X connect 13 0 0 0;
#X connect 16 0 0 0;
#X connect 16 1 5 0;
#X connect 17 0 16 0;
