#N canvas 242 168 196 50 10;
#X obj 1 0 cnv 15 190 45 empty empty \$1-mapreader 45 8 0 10 -1 -24198
0;
#X obj 62 14 cnv 10 120 10 empty \$0-zamplebar empty 8 5 1 8 -24198
-1 0;
#X obj 44 14 cnv 10 15 10 empty \$0-zamplenumber empty 4 5 1 8 -24198
-1 0;
#X obj 4 15 nbx 4 10 1 1e+37 0 0 \$0-sample_select \$0-sample_select
LOAD 6 -6 0 8 -24198 -1 -24198 1 256;
#X obj 62 29 cnv 10 120 10 empty \$0-currentbar empty 8 5 1 8 -166441
-1 0;
#X obj 44 29 cnv 10 15 10 empty \$0-currentnumber empty 4 5 1 8 -166441
-1 0;
#X obj 2 29 cnv 10 40 12 empty empty CURRENT 2 5 0 8 -1 -24198 0;
#N canvas 0 0 434 363 selector 0;
#X obj 24 156 mousefilter;
#X msg 24 218 label \$1;
#X obj 24 196 symbol;
#X msg 24 176 bang;
#X obj 108 176 symbol;
#X obj 11 62 t f b;
#X msg 108 156 none;
#X obj 11 120 coll \$1-zamplez.txt;
#C restore;
#X msg 65 85 readagain;
#X obj 65 62 delay 100;
#X obj 65 38 r \$1-saveme;
#X obj 24 240 s \$0-currentbar;
#X obj 11 306 s \$0-zamplebar;
#X msg 11 284 label \$1;
#X obj 11 263 symbol;
#X obj 11 7 r \$0-sample_select;
#X msg 152 38 open;
#X obj 152 15 r \$0-openme;
#X msg 147 285 label \$1;
#X obj 147 307 s \$0-zamplenumber;
#X obj 147 263 ftos;
#X obj 287 240 f;
#X msg 287 285 label \$1;
#X obj 287 263 ftos;
#X obj 287 307 s \$0-currentnumber;
#X obj 305 333 outlet;
#X obj 245 4 inlet;
#X obj 245 35 t b f;
#X text 13 332 derek@umatic.nl;
#X connect 0 0 3 0;
#X connect 1 0 11 0;
#X connect 2 0 1 0;
#X connect 3 0 2 0;
#X connect 3 0 21 0;
#X connect 4 0 2 1;
#X connect 4 0 13 0;
#X connect 5 0 7 0;
#X connect 5 1 6 0;
#X connect 6 0 4 0;
#X connect 7 0 2 1;
#X connect 7 0 14 0;
#X connect 8 0 7 0;
#X connect 9 0 8 0;
#X connect 10 0 9 0;
#X connect 13 0 12 0;
#X connect 14 0 13 0;
#X connect 15 0 0 0;
#X connect 15 0 5 0;
#X connect 15 0 20 0;
#X connect 15 0 21 1;
#X connect 16 0 7 0;
#X connect 17 0 16 0;
#X connect 18 0 19 0;
#X connect 20 0 18 0;
#X connect 21 0 23 0;
#X connect 21 0 25 0;
#X connect 22 0 24 0;
#X connect 23 0 22 0;
#X connect 26 0 27 0;
#X connect 27 0 2 0;
#X connect 27 1 21 0;
#X connect 27 1 20 0;
#X restore 0 97 pd selector;
#X obj 0 119 outlet;
#X obj 18 70 inlet;
#X obj 84 97 s \$0-sample_select;
#X text 61 70 derek@umatic.nl;
#X connect 7 0 8 0;
#X connect 9 0 7 0;
#X connect 9 0 10 0;
#X coords 0 0 1 1 191 46 1;
