#N canvas 43 98 194 48 10;
#X obj 8 148 zample-loader \$1 1;
#X obj 0 0 cnv 15 190 45 empty empty \$1-samplemapper 45 8 0 10 -1
-24198 0;
#X obj 44 28 bng 15 250 50 0 \$0-openme empty VIEW_MAP 20 8 0 8 -258699
-1 -24198;
#X obj 62 14 cnv 10 120 10 empty \$0-zamplebar empty 8 5 1 8 -166441
-1 0;
#X obj 44 14 cnv 10 15 10 empty \$0-zamplenumber empty 4 5 1 10 -166441
-1 0;
#X obj 3 14 nbx 4 10 1 1e+37 0 0 \$0-sample_select null LOAD 6 -6 0
8 -24198 -1 -24198 1 256;
#N canvas 41 267 555 310 colls 0;
#X msg 366 41 open;
#X msg 87 111 readagain;
#X obj 87 86 delay 100;
#X msg 419 112 readagain;
#X obj 419 87 delay 100;
#X obj 452 41 symbol \$1;
#X msg 110 63 write \$1-zamplez.txt;
#X msg 452 64 write \$1-loader.txt;
#X obj 110 41 symbol \$1;
#X obj 110 17 r \$1-saveme;
#X obj 17 17 r \$1-zamplez;
#X obj 278 18 r \$1-loader;
#X obj 452 18 r \$1-saveme;
#X obj 366 18 r \$0-openme;
#X msg 56 41 open;
#X obj 17 168 coll \$1-zamplez.txt;
#C restore;
#X obj 278 168 coll \$1-loader.txt;
#C restore;
#X connect 0 0 16 0;
#X connect 1 0 15 0;
#X connect 2 0 1 0;
#X connect 3 0 16 0;
#X connect 4 0 3 0;
#X connect 5 0 7 0;
#X connect 6 0 15 0;
#X connect 7 0 16 0;
#X connect 8 0 6 0;
#X connect 9 0 2 0;
#X connect 9 0 8 0;
#X connect 10 0 15 0;
#X connect 11 0 16 0;
#X connect 12 0 4 0;
#X connect 12 0 5 0;
#X connect 13 0 0 0;
#X connect 14 0 15 0;
#X restore 8 127 pd colls;
#N canvas 0 0 450 300 selector 0;
#X obj 71 30 mousefilter;
#X obj 54 184 symbol;
#X msg 54 164 none;
#X obj 32 140 coll \$1-zamplez.txt;
#C restore;
#X obj 10 30 t b f b;
#X msg 10 235 label \$1;
#X obj 10 213 symbol;
#X obj 10 257 s \$0-zamplebar;
#X msg 136 235 label \$1;
#X obj 136 257 s \$0-zamplenumber;
#X obj 136 213 ftos;
#X obj 44 117 f;
#X obj 71 70 r \$1-finished;
#X obj 71 114 s \$1-saveme;
#X obj 71 50 s \$1-selector;
#X obj 10 6 r \$0-sample_select;
#X obj 71 92 delay 100;
#X connect 0 0 14 0;
#X connect 1 0 6 1;
#X connect 2 0 1 0;
#X connect 3 0 6 0;
#X connect 4 0 6 0;
#X connect 4 1 3 0;
#X connect 4 2 2 0;
#X connect 5 0 7 0;
#X connect 6 0 5 0;
#X connect 8 0 9 0;
#X connect 10 0 8 0;
#X connect 11 0 3 0;
#X connect 12 0 16 0;
#X connect 12 0 11 0;
#X connect 15 0 4 0;
#X connect 15 0 0 0;
#X connect 15 0 11 1;
#X connect 15 0 10 0;
#X connect 16 0 13 0;
#X restore 148 127 pd selector;
#X obj 133 28 bng 15 250 50 0 \$1-init empty RECALL 20 8 0 8 -24198
-1 -24198;
#X text 3 59 derek@umatic.nl;
#X obj 8 288 zample-loader \$1 29;
#X obj 148 148 zample-loader \$1 2;
#X obj 288 148 zample-loader \$1 3;
#X obj 428 148 zample-loader \$1 4;
#X obj 8 168 zample-loader \$1 5;
#X obj 148 168 zample-loader \$1 6;
#X obj 288 168 zample-loader \$1 7;
#X obj 428 168 zample-loader \$1 8;
#X obj 8 188 zample-loader \$1 9;
#X obj 148 188 zample-loader \$1 10;
#X obj 288 188 zample-loader \$1 11;
#X obj 428 188 zample-loader \$1 12;
#X obj 8 208 zample-loader \$1 13;
#X obj 148 208 zample-loader \$1 14;
#X obj 288 208 zample-loader \$1 15;
#X obj 428 208 zample-loader \$1 16;
#X obj 8 228 zample-loader \$1 17;
#X obj 148 228 zample-loader \$1 18;
#X obj 288 228 zample-loader \$1 19;
#X obj 428 228 zample-loader \$1 20;
#X obj 8 248 zample-loader \$1 21;
#X obj 148 248 zample-loader \$1 22;
#X obj 288 248 zample-loader \$1 23;
#X obj 428 248 zample-loader \$1 24;
#X obj 8 268 zample-loader \$1 25;
#X obj 148 268 zample-loader \$1 26;
#X obj 288 268 zample-loader \$1 27;
#X obj 428 268 zample-loader \$1 28;
#X obj 148 288 zample-loader \$1 30;
#X obj 288 288 zample-loader \$1 31;
#X obj 428 288 zample-loader \$1 32;
#X coords 0 0 1 1 191 46 1;
