#N canvas 150 129 800 415 10;
#X obj 6 49 openpanel;
#X msg 337 209 empty;
#X obj 337 185 loadbang;
#X obj 337 229 symbol;
#X obj 194 110 stripdir;
#X obj 25 110 table \$2-zample;
#X obj 6 378 s \$2-zample_size;
#X msg 28 230 0;
#X msg 28 282 add \$1;
#X obj 6 203 t b b a;
#X obj 6 351 soundfiler;
#X obj 28 256 makefilename \$2-zample;
#X obj 238 182 f \$2;
#X obj 194 138 t b a b;
#X msg 216 229 add \$1;
#X msg 238 205 set \$1;
#X msg 6 159 set read -resize -maxsize 1.323e+09 \$1;
#X obj 508 162 f \$2;
#X obj 464 138 t b a b;
#X msg 486 229 add \$1;
#X msg 508 185 set \$1;
#X obj 284 54 f \$2;
#X obj 284 110 stripdir;
#X obj 337 281 s \$2-zample-name;
#X obj 6 24 route \$2;
#X obj 148 378 s \$1-finished;
#X msg 148 351 bang;
#X obj 194 281 s \$1-zamplez;
#X obj 464 281 s \$1-loader;
#X obj 6 1 r \$1-selector;
#X obj 284 -7 r \$1-init;
#X msg 337 256;
#X obj 284 13 t b b;
#X msg 320 54 read \$1-loader.txt;
#X obj 284 83 coll;
#C restore;
#X msg 194 256;
#X msg 464 256;
#X obj 320 34 symbol \$1;
#X msg 6 311;
#X text 257 372 derek@umatic.nl;
#X connect 0 0 4 0;
#X connect 0 0 16 0;
#X connect 0 0 18 0;
#X connect 1 0 3 0;
#X connect 2 0 1 0;
#X connect 3 0 31 0;
#X connect 4 0 13 0;
#X connect 4 0 31 0;
#X connect 7 0 11 0;
#X connect 8 0 38 0;
#X connect 9 0 38 0;
#X connect 9 1 7 0;
#X connect 9 2 38 0;
#X connect 10 0 6 0;
#X connect 10 0 26 0;
#X connect 11 0 8 0;
#X connect 12 0 15 0;
#X connect 13 0 35 0;
#X connect 13 1 14 0;
#X connect 13 2 12 0;
#X connect 14 0 35 0;
#X connect 15 0 35 0;
#X connect 16 0 9 0;
#X connect 17 0 20 0;
#X connect 18 0 36 0;
#X connect 18 1 19 0;
#X connect 18 2 17 0;
#X connect 19 0 36 0;
#X connect 20 0 36 0;
#X connect 21 0 34 0;
#X connect 22 0 31 0;
#X connect 24 0 0 0;
#X connect 26 0 25 0;
#X connect 29 0 24 0;
#X connect 30 0 32 0;
#X connect 31 0 23 0;
#X connect 32 0 21 0;
#X connect 32 1 37 0;
#X connect 33 0 34 0;
#X connect 34 0 16 0;
#X connect 34 0 22 0;
#X connect 35 0 27 0;
#X connect 36 0 28 0;
#X connect 37 0 33 0;
#X connect 38 0 10 0;
